G04*
G04 #@! TF.GenerationSoftware,Altium Limited,Altium Designer,19.0.10 (269)*
G04*
G04 Layer_Color=32896*
%FSLAX25Y25*%
%MOIN*%
G70*
G01*
G75*
%ADD10C,0.01000*%
G36*
X447357Y415189D02*
X446963D01*
Y415058D01*
X446307D01*
Y414926D01*
X445913D01*
Y414795D01*
X445519D01*
Y414664D01*
X445125D01*
Y414533D01*
X444731D01*
Y414401D01*
X444337D01*
Y414270D01*
X443943D01*
Y414139D01*
X443287D01*
Y413876D01*
X442499D01*
Y413745D01*
X442237D01*
Y413614D01*
X441843D01*
Y413482D01*
X441449D01*
Y413351D01*
X441055D01*
Y413220D01*
X440792D01*
Y413088D01*
X440398D01*
Y412957D01*
X439873D01*
Y412826D01*
X439611D01*
Y412694D01*
X439348D01*
Y420704D01*
X439742D01*
Y420835D01*
X440136D01*
Y420966D01*
X440530D01*
Y421097D01*
X440924D01*
Y421229D01*
X441318D01*
Y421360D01*
X441974D01*
Y421623D01*
X442105D01*
Y421491D01*
X442368D01*
Y421623D01*
X442630D01*
Y421754D01*
X443024D01*
Y421885D01*
X443418D01*
Y422016D01*
X443812D01*
Y422148D01*
X444206D01*
Y422279D01*
X444469D01*
Y422410D01*
X444994D01*
Y422542D01*
X445650D01*
Y422804D01*
X445782D01*
Y422673D01*
X446044D01*
Y422804D01*
X446438D01*
Y422935D01*
X446701D01*
Y423067D01*
X447094D01*
Y423198D01*
X447357D01*
Y415189D01*
D02*
G37*
G36*
X431470Y410200D02*
X431995D01*
Y410331D01*
X432258D01*
Y410462D01*
X432652D01*
Y410594D01*
X433046D01*
Y410725D01*
X433440D01*
Y410856D01*
X433834D01*
Y410988D01*
X434490D01*
Y411250D01*
X434621D01*
Y411119D01*
X434753D01*
Y411250D01*
X435147D01*
Y411381D01*
X435672D01*
Y411513D01*
X436066D01*
Y411644D01*
X436328D01*
Y411775D01*
X436722D01*
Y411907D01*
X437116D01*
Y412038D01*
X437510D01*
Y412169D01*
X438166D01*
Y412432D01*
X438298D01*
Y412300D01*
X438560D01*
Y412432D01*
X438823D01*
Y412563D01*
X439217D01*
Y412694D01*
X439348D01*
Y404817D01*
X439873D01*
Y404948D01*
X440136D01*
Y405079D01*
X440661D01*
Y405210D01*
X441055D01*
Y405342D01*
X441318D01*
Y405473D01*
X441711D01*
Y405604D01*
X442105D01*
Y405736D01*
X442237D01*
Y405604D01*
X442499D01*
Y405867D01*
X443156D01*
Y405998D01*
X443549D01*
Y406130D01*
X443943D01*
Y406261D01*
X444206D01*
Y406392D01*
X444600D01*
Y406524D01*
X444994D01*
Y406655D01*
X445388D01*
Y406786D01*
X445782D01*
Y406917D01*
X446175D01*
Y407049D01*
X446569D01*
Y407180D01*
X447226D01*
Y407311D01*
X447357D01*
Y399433D01*
X447094D01*
Y399302D01*
X446701D01*
Y399171D01*
X446307D01*
Y399040D01*
X446044D01*
Y398908D01*
X445650D01*
Y398777D01*
X445125D01*
Y398646D01*
X444731D01*
Y398514D01*
X444469D01*
Y398383D01*
X443812D01*
Y398120D01*
X443549D01*
Y398252D01*
X443418D01*
Y398120D01*
X443024D01*
Y397989D01*
X442630D01*
Y397858D01*
X442237D01*
Y397727D01*
X441974D01*
Y397595D01*
X441580D01*
Y397464D01*
X441186D01*
Y397333D01*
X440924D01*
Y397201D01*
X440004D01*
Y396939D01*
X439873D01*
Y397070D01*
X439742D01*
Y396939D01*
X439348D01*
Y389061D01*
X439085D01*
Y388930D01*
X438692D01*
Y388798D01*
X438429D01*
Y388667D01*
X438035D01*
Y388536D01*
X437641D01*
Y388405D01*
X437247D01*
Y388273D01*
X436853D01*
Y388142D01*
X436459D01*
Y388011D01*
X435803D01*
Y387879D01*
X435672D01*
Y387748D01*
X435540D01*
Y387879D01*
X435409D01*
Y387748D01*
X435015D01*
Y387617D01*
X434621D01*
Y387486D01*
X434359D01*
Y387354D01*
X433965D01*
Y387223D01*
X433571D01*
Y387092D01*
X433177D01*
Y386960D01*
X432914D01*
Y386829D01*
X432127D01*
Y386566D01*
X431995D01*
Y386698D01*
X431733D01*
Y386566D01*
X431470D01*
Y394444D01*
X431076D01*
Y394313D01*
X430682D01*
Y394182D01*
X430420D01*
Y394050D01*
X430026D01*
Y393919D01*
X429632D01*
Y393788D01*
X429369D01*
Y393656D01*
X428976D01*
Y393525D01*
X428582D01*
Y393394D01*
X428188D01*
Y393263D01*
X428056D01*
Y393394D01*
X427925D01*
Y393263D01*
X427794D01*
Y393131D01*
X427137D01*
Y393000D01*
X426612D01*
Y392869D01*
X426350D01*
Y392737D01*
X425956D01*
Y392606D01*
X425562D01*
Y392475D01*
X425299D01*
Y392343D01*
X424905D01*
Y392212D01*
X424511D01*
Y392081D01*
X424118D01*
Y391950D01*
X423855D01*
Y391818D01*
X423461D01*
Y399696D01*
X423592D01*
Y399827D01*
X423986D01*
Y399959D01*
X424380D01*
Y400090D01*
X424643D01*
Y400221D01*
X425037D01*
Y400353D01*
X425431D01*
Y400484D01*
X425693D01*
Y400615D01*
X426481D01*
Y400878D01*
X426612D01*
Y400746D01*
X426875D01*
Y400878D01*
X427269D01*
Y401009D01*
X427663D01*
Y401140D01*
X428056D01*
Y401272D01*
X428450D01*
Y401403D01*
X428713D01*
Y401534D01*
X429107D01*
Y401665D01*
X429501D01*
Y401797D01*
X430157D01*
Y402059D01*
X430289D01*
Y401928D01*
X430551D01*
Y402059D01*
X430945D01*
Y402191D01*
X431208D01*
Y402322D01*
X431470D01*
Y410069D01*
X430814D01*
Y409806D01*
X430682D01*
Y409937D01*
X430420D01*
Y409806D01*
X430026D01*
Y409675D01*
X429632D01*
Y409543D01*
X429369D01*
Y409412D01*
X428976D01*
Y409281D01*
X428582D01*
Y409149D01*
X428188D01*
Y409018D01*
X427794D01*
Y408887D01*
X427531D01*
Y408755D01*
X427137D01*
Y408624D01*
X427006D01*
Y408755D01*
X426744D01*
Y408493D01*
X426612D01*
Y408624D01*
X426481D01*
Y408493D01*
X426087D01*
Y408362D01*
X425562D01*
Y408230D01*
X425299D01*
Y408099D01*
X424905D01*
Y407968D01*
X424511D01*
Y407836D01*
X424118D01*
Y407705D01*
X423855D01*
Y407574D01*
X423461D01*
Y415452D01*
X423592D01*
Y415583D01*
X423986D01*
Y415714D01*
X424380D01*
Y415845D01*
X424643D01*
Y415977D01*
X425037D01*
Y416108D01*
X425168D01*
Y415977D01*
X425431D01*
Y416239D01*
X426218D01*
Y416371D01*
X426612D01*
Y416502D01*
X426875D01*
Y416633D01*
X427269D01*
Y416765D01*
X427663D01*
Y416896D01*
X428056D01*
Y417027D01*
X428450D01*
Y417159D01*
X428713D01*
Y417290D01*
X429107D01*
Y417421D01*
X429238D01*
Y417290D01*
X429369D01*
Y417421D01*
X429501D01*
Y417552D01*
X430157D01*
Y417815D01*
X430289D01*
Y417684D01*
X430682D01*
Y417815D01*
X430945D01*
Y417946D01*
X431339D01*
Y418078D01*
X431470D01*
Y410200D01*
D02*
G37*
G36*
X421229Y309102D02*
X421098D01*
Y309233D01*
X420835D01*
Y308970D01*
X420441D01*
Y308839D01*
X419785D01*
Y308708D01*
X419391D01*
Y308576D01*
X418997D01*
Y308445D01*
X418735D01*
Y308314D01*
X418341D01*
Y308182D01*
X417947D01*
Y308051D01*
X417553D01*
Y307920D01*
X417159D01*
Y307788D01*
X417028D01*
Y307920D01*
X416765D01*
Y307657D01*
X416109D01*
Y307526D01*
X415715D01*
Y307395D01*
X415321D01*
Y307263D01*
X414927D01*
Y307132D01*
X414664D01*
Y307001D01*
X414270D01*
Y306870D01*
X413876D01*
Y306738D01*
X413614D01*
Y306607D01*
X413220D01*
Y306476D01*
X412826D01*
Y306344D01*
X412038D01*
Y306213D01*
X411644D01*
Y306082D01*
X411251D01*
Y305950D01*
X410857D01*
Y305819D01*
X410594D01*
Y305688D01*
X410200D01*
Y305557D01*
X409806D01*
Y305425D01*
X409544D01*
Y305294D01*
X409150D01*
Y305163D01*
X408362D01*
Y304900D01*
X408099D01*
Y410725D01*
X408493D01*
Y410856D01*
X408756D01*
Y410988D01*
X409544D01*
Y411250D01*
X409675D01*
Y411119D01*
X409806D01*
Y411250D01*
X410200D01*
Y411381D01*
X410594D01*
Y411513D01*
X410988D01*
Y411644D01*
X411251D01*
Y411775D01*
X411644D01*
Y411907D01*
X412170D01*
Y412038D01*
X412564D01*
Y412169D01*
X413220D01*
Y412432D01*
X413351D01*
Y412300D01*
X413614D01*
Y412432D01*
X414008D01*
Y412563D01*
X414270D01*
Y412694D01*
X414664D01*
Y412826D01*
X415058D01*
Y412957D01*
X415321D01*
Y413088D01*
X415715D01*
Y413220D01*
X416109D01*
Y413351D01*
X416502D01*
Y413482D01*
X416896D01*
Y413614D01*
X417028D01*
Y413482D01*
X417290D01*
Y413745D01*
X417421D01*
Y413614D01*
X417553D01*
Y413745D01*
X417947D01*
Y413876D01*
X418341D01*
Y414007D01*
X418735D01*
Y414139D01*
X419128D01*
Y414270D01*
X419391D01*
Y414401D01*
X419785D01*
Y414533D01*
X420179D01*
Y414664D01*
X420835D01*
Y414926D01*
X420966D01*
Y414795D01*
X421098D01*
Y414926D01*
X421229D01*
Y309102D01*
D02*
G37*
G36*
X431470Y378557D02*
X431208D01*
Y378426D01*
X430814D01*
Y378295D01*
X430551D01*
Y378164D01*
X430157D01*
Y378032D01*
X429763D01*
Y377901D01*
X429369D01*
Y377769D01*
X429107D01*
Y377638D01*
X428319D01*
Y377376D01*
X428188D01*
Y377507D01*
X428056D01*
Y377376D01*
X427663D01*
Y377244D01*
X427137D01*
Y377113D01*
X426744D01*
Y376982D01*
X426481D01*
Y376851D01*
X426087D01*
Y376719D01*
X425693D01*
Y376588D01*
X425299D01*
Y376457D01*
X424643D01*
Y376194D01*
X424511D01*
Y376325D01*
X424249D01*
Y376194D01*
X423986D01*
Y376063D01*
X423592D01*
Y375931D01*
X423461D01*
Y383941D01*
X424118D01*
Y384072D01*
X424380D01*
Y384203D01*
X424774D01*
Y384334D01*
X425168D01*
Y384466D01*
X425562D01*
Y384597D01*
X425824D01*
Y384728D01*
X426218D01*
Y384860D01*
X426612D01*
Y384991D01*
X426744D01*
Y384860D01*
X426875D01*
Y385122D01*
X427794D01*
Y385254D01*
X428188D01*
Y385385D01*
X428450D01*
Y385516D01*
X428844D01*
Y385647D01*
X429238D01*
Y385779D01*
X429632D01*
Y385910D01*
X429895D01*
Y386041D01*
X430289D01*
Y386173D01*
X430682D01*
Y386304D01*
X430945D01*
Y386435D01*
X431470D01*
Y378557D01*
D02*
G37*
G36*
X447357Y383547D02*
X447226D01*
Y383415D01*
X446832D01*
Y383284D01*
X446438D01*
Y383153D01*
X446175D01*
Y383021D01*
X445650D01*
Y382890D01*
X445519D01*
Y383021D01*
X445256D01*
Y382759D01*
X444600D01*
Y382628D01*
X444206D01*
Y382496D01*
X443812D01*
Y382365D01*
X443418D01*
Y382234D01*
X443156D01*
Y382102D01*
X442762D01*
Y381971D01*
X442368D01*
Y381840D01*
X442105D01*
Y381708D01*
X441711D01*
Y381577D01*
X441186D01*
Y381446D01*
X440530D01*
Y381183D01*
X440398D01*
Y381315D01*
X440136D01*
Y381183D01*
X439742D01*
Y381052D01*
X439479D01*
Y380921D01*
X439348D01*
Y388930D01*
X440004D01*
Y389061D01*
X440267D01*
Y389192D01*
X440661D01*
Y389324D01*
X441186D01*
Y389455D01*
X441449D01*
Y389586D01*
X441843D01*
Y389718D01*
X442237D01*
Y389849D01*
X442630D01*
Y389980D01*
X442893D01*
Y390111D01*
X443287D01*
Y390243D01*
X443943D01*
Y390374D01*
X444337D01*
Y390505D01*
X444731D01*
Y390637D01*
X445125D01*
Y390768D01*
X445388D01*
Y390899D01*
X445913D01*
Y391031D01*
X446307D01*
Y391162D01*
X446701D01*
Y391293D01*
X446963D01*
Y391424D01*
X447357D01*
Y383547D01*
D02*
G37*
G36*
Y363721D02*
X447094D01*
Y363590D01*
X446307D01*
Y363327D01*
X446175D01*
Y363458D01*
X445913D01*
Y363327D01*
X445519D01*
Y363196D01*
X445125D01*
Y363064D01*
X444863D01*
Y362933D01*
X444469D01*
Y362802D01*
X444075D01*
Y362670D01*
X443812D01*
Y362539D01*
X443418D01*
Y362408D01*
X443024D01*
Y362277D01*
X442630D01*
Y362145D01*
X442499D01*
Y362277D01*
X442237D01*
Y362014D01*
X441843D01*
Y367791D01*
X441449D01*
Y367660D01*
X441055D01*
Y367528D01*
X440792D01*
Y367397D01*
X440398D01*
Y367266D01*
X439742D01*
Y367003D01*
X439611D01*
Y367134D01*
X439348D01*
Y367003D01*
X438954D01*
Y366872D01*
X438429D01*
Y366741D01*
X438166D01*
Y366609D01*
X437773D01*
Y366478D01*
X437379D01*
Y366347D01*
X437116D01*
Y366215D01*
X436722D01*
Y366084D01*
X435934D01*
Y365822D01*
X435803D01*
Y365953D01*
X435672D01*
Y365822D01*
X435278D01*
Y365690D01*
X434884D01*
Y365559D01*
X434490D01*
Y365428D01*
X434227D01*
Y365296D01*
X433834D01*
Y365165D01*
X433308D01*
Y365034D01*
X433046D01*
Y364902D01*
X432652D01*
Y364771D01*
X431864D01*
Y364509D01*
X431208D01*
Y364377D01*
X430814D01*
Y364246D01*
X430551D01*
Y364115D01*
X430157D01*
Y363983D01*
X429763D01*
Y363852D01*
X429369D01*
Y363721D01*
X429107D01*
Y363590D01*
X428582D01*
Y363458D01*
X428450D01*
Y363590D01*
X428188D01*
Y363327D01*
X428056D01*
Y363458D01*
X427925D01*
Y363327D01*
X427531D01*
Y363196D01*
X427137D01*
Y363064D01*
X426744D01*
Y362933D01*
X426481D01*
Y362802D01*
X426087D01*
Y362670D01*
X425693D01*
Y362539D01*
X425299D01*
Y362408D01*
X425037D01*
Y362277D01*
X424643D01*
Y362145D01*
X424511D01*
Y362277D01*
X424249D01*
Y362014D01*
X423592D01*
Y361883D01*
X423461D01*
Y367922D01*
X423724D01*
Y368054D01*
X424118D01*
Y368185D01*
X424774D01*
Y368447D01*
X424905D01*
Y368316D01*
X425168D01*
Y368447D01*
X425562D01*
Y368579D01*
X425824D01*
Y368710D01*
X426218D01*
Y368841D01*
X426612D01*
Y368973D01*
X427006D01*
Y369104D01*
X427400D01*
Y369235D01*
X427794D01*
Y369367D01*
X428188D01*
Y369498D01*
X428844D01*
Y369760D01*
X428976D01*
Y369629D01*
X429238D01*
Y369760D01*
X429632D01*
Y369892D01*
X429895D01*
Y370023D01*
X430289D01*
Y370154D01*
X430682D01*
Y370286D01*
X430945D01*
Y370417D01*
X431470D01*
Y370548D01*
X431864D01*
Y370679D01*
X432521D01*
Y370942D01*
X432652D01*
Y370811D01*
X432914D01*
Y370942D01*
X433308D01*
Y371073D01*
X433571D01*
Y371205D01*
X433965D01*
Y371336D01*
X434359D01*
Y371467D01*
X434753D01*
Y371599D01*
X435015D01*
Y371730D01*
X435409D01*
Y371861D01*
X435803D01*
Y371992D01*
X436591D01*
Y372255D01*
X437247D01*
Y372386D01*
X437641D01*
Y372518D01*
X438035D01*
Y372649D01*
X438429D01*
Y372780D01*
X438823D01*
Y372912D01*
X439085D01*
Y373043D01*
X439479D01*
Y373174D01*
X440136D01*
Y373437D01*
X440267D01*
Y373306D01*
X440530D01*
Y373568D01*
X441318D01*
Y373699D01*
X441711D01*
Y373831D01*
X441843D01*
Y379739D01*
X442105D01*
Y379870D01*
X442762D01*
Y380002D01*
X443287D01*
Y380133D01*
X443681D01*
Y380264D01*
X443943D01*
Y380396D01*
X444337D01*
Y380527D01*
X444731D01*
Y380658D01*
X445125D01*
Y380789D01*
X445388D01*
Y380921D01*
X445782D01*
Y381052D01*
X446569D01*
Y381183D01*
X446832D01*
Y381315D01*
X447226D01*
Y381446D01*
X447357D01*
Y363721D01*
D02*
G37*
G36*
Y357025D02*
X447226D01*
Y356762D01*
X447094D01*
Y356893D01*
X446832D01*
Y356631D01*
X446701D01*
Y356762D01*
X446569D01*
Y356631D01*
X446175D01*
Y356500D01*
X445782D01*
Y356368D01*
X445388D01*
Y356237D01*
X444994D01*
Y356106D01*
X444600D01*
Y355974D01*
X444206D01*
Y355843D01*
X443812D01*
Y355712D01*
X443156D01*
Y355449D01*
X443024D01*
Y355580D01*
X442762D01*
Y355449D01*
X442368D01*
Y355318D01*
X442105D01*
Y355187D01*
X441711D01*
Y355055D01*
X441318D01*
Y354924D01*
X440924D01*
Y354793D01*
X440661D01*
Y354661D01*
X440136D01*
Y354530D01*
X439742D01*
Y354399D01*
X439479D01*
Y354268D01*
X439348D01*
Y354399D01*
X439085D01*
Y354136D01*
X438429D01*
Y354005D01*
X438035D01*
Y353874D01*
X437641D01*
Y353742D01*
X437247D01*
Y353611D01*
X436853D01*
Y353480D01*
X436591D01*
Y353348D01*
X436197D01*
Y353217D01*
X435409D01*
Y352955D01*
X435278D01*
Y353086D01*
X435015D01*
Y352955D01*
X434621D01*
Y352823D01*
X434359D01*
Y352692D01*
X433965D01*
Y352561D01*
X433571D01*
Y352429D01*
X433177D01*
Y352298D01*
X432914D01*
Y352167D01*
X432521D01*
Y352035D01*
X432127D01*
Y351904D01*
X431864D01*
Y351773D01*
X431733D01*
Y351904D01*
X431470D01*
Y351642D01*
X430814D01*
Y351510D01*
X430551D01*
Y351248D01*
X430420D01*
Y351116D01*
X430157D01*
Y350985D01*
X430026D01*
Y350854D01*
X429895D01*
Y350723D01*
X429763D01*
Y350460D01*
X429632D01*
Y350329D01*
X429501D01*
Y350197D01*
X429369D01*
Y349803D01*
X429238D01*
Y349672D01*
X429107D01*
Y349278D01*
X428976D01*
Y348884D01*
X428844D01*
Y348622D01*
X428713D01*
Y347965D01*
X428582D01*
Y346521D01*
X428713D01*
Y345996D01*
X428844D01*
Y345602D01*
X428976D01*
Y345339D01*
X429107D01*
Y345077D01*
X429238D01*
Y344945D01*
X429369D01*
Y344814D01*
X429501D01*
Y344683D01*
X429763D01*
Y344551D01*
X430026D01*
Y344420D01*
X431339D01*
Y344551D01*
X431733D01*
Y344683D01*
X432127D01*
Y344814D01*
X432389D01*
Y344945D01*
X433177D01*
Y345077D01*
X433571D01*
Y345208D01*
X433965D01*
Y345339D01*
X434359D01*
Y345471D01*
X434753D01*
Y345602D01*
X435015D01*
Y345733D01*
X435409D01*
Y345865D01*
X435803D01*
Y345996D01*
X435934D01*
Y345865D01*
X436066D01*
Y346127D01*
X436853D01*
Y346258D01*
X437247D01*
Y346521D01*
X437379D01*
Y346390D01*
X437510D01*
Y346521D01*
X437904D01*
Y346652D01*
X438298D01*
Y346784D01*
X438823D01*
Y346915D01*
X439085D01*
Y347046D01*
X439479D01*
Y347178D01*
X439873D01*
Y347309D01*
X440136D01*
Y347440D01*
X440924D01*
Y347703D01*
X441055D01*
Y347571D01*
X441318D01*
Y347703D01*
X441711D01*
Y347834D01*
X441974D01*
Y347965D01*
X442368D01*
Y348096D01*
X442630D01*
Y348228D01*
X443024D01*
Y348359D01*
X443549D01*
Y348490D01*
X443943D01*
Y348622D01*
X444206D01*
Y348753D01*
X444994D01*
Y349016D01*
X445125D01*
Y348884D01*
X445256D01*
Y349016D01*
X445650D01*
Y349147D01*
X446044D01*
Y349278D01*
X446438D01*
Y349410D01*
X446701D01*
Y349541D01*
X447094D01*
Y349672D01*
X447357D01*
Y343764D01*
X446701D01*
Y343633D01*
X446307D01*
Y343501D01*
X446044D01*
Y343370D01*
X445519D01*
Y343239D01*
X445125D01*
Y343107D01*
X444731D01*
Y342976D01*
X444469D01*
Y342845D01*
X443812D01*
Y342582D01*
X443681D01*
Y342713D01*
X443418D01*
Y342582D01*
X443024D01*
Y342451D01*
X442630D01*
Y342319D01*
X442237D01*
Y342188D01*
X441974D01*
Y342057D01*
X441580D01*
Y341926D01*
X441186D01*
Y341794D01*
X440792D01*
Y341663D01*
X440398D01*
Y341532D01*
X440004D01*
Y341400D01*
X439873D01*
Y341532D01*
X439742D01*
Y341269D01*
X438954D01*
Y341138D01*
X438560D01*
Y341006D01*
X438298D01*
Y340875D01*
X437904D01*
Y340744D01*
X437510D01*
Y340613D01*
X437116D01*
Y340481D01*
X436853D01*
Y340350D01*
X436459D01*
Y340219D01*
X435934D01*
Y340088D01*
X435672D01*
Y339956D01*
X434884D01*
Y339694D01*
X434753D01*
Y339825D01*
X434621D01*
Y339694D01*
X434227D01*
Y339562D01*
X433834D01*
Y339431D01*
X433440D01*
Y339300D01*
X433177D01*
Y339168D01*
X432783D01*
Y339037D01*
X432389D01*
Y338906D01*
X432258D01*
Y339037D01*
X432127D01*
Y338906D01*
X431995D01*
Y338774D01*
X431208D01*
Y338643D01*
X430814D01*
Y338512D01*
X430289D01*
Y338381D01*
X429501D01*
Y338249D01*
X428188D01*
Y338381D01*
X427531D01*
Y338512D01*
X427137D01*
Y338643D01*
X426875D01*
Y338774D01*
X426350D01*
Y339037D01*
X426218D01*
Y338906D01*
X426087D01*
Y339037D01*
X425824D01*
Y339168D01*
X425693D01*
Y339431D01*
X425431D01*
Y339562D01*
X425299D01*
Y339694D01*
X425037D01*
Y339825D01*
X424905D01*
Y339956D01*
X424774D01*
Y340219D01*
X424643D01*
Y340350D01*
X424511D01*
Y340481D01*
X424380D01*
Y340875D01*
X424249D01*
Y341006D01*
X424118D01*
Y341269D01*
X423986D01*
Y341532D01*
X423855D01*
Y341794D01*
X423724D01*
Y342188D01*
X423592D01*
Y342582D01*
X423461D01*
Y342976D01*
X423330D01*
Y343501D01*
X423199D01*
Y347440D01*
X423330D01*
Y348096D01*
X423461D01*
Y348753D01*
X423592D01*
Y349016D01*
X423724D01*
Y349410D01*
X423855D01*
Y349803D01*
X423986D01*
Y350197D01*
X424118D01*
Y350591D01*
X424249D01*
Y350723D01*
X424380D01*
Y351248D01*
X424511D01*
Y351510D01*
X424643D01*
Y351773D01*
X424774D01*
Y351904D01*
X424905D01*
Y352167D01*
X425037D01*
Y352429D01*
X425168D01*
Y352561D01*
X425299D01*
Y352823D01*
X425431D01*
Y352955D01*
X425562D01*
Y353086D01*
X425693D01*
Y353480D01*
X425824D01*
Y353611D01*
X425956D01*
Y353742D01*
X426087D01*
Y354005D01*
X426350D01*
Y354268D01*
X426612D01*
Y354530D01*
X426875D01*
Y354793D01*
X427006D01*
Y354924D01*
X427269D01*
Y355187D01*
X427400D01*
Y355318D01*
X427663D01*
Y355580D01*
X427925D01*
Y355712D01*
X428188D01*
Y355974D01*
X428450D01*
Y356106D01*
X428582D01*
Y356237D01*
X428713D01*
Y356368D01*
X428976D01*
Y356500D01*
X429369D01*
Y356631D01*
X429501D01*
Y356762D01*
X429763D01*
Y356893D01*
X430026D01*
Y357025D01*
X430289D01*
Y357156D01*
X430551D01*
Y357287D01*
X430682D01*
Y357419D01*
X431076D01*
Y357550D01*
X431470D01*
Y357681D01*
X431864D01*
Y357812D01*
X432521D01*
Y358075D01*
X432652D01*
Y357944D01*
X432914D01*
Y358075D01*
X433440D01*
Y358206D01*
X433702D01*
Y358338D01*
X434096D01*
Y358469D01*
X434490D01*
Y358600D01*
X434753D01*
Y358732D01*
X435147D01*
Y358863D01*
X435540D01*
Y358994D01*
X435934D01*
Y359125D01*
X436591D01*
Y359388D01*
X436722D01*
Y359257D01*
X436985D01*
Y359388D01*
X437247D01*
Y359519D01*
X437641D01*
Y359651D01*
X438166D01*
Y359782D01*
X438560D01*
Y359913D01*
X438823D01*
Y360045D01*
X439217D01*
Y360176D01*
X439611D01*
Y360307D01*
X440267D01*
Y360438D01*
X440661D01*
Y360570D01*
X441055D01*
Y360701D01*
X441318D01*
Y360832D01*
X441711D01*
Y360964D01*
X442105D01*
Y361095D01*
X442499D01*
Y361226D01*
X442893D01*
Y361357D01*
X443287D01*
Y361489D01*
X443681D01*
Y361620D01*
X444337D01*
Y361883D01*
X445125D01*
Y362014D01*
X445388D01*
Y362145D01*
X445782D01*
Y362277D01*
X446175D01*
Y362408D01*
X446569D01*
Y362539D01*
X446832D01*
Y362670D01*
X447226D01*
Y362802D01*
X447357D01*
Y357025D01*
D02*
G37*
G36*
X440792Y338643D02*
X441580D01*
Y338512D01*
X441974D01*
Y338643D01*
X442105D01*
Y338381D01*
X442762D01*
Y338249D01*
X443024D01*
Y338118D01*
X443418D01*
Y337987D01*
X443549D01*
Y337855D01*
X443812D01*
Y337724D01*
X443943D01*
Y337593D01*
X444337D01*
Y337330D01*
X444469D01*
Y337199D01*
X444600D01*
Y337330D01*
X444731D01*
Y337068D01*
X444994D01*
Y336805D01*
X445125D01*
Y336674D01*
X445256D01*
Y336543D01*
X445388D01*
Y336411D01*
X445519D01*
Y336280D01*
X445650D01*
Y336149D01*
X445782D01*
Y336017D01*
X445913D01*
Y335755D01*
X446175D01*
Y335492D01*
X446307D01*
Y335098D01*
X446438D01*
Y334967D01*
X446569D01*
Y334704D01*
X446701D01*
Y334442D01*
X446832D01*
Y334179D01*
X446963D01*
Y333785D01*
X447094D01*
Y333523D01*
X447226D01*
Y332997D01*
X447357D01*
Y332604D01*
X447488D01*
Y331291D01*
X447751D01*
Y328402D01*
X447488D01*
Y326827D01*
X447357D01*
Y326301D01*
X447226D01*
Y325907D01*
X447094D01*
Y325514D01*
X446963D01*
Y324988D01*
X446832D01*
Y324726D01*
X446701D01*
Y324332D01*
X446569D01*
Y323938D01*
X446438D01*
Y323807D01*
X446307D01*
Y323282D01*
X446175D01*
Y323019D01*
X446044D01*
Y322756D01*
X445913D01*
Y322494D01*
X445782D01*
Y322231D01*
X445650D01*
Y321969D01*
X445519D01*
Y321706D01*
X445388D01*
Y321575D01*
X445256D01*
Y321312D01*
X445125D01*
Y321181D01*
X444994D01*
Y320787D01*
X444731D01*
Y320524D01*
X444600D01*
Y320262D01*
X444469D01*
Y320130D01*
X444337D01*
Y319999D01*
X444206D01*
Y319868D01*
X444075D01*
Y319605D01*
X443943D01*
Y319474D01*
X443812D01*
Y319211D01*
X443549D01*
Y318949D01*
X443418D01*
Y318817D01*
X443287D01*
Y318686D01*
X443156D01*
Y318555D01*
X443024D01*
Y318424D01*
X442893D01*
Y318292D01*
X442762D01*
Y318161D01*
X442630D01*
Y318030D01*
X442499D01*
Y317898D01*
X442368D01*
Y317767D01*
X442237D01*
Y317636D01*
X442105D01*
Y317505D01*
X441974D01*
Y317373D01*
X441843D01*
Y317242D01*
X441711D01*
Y317111D01*
X441580D01*
Y316979D01*
X441318D01*
Y316848D01*
X441186D01*
Y316717D01*
X441055D01*
Y316585D01*
X440792D01*
Y316454D01*
X440661D01*
Y316323D01*
X440530D01*
Y316192D01*
X440267D01*
Y316060D01*
X440136D01*
Y315929D01*
X439873D01*
Y315798D01*
X439742D01*
Y315666D01*
X439611D01*
Y315535D01*
X439217D01*
Y315272D01*
X439085D01*
Y315141D01*
X438954D01*
Y315272D01*
X438823D01*
Y315141D01*
X438560D01*
Y315010D01*
X438429D01*
Y314879D01*
X438166D01*
Y314747D01*
X437904D01*
Y314616D01*
X437641D01*
Y314485D01*
X437379D01*
Y314353D01*
X437116D01*
Y314222D01*
X436591D01*
Y313960D01*
X436459D01*
Y314091D01*
X436328D01*
Y313960D01*
X435934D01*
Y313828D01*
X435672D01*
Y313697D01*
X435278D01*
Y313566D01*
X434884D01*
Y313434D01*
X434490D01*
Y313303D01*
X434096D01*
Y313172D01*
X433440D01*
Y313040D01*
X432914D01*
Y312909D01*
X429369D01*
Y313040D01*
X428844D01*
Y313172D01*
X428450D01*
Y313303D01*
X428056D01*
Y313434D01*
X427794D01*
Y313566D01*
X427400D01*
Y313697D01*
X427137D01*
Y313828D01*
X427006D01*
Y313960D01*
X426875D01*
Y314091D01*
X426744D01*
Y313960D01*
X426612D01*
Y314091D01*
X426481D01*
Y314222D01*
X426218D01*
Y314353D01*
X426087D01*
Y314485D01*
X425956D01*
Y314616D01*
X425824D01*
Y314747D01*
X425693D01*
Y314879D01*
X425562D01*
Y315010D01*
X425431D01*
Y315141D01*
X425299D01*
Y315272D01*
X425168D01*
Y315535D01*
X424905D01*
Y315798D01*
X424774D01*
Y315929D01*
X424643D01*
Y316060D01*
X424511D01*
Y316323D01*
X424380D01*
Y316585D01*
X424249D01*
Y316848D01*
X424118D01*
Y317111D01*
X423986D01*
Y317505D01*
X423855D01*
Y317767D01*
X423724D01*
Y318030D01*
X423592D01*
Y318424D01*
X423461D01*
Y318817D01*
X423330D01*
Y319343D01*
X423199D01*
Y324201D01*
X423330D01*
Y324857D01*
X423461D01*
Y325514D01*
X423592D01*
Y325776D01*
X423724D01*
Y326301D01*
X423855D01*
Y326695D01*
X423986D01*
Y326958D01*
X424118D01*
Y327352D01*
X424249D01*
Y327614D01*
X424380D01*
Y328402D01*
X423592D01*
Y328533D01*
X423461D01*
Y334836D01*
X423592D01*
Y334704D01*
X423724D01*
Y334836D01*
X424118D01*
Y334967D01*
X424380D01*
Y334836D01*
X424905D01*
Y334704D01*
X425299D01*
Y334573D01*
X426087D01*
Y334442D01*
X426481D01*
Y334310D01*
X426875D01*
Y334179D01*
X427400D01*
Y334048D01*
X427794D01*
Y333916D01*
X428450D01*
Y334048D01*
X428582D01*
Y334179D01*
X428713D01*
Y334310D01*
X428844D01*
Y334442D01*
X428976D01*
Y334573D01*
X429107D01*
Y334704D01*
X429238D01*
Y334836D01*
X429369D01*
Y334704D01*
X429501D01*
Y334967D01*
X429632D01*
Y335098D01*
X429763D01*
Y335229D01*
X430026D01*
Y335361D01*
X430157D01*
Y335492D01*
X430289D01*
Y335623D01*
X430551D01*
Y335755D01*
X430945D01*
Y336149D01*
X431076D01*
Y336017D01*
X431208D01*
Y336149D01*
X431470D01*
Y336411D01*
X431864D01*
Y336543D01*
X432127D01*
Y336674D01*
X432258D01*
Y336805D01*
X432389D01*
Y336936D01*
X432652D01*
Y337068D01*
X433177D01*
Y337330D01*
X433308D01*
Y337199D01*
X433571D01*
Y337330D01*
X433702D01*
Y337461D01*
X433965D01*
Y337593D01*
X434359D01*
Y337724D01*
X434621D01*
Y337855D01*
X434884D01*
Y337987D01*
X435278D01*
Y338118D01*
X435672D01*
Y338249D01*
X436066D01*
Y338381D01*
X437116D01*
Y338643D01*
X437247D01*
Y338512D01*
X437641D01*
Y338643D01*
X438692D01*
Y338774D01*
X440792D01*
Y338643D01*
D02*
G37*
%LPC*%
G36*
X439348Y404685D02*
X438692D01*
Y404554D01*
X438429D01*
Y404423D01*
X438035D01*
Y404291D01*
X437641D01*
Y404160D01*
X437247D01*
Y404029D01*
X436853D01*
Y403898D01*
X436591D01*
Y403766D01*
X436197D01*
Y403635D01*
X436066D01*
Y403766D01*
X435934D01*
Y403504D01*
X435015D01*
Y403372D01*
X434621D01*
Y403241D01*
X434359D01*
Y403110D01*
X433965D01*
Y402979D01*
X433571D01*
Y402847D01*
X433177D01*
Y402716D01*
X432914D01*
Y402585D01*
X432521D01*
Y402453D01*
X432127D01*
Y402322D01*
X431864D01*
Y402191D01*
X431470D01*
Y394444D01*
X431995D01*
Y394576D01*
X432258D01*
Y394707D01*
X432652D01*
Y394838D01*
X433046D01*
Y394969D01*
X433440D01*
Y395101D01*
X433834D01*
Y395232D01*
X434096D01*
Y395363D01*
X434227D01*
Y395232D01*
X434490D01*
Y395495D01*
X435147D01*
Y395626D01*
X435540D01*
Y395757D01*
X435934D01*
Y395888D01*
X436328D01*
Y396020D01*
X436722D01*
Y396151D01*
X437116D01*
Y396282D01*
X437510D01*
Y396414D01*
X437773D01*
Y396545D01*
X438166D01*
Y396676D01*
X438560D01*
Y396808D01*
X439217D01*
Y397070D01*
X439348D01*
Y404685D01*
D02*
G37*
G36*
X419128Y411250D02*
X418603D01*
Y411119D01*
X418209D01*
Y410988D01*
X417815D01*
Y410856D01*
X417421D01*
Y410725D01*
X417159D01*
Y410594D01*
X417028D01*
Y408493D01*
X416765D01*
Y408362D01*
X416371D01*
Y408230D01*
X416109D01*
Y408099D01*
X415715D01*
Y407968D01*
X415190D01*
Y407836D01*
X414927D01*
Y407705D01*
X414533D01*
Y407574D01*
X413745D01*
Y407311D01*
X413614D01*
Y407443D01*
X413483D01*
Y407311D01*
X413089D01*
Y407180D01*
X412695D01*
Y407049D01*
X412432D01*
Y406917D01*
X412038D01*
Y406786D01*
X411644D01*
Y406655D01*
X411251D01*
Y406524D01*
X410857D01*
Y406392D01*
X410463D01*
Y406261D01*
X410200D01*
Y404160D01*
X410725D01*
Y404291D01*
X411513D01*
Y404554D01*
X411644D01*
Y404423D01*
X411907D01*
Y404554D01*
X412301D01*
Y404685D01*
X412564D01*
Y404817D01*
X412957D01*
Y404948D01*
X413351D01*
Y405079D01*
X413745D01*
Y405210D01*
X414008D01*
Y405342D01*
X414402D01*
Y405473D01*
X414796D01*
Y405604D01*
X415583D01*
Y405867D01*
X416371D01*
Y405998D01*
X416634D01*
Y406130D01*
X417028D01*
Y404160D01*
X417421D01*
Y404291D01*
X418209D01*
Y404554D01*
X418341D01*
Y404423D01*
X418603D01*
Y404554D01*
X418997D01*
Y404817D01*
X419128D01*
Y411250D01*
D02*
G37*
G36*
X417421Y401797D02*
X416502D01*
Y401665D01*
X416109D01*
Y401534D01*
X415715D01*
Y401403D01*
X415321D01*
Y401272D01*
X415190D01*
Y401140D01*
X414927D01*
Y401009D01*
X414664D01*
Y400746D01*
X414402D01*
Y400615D01*
X414139D01*
Y400353D01*
X413876D01*
Y400090D01*
X413745D01*
Y399959D01*
X413614D01*
Y399696D01*
X413483D01*
Y399565D01*
X413351D01*
Y399433D01*
X413220D01*
Y399565D01*
X413089D01*
Y399433D01*
X412957D01*
Y399696D01*
X412170D01*
Y399827D01*
X411644D01*
Y399959D01*
X411251D01*
Y400090D01*
X410857D01*
Y400221D01*
X410331D01*
Y400090D01*
X410200D01*
Y397595D01*
X410594D01*
Y397464D01*
X410988D01*
Y397333D01*
X411513D01*
Y397201D01*
X412038D01*
Y397070D01*
X412432D01*
Y396939D01*
X412826D01*
Y395757D01*
X412695D01*
Y395626D01*
X412038D01*
Y395495D01*
X411644D01*
Y395363D01*
X411251D01*
Y395232D01*
X410857D01*
Y395101D01*
X410594D01*
Y394969D01*
X410200D01*
Y392737D01*
X410857D01*
Y393000D01*
X410988D01*
Y392869D01*
X411119D01*
Y393000D01*
X411513D01*
Y393131D01*
X411907D01*
Y393263D01*
X412301D01*
Y393394D01*
X412564D01*
Y393525D01*
X413089D01*
Y393656D01*
X413483D01*
Y393788D01*
X413745D01*
Y393919D01*
X414533D01*
Y394182D01*
X414664D01*
Y394050D01*
X414927D01*
Y394313D01*
X415583D01*
Y394444D01*
X415977D01*
Y394576D01*
X416371D01*
Y394707D01*
X416634D01*
Y394838D01*
X417028D01*
Y394969D01*
X417421D01*
Y395101D01*
X417815D01*
Y395232D01*
X418209D01*
Y395363D01*
X418341D01*
Y395232D01*
X418603D01*
Y395495D01*
X419128D01*
Y400090D01*
X418997D01*
Y400484D01*
X418866D01*
Y400746D01*
X418735D01*
Y400878D01*
X418603D01*
Y401140D01*
X418472D01*
Y401272D01*
X418209D01*
Y401403D01*
X418078D01*
Y401534D01*
X417815D01*
Y401665D01*
X417421D01*
Y401797D01*
D02*
G37*
G36*
X416502Y391556D02*
X415846D01*
Y391424D01*
X415190D01*
Y391293D01*
X414796D01*
Y391162D01*
X414402D01*
Y391031D01*
X414008D01*
Y390899D01*
X413745D01*
Y390768D01*
X413614D01*
Y390637D01*
X413220D01*
Y390505D01*
X412957D01*
Y390374D01*
X412826D01*
Y390243D01*
X412564D01*
Y389980D01*
X412432D01*
Y389849D01*
X412170D01*
Y389718D01*
X412038D01*
Y389455D01*
X411907D01*
Y389324D01*
X411776D01*
Y389192D01*
X411644D01*
Y389061D01*
X411382D01*
Y388798D01*
X411251D01*
Y388667D01*
X411119D01*
Y388405D01*
X410988D01*
Y388273D01*
X410857D01*
Y387879D01*
X410725D01*
Y387748D01*
X410594D01*
Y387354D01*
X410463D01*
Y387092D01*
X410331D01*
Y386566D01*
X410200D01*
Y386173D01*
X410069D01*
Y384203D01*
X410200D01*
Y383809D01*
X410331D01*
Y383547D01*
X410463D01*
Y383284D01*
X410594D01*
Y383021D01*
X410725D01*
Y382890D01*
X410857D01*
Y382759D01*
X410988D01*
Y382628D01*
X411119D01*
Y382496D01*
X411251D01*
Y382365D01*
X411382D01*
Y382234D01*
X411644D01*
Y382102D01*
X412038D01*
Y381971D01*
X412432D01*
Y381840D01*
X413745D01*
Y381971D01*
X414270D01*
Y382102D01*
X414664D01*
Y382234D01*
X415058D01*
Y382365D01*
X415452D01*
Y382628D01*
X415977D01*
Y382759D01*
X416240D01*
Y383021D01*
X416502D01*
Y383153D01*
X416634D01*
Y383284D01*
X416765D01*
Y383415D01*
X417028D01*
Y383547D01*
X417159D01*
Y383678D01*
X417290D01*
Y383809D01*
X417421D01*
Y383941D01*
X417553D01*
Y384072D01*
X417684D01*
Y384203D01*
X417815D01*
Y384466D01*
X417947D01*
Y384597D01*
X418078D01*
Y384860D01*
X418209D01*
Y384991D01*
X418341D01*
Y385122D01*
X418472D01*
Y385385D01*
X418603D01*
Y385647D01*
X418735D01*
Y385910D01*
X418866D01*
Y386304D01*
X418997D01*
Y386698D01*
X419128D01*
Y389455D01*
X418997D01*
Y389718D01*
X418866D01*
Y389980D01*
X418735D01*
Y390374D01*
X418472D01*
Y390637D01*
X418209D01*
Y390768D01*
X418078D01*
Y390899D01*
X417947D01*
Y391031D01*
X417815D01*
Y391162D01*
X417553D01*
Y391293D01*
X417159D01*
Y391424D01*
X416502D01*
Y391556D01*
D02*
G37*
G36*
X417815Y380264D02*
X415846D01*
Y380002D01*
X415715D01*
Y380133D01*
X415452D01*
Y380002D01*
X415190D01*
Y379870D01*
X414927D01*
Y379739D01*
X414796D01*
Y379608D01*
X414664D01*
Y379476D01*
X414402D01*
Y379345D01*
X414270D01*
Y379214D01*
X414139D01*
Y379082D01*
X413876D01*
Y378951D01*
X413745D01*
Y378820D01*
X413614D01*
Y378557D01*
X413483D01*
Y378426D01*
X413351D01*
Y378295D01*
X413220D01*
Y378032D01*
X413089D01*
Y377901D01*
X412957D01*
Y377638D01*
X412826D01*
Y377376D01*
X412695D01*
Y376982D01*
X412564D01*
Y376457D01*
X412432D01*
Y374224D01*
X412038D01*
Y374093D01*
X411776D01*
Y373962D01*
X411119D01*
Y373831D01*
X410988D01*
Y373699D01*
X410857D01*
Y373831D01*
X410725D01*
Y373699D01*
X410331D01*
Y373437D01*
X410200D01*
Y371336D01*
X410725D01*
Y371467D01*
X411119D01*
Y371599D01*
X411382D01*
Y371730D01*
X411776D01*
Y371861D01*
X412170D01*
Y371992D01*
X412826D01*
Y372255D01*
X413614D01*
Y372386D01*
X414008D01*
Y372518D01*
X414270D01*
Y372649D01*
X414796D01*
Y372780D01*
X415190D01*
Y372912D01*
X415452D01*
Y373043D01*
X415846D01*
Y373174D01*
X416502D01*
Y373437D01*
X416634D01*
Y373306D01*
X416896D01*
Y373568D01*
X417684D01*
Y373699D01*
X417947D01*
Y373831D01*
X418341D01*
Y373962D01*
X418735D01*
Y374093D01*
X419128D01*
Y378689D01*
X418997D01*
Y379082D01*
X418866D01*
Y379345D01*
X418735D01*
Y379476D01*
X418603D01*
Y379608D01*
X418472D01*
Y379870D01*
X418341D01*
Y380002D01*
X418078D01*
Y380133D01*
X417815D01*
Y380264D01*
D02*
G37*
G36*
X417553Y370286D02*
X416896D01*
Y370154D01*
X416371D01*
Y370023D01*
X416240D01*
Y368054D01*
X416765D01*
Y367922D01*
X416896D01*
Y367791D01*
X417028D01*
Y367660D01*
X417159D01*
Y367134D01*
X417290D01*
Y367003D01*
X417159D01*
Y366347D01*
X417028D01*
Y366084D01*
X416896D01*
Y365822D01*
X416765D01*
Y365690D01*
X416634D01*
Y365559D01*
X415715D01*
Y365822D01*
X415583D01*
Y366347D01*
X415452D01*
Y367266D01*
X415321D01*
Y368316D01*
X415190D01*
Y368447D01*
X415058D01*
Y368710D01*
X414927D01*
Y368973D01*
X414796D01*
Y369104D01*
X414664D01*
Y369235D01*
X414402D01*
Y369367D01*
X413089D01*
Y369235D01*
X412564D01*
Y369104D01*
X412432D01*
Y368973D01*
X412038D01*
Y368710D01*
X411776D01*
Y368579D01*
X411644D01*
Y368447D01*
X411513D01*
Y368316D01*
X411382D01*
Y368185D01*
X411119D01*
Y367922D01*
X410988D01*
Y367791D01*
X410857D01*
Y367397D01*
X410725D01*
Y367134D01*
X410594D01*
Y367003D01*
X410463D01*
Y366741D01*
X410331D01*
Y366347D01*
X410200D01*
Y365822D01*
X410069D01*
Y363721D01*
X410200D01*
Y363458D01*
X410331D01*
Y363196D01*
X410463D01*
Y362933D01*
X410594D01*
Y362670D01*
X410725D01*
Y362539D01*
X410857D01*
Y362277D01*
X411119D01*
Y362145D01*
X411251D01*
Y362014D01*
X411776D01*
Y361883D01*
X412432D01*
Y362014D01*
X412826D01*
Y362145D01*
X412957D01*
Y364377D01*
X412564D01*
Y364509D01*
X412301D01*
Y364771D01*
X412170D01*
Y366347D01*
X412301D01*
Y366478D01*
X412432D01*
Y366741D01*
X412564D01*
Y366872D01*
X412695D01*
Y367003D01*
X413351D01*
Y366741D01*
X413483D01*
Y366609D01*
X413614D01*
Y365034D01*
X413745D01*
Y364509D01*
X413876D01*
Y364246D01*
X414008D01*
Y363983D01*
X414139D01*
Y363721D01*
X414270D01*
Y363590D01*
X414402D01*
Y363458D01*
X414533D01*
Y363327D01*
X414796D01*
Y363196D01*
X416240D01*
Y363327D01*
X416502D01*
Y363458D01*
X416765D01*
Y363590D01*
X417028D01*
Y363721D01*
X417290D01*
Y363852D01*
X417421D01*
Y363983D01*
X417684D01*
Y364115D01*
X417815D01*
Y364377D01*
X418078D01*
Y364640D01*
X418209D01*
Y364771D01*
X418341D01*
Y364902D01*
X418472D01*
Y365165D01*
X418603D01*
Y365296D01*
X418735D01*
Y365690D01*
X418866D01*
Y365953D01*
X418997D01*
Y366215D01*
X419128D01*
Y368973D01*
X418997D01*
Y369104D01*
X418866D01*
Y369498D01*
X418735D01*
Y369629D01*
X418472D01*
Y369892D01*
X418209D01*
Y370023D01*
X417947D01*
Y370154D01*
X417553D01*
Y370286D01*
D02*
G37*
G36*
Y360832D02*
X416371D01*
Y360701D01*
X415583D01*
Y360438D01*
X415452D01*
Y360570D01*
X415321D01*
Y360438D01*
X415058D01*
Y360307D01*
X414927D01*
Y360176D01*
X414796D01*
Y360045D01*
X414664D01*
Y359913D01*
X414402D01*
Y359782D01*
X414270D01*
Y359651D01*
X414139D01*
Y359519D01*
X413876D01*
Y359257D01*
X413745D01*
Y359125D01*
X413614D01*
Y358732D01*
X413351D01*
Y358600D01*
X412957D01*
Y358732D01*
X412564D01*
Y358863D01*
X412170D01*
Y358994D01*
X411776D01*
Y359125D01*
X411382D01*
Y359257D01*
X410988D01*
Y359388D01*
X410200D01*
Y356631D01*
X410725D01*
Y356500D01*
X411644D01*
Y356237D01*
X411907D01*
Y356368D01*
X412038D01*
Y356237D01*
X412564D01*
Y356106D01*
X412826D01*
Y354924D01*
X412564D01*
Y354793D01*
X412170D01*
Y354661D01*
X411907D01*
Y354530D01*
X411513D01*
Y354399D01*
X410857D01*
Y354136D01*
X410200D01*
Y351904D01*
X410725D01*
Y352035D01*
X411119D01*
Y352167D01*
X411382D01*
Y352298D01*
X411907D01*
Y352429D01*
X412564D01*
Y352561D01*
X412695D01*
Y352692D01*
X412826D01*
Y352561D01*
X412957D01*
Y352823D01*
X413745D01*
Y352955D01*
X414008D01*
Y353086D01*
X414402D01*
Y353217D01*
X414796D01*
Y353348D01*
X415190D01*
Y353480D01*
X415452D01*
Y353611D01*
X415846D01*
Y353742D01*
X416634D01*
Y354005D01*
X417421D01*
Y354136D01*
X417815D01*
Y354268D01*
X418078D01*
Y354399D01*
X418472D01*
Y354530D01*
X418866D01*
Y354661D01*
X419128D01*
Y359257D01*
X418997D01*
Y359651D01*
X418866D01*
Y359913D01*
X418735D01*
Y360176D01*
X418472D01*
Y360438D01*
X418341D01*
Y360570D01*
X418209D01*
Y360438D01*
X418078D01*
Y360701D01*
X417553D01*
Y360832D01*
D02*
G37*
G36*
X416765Y350591D02*
X415715D01*
Y350460D01*
X415058D01*
Y350329D01*
X414270D01*
Y350066D01*
X414139D01*
Y350197D01*
X414008D01*
Y350066D01*
X413745D01*
Y349935D01*
X413614D01*
Y349803D01*
X413351D01*
Y349672D01*
X413089D01*
Y349541D01*
X412957D01*
Y349410D01*
X412695D01*
Y349278D01*
X412564D01*
Y349147D01*
X412432D01*
Y349016D01*
X412038D01*
Y348753D01*
X411907D01*
Y348622D01*
X411776D01*
Y348490D01*
X411644D01*
Y348228D01*
X411513D01*
Y348096D01*
X411382D01*
Y347965D01*
X411251D01*
Y347834D01*
X411119D01*
Y347571D01*
X410988D01*
Y347309D01*
X410857D01*
Y347046D01*
X410725D01*
Y346784D01*
X410594D01*
Y346521D01*
X410463D01*
Y346258D01*
X410331D01*
Y345865D01*
X410200D01*
Y345208D01*
X410069D01*
Y343370D01*
X410200D01*
Y342976D01*
X410331D01*
Y342713D01*
X410463D01*
Y342451D01*
X410594D01*
Y342319D01*
X410725D01*
Y342057D01*
X410857D01*
Y341794D01*
X411119D01*
Y341532D01*
X411251D01*
Y341400D01*
X411513D01*
Y341269D01*
X411776D01*
Y341138D01*
X412695D01*
Y340875D01*
X413351D01*
Y341138D01*
X414533D01*
Y341269D01*
X414927D01*
Y341400D01*
X415321D01*
Y341532D01*
X415452D01*
Y341663D01*
X415715D01*
Y341794D01*
X415977D01*
Y341926D01*
X416109D01*
Y342057D01*
X416502D01*
Y342319D01*
X416634D01*
Y342451D01*
X416896D01*
Y342713D01*
X417290D01*
Y342976D01*
X417553D01*
Y343239D01*
X417684D01*
Y343370D01*
X417815D01*
Y343633D01*
X417947D01*
Y343764D01*
X418078D01*
Y343895D01*
X418209D01*
Y344158D01*
X418341D01*
Y344289D01*
X418472D01*
Y344551D01*
X418603D01*
Y344814D01*
X418735D01*
Y345077D01*
X418866D01*
Y345471D01*
X418997D01*
Y345733D01*
X419128D01*
Y348753D01*
X418997D01*
Y348884D01*
X418866D01*
Y349147D01*
X418735D01*
Y349410D01*
X418603D01*
Y349541D01*
X418472D01*
Y349672D01*
X418341D01*
Y349803D01*
X418209D01*
Y349935D01*
X418078D01*
Y350066D01*
X417947D01*
Y350197D01*
X417815D01*
Y350329D01*
X417290D01*
Y350460D01*
X416765D01*
Y350591D01*
D02*
G37*
G36*
X419128Y340613D02*
X418735D01*
Y340481D01*
X418472D01*
Y340350D01*
X418078D01*
Y340219D01*
X417684D01*
Y340088D01*
X417421D01*
Y339956D01*
X417028D01*
Y337724D01*
X416634D01*
Y337593D01*
X416240D01*
Y337461D01*
X415583D01*
Y337199D01*
X415452D01*
Y337330D01*
X415190D01*
Y337199D01*
X414796D01*
Y337068D01*
X414402D01*
Y336936D01*
X414008D01*
Y336805D01*
X413614D01*
Y336674D01*
X413351D01*
Y336543D01*
X412957D01*
Y336411D01*
X412564D01*
Y336280D01*
X411907D01*
Y336149D01*
X411513D01*
Y335886D01*
X411382D01*
Y336017D01*
X411119D01*
Y335886D01*
X410857D01*
Y335755D01*
X410463D01*
Y335623D01*
X410200D01*
Y333391D01*
X410725D01*
Y333523D01*
X411119D01*
Y333654D01*
X411382D01*
Y333785D01*
X411776D01*
Y333916D01*
X412170D01*
Y334048D01*
X412564D01*
Y334179D01*
X412826D01*
Y334310D01*
X413220D01*
Y334442D01*
X413614D01*
Y334573D01*
X414270D01*
Y334836D01*
X414402D01*
Y334704D01*
X414664D01*
Y334836D01*
X415190D01*
Y334967D01*
X415452D01*
Y335098D01*
X415846D01*
Y335229D01*
X416240D01*
Y335361D01*
X416502D01*
Y335492D01*
X416896D01*
Y335623D01*
X417028D01*
Y333391D01*
X417290D01*
Y333523D01*
X417684D01*
Y333654D01*
X418078D01*
Y333785D01*
X418472D01*
Y333916D01*
X418866D01*
Y334048D01*
X419128D01*
Y340613D01*
D02*
G37*
G36*
X416896Y330897D02*
X415452D01*
Y330765D01*
X414927D01*
Y330634D01*
X414533D01*
Y330503D01*
X414270D01*
Y330371D01*
X413876D01*
Y330240D01*
X413614D01*
Y330109D01*
X413351D01*
Y329978D01*
X413220D01*
Y329846D01*
X413089D01*
Y329715D01*
X412826D01*
Y329584D01*
X412695D01*
Y329452D01*
X412432D01*
Y329321D01*
X412301D01*
Y329190D01*
X412038D01*
Y328927D01*
X411907D01*
Y328796D01*
X411776D01*
Y328665D01*
X411644D01*
Y328533D01*
X411513D01*
Y328271D01*
X411382D01*
Y328139D01*
X411119D01*
Y327746D01*
X410857D01*
Y327220D01*
X410725D01*
Y327089D01*
X410594D01*
Y326827D01*
X410463D01*
Y326433D01*
X410331D01*
Y326039D01*
X410200D01*
Y325514D01*
X410069D01*
Y323675D01*
X410200D01*
Y323150D01*
X410331D01*
Y322888D01*
X410463D01*
Y322625D01*
X410594D01*
Y322494D01*
X410725D01*
Y322231D01*
X410857D01*
Y321969D01*
X411119D01*
Y321706D01*
X411513D01*
Y321575D01*
X411907D01*
Y321312D01*
X414402D01*
Y321575D01*
X414533D01*
Y321443D01*
X414664D01*
Y321575D01*
X414796D01*
Y321706D01*
X415321D01*
Y321837D01*
X415583D01*
Y321969D01*
X415846D01*
Y322100D01*
X416109D01*
Y322231D01*
X416371D01*
Y322362D01*
X416502D01*
Y322625D01*
X416896D01*
Y322888D01*
X417159D01*
Y323150D01*
X417421D01*
Y323282D01*
X417553D01*
Y323544D01*
X417815D01*
Y323807D01*
X417947D01*
Y324069D01*
X418078D01*
Y324201D01*
X418209D01*
Y324463D01*
X418341D01*
Y324594D01*
X418472D01*
Y324726D01*
X418603D01*
Y324988D01*
X418735D01*
Y325382D01*
X418866D01*
Y325645D01*
X418997D01*
Y326039D01*
X419128D01*
Y328927D01*
X418997D01*
Y329059D01*
X418866D01*
Y329321D01*
X418735D01*
Y329584D01*
X418603D01*
Y329715D01*
X418472D01*
Y329978D01*
X418341D01*
Y330109D01*
X418209D01*
Y330240D01*
X417947D01*
Y330371D01*
X417815D01*
Y330503D01*
X417684D01*
Y330634D01*
X417421D01*
Y330765D01*
X416896D01*
Y330897D01*
D02*
G37*
G36*
X419128Y319999D02*
X418735D01*
Y319868D01*
X418341D01*
Y319737D01*
X417947D01*
Y319605D01*
X417553D01*
Y319474D01*
X417290D01*
Y319343D01*
X416896D01*
Y319211D01*
X416109D01*
Y319080D01*
X415846D01*
Y318949D01*
X415452D01*
Y318817D01*
X415058D01*
Y318686D01*
X414796D01*
Y318555D01*
X414270D01*
Y318424D01*
X413876D01*
Y318292D01*
X413220D01*
Y318030D01*
X412432D01*
Y317898D01*
X412038D01*
Y317767D01*
X411776D01*
Y317636D01*
X411382D01*
Y317505D01*
X410988D01*
Y317373D01*
X410725D01*
Y317242D01*
X410331D01*
Y317111D01*
X410200D01*
Y314879D01*
X410463D01*
Y315010D01*
X411251D01*
Y315141D01*
X411513D01*
Y315404D01*
X411644D01*
Y315272D01*
X411907D01*
Y315404D01*
X412301D01*
Y315535D01*
X412564D01*
Y315666D01*
X412957D01*
Y315798D01*
X413351D01*
Y315929D01*
X413745D01*
Y316060D01*
X414008D01*
Y315929D01*
X413876D01*
Y315666D01*
X413745D01*
Y315535D01*
X413614D01*
Y315272D01*
X413483D01*
Y315141D01*
X413351D01*
Y315010D01*
X413220D01*
Y314879D01*
X413089D01*
Y314616D01*
X412957D01*
Y314485D01*
X412826D01*
Y314353D01*
X412695D01*
Y314222D01*
X412564D01*
Y313960D01*
X412432D01*
Y313828D01*
X412301D01*
Y313697D01*
X412170D01*
Y313303D01*
X412432D01*
Y313172D01*
X412564D01*
Y313040D01*
X412826D01*
Y312909D01*
X412957D01*
Y312778D01*
X413220D01*
Y312647D01*
X413351D01*
Y312515D01*
X413745D01*
Y312384D01*
X413876D01*
Y312253D01*
X414139D01*
Y312121D01*
X413876D01*
Y311990D01*
X413614D01*
Y311859D01*
X413220D01*
Y311727D01*
X412432D01*
Y311596D01*
X412038D01*
Y311465D01*
X411644D01*
Y311333D01*
X411251D01*
Y311202D01*
X410857D01*
Y311071D01*
X410594D01*
Y310940D01*
X410200D01*
Y308576D01*
X410725D01*
Y308708D01*
X411119D01*
Y308839D01*
X411382D01*
Y308970D01*
X411776D01*
Y309102D01*
X412170D01*
Y309233D01*
X412564D01*
Y309364D01*
X412826D01*
Y309495D01*
X413220D01*
Y309627D01*
X413745D01*
Y309758D01*
X414008D01*
Y309889D01*
X414139D01*
Y309758D01*
X414402D01*
Y310021D01*
X415190D01*
Y310152D01*
X415452D01*
Y310283D01*
X415846D01*
Y310415D01*
X416240D01*
Y310546D01*
X416502D01*
Y310677D01*
X416896D01*
Y310808D01*
X417290D01*
Y310940D01*
X417947D01*
Y311202D01*
X418209D01*
Y311071D01*
X418341D01*
Y311202D01*
X418472D01*
Y311333D01*
X419128D01*
Y312384D01*
X418866D01*
Y312515D01*
X418472D01*
Y312647D01*
X418209D01*
Y312909D01*
X417815D01*
Y313040D01*
X417684D01*
Y313172D01*
X417421D01*
Y313303D01*
X417159D01*
Y313434D01*
X417028D01*
Y313566D01*
X416765D01*
Y313697D01*
X416502D01*
Y313828D01*
X416240D01*
Y314091D01*
X416109D01*
Y313960D01*
X415977D01*
Y314222D01*
X415452D01*
Y314353D01*
X415321D01*
Y314616D01*
X415452D01*
Y314879D01*
X415583D01*
Y315010D01*
X415715D01*
Y315141D01*
X415846D01*
Y315272D01*
X415977D01*
Y315535D01*
X416109D01*
Y315666D01*
X416240D01*
Y315798D01*
X416502D01*
Y316192D01*
X416634D01*
Y316323D01*
X416896D01*
Y316585D01*
X417028D01*
Y316717D01*
X417159D01*
Y316848D01*
X417290D01*
Y316979D01*
X417421D01*
Y317242D01*
X417553D01*
Y317505D01*
X417815D01*
Y317636D01*
X417947D01*
Y317898D01*
X418078D01*
Y318030D01*
X418209D01*
Y318161D01*
X418341D01*
Y318292D01*
X418472D01*
Y318555D01*
X418603D01*
Y318686D01*
X418735D01*
Y318817D01*
X418866D01*
Y318949D01*
X418997D01*
Y319080D01*
X419128D01*
Y319999D01*
D02*
G37*
%LPD*%
G36*
X416896Y399171D02*
X417028D01*
Y397201D01*
X416765D01*
Y396939D01*
X416634D01*
Y397070D01*
X416371D01*
Y396939D01*
X416109D01*
Y396808D01*
X415715D01*
Y396676D01*
X415190D01*
Y396545D01*
X414927D01*
Y398383D01*
X415058D01*
Y398777D01*
X415321D01*
Y399040D01*
X415452D01*
Y399171D01*
X415583D01*
Y399302D01*
X416896D01*
Y399171D01*
D02*
G37*
G36*
X416240Y388798D02*
X416502D01*
Y388667D01*
X416634D01*
Y388405D01*
X416765D01*
Y388273D01*
X416896D01*
Y387879D01*
X417028D01*
Y386829D01*
X416896D01*
Y386566D01*
X416765D01*
Y386304D01*
X416634D01*
Y386041D01*
X416502D01*
Y385779D01*
X416371D01*
Y385647D01*
X416240D01*
Y385516D01*
X416109D01*
Y385254D01*
X415846D01*
Y385122D01*
X415715D01*
Y384991D01*
X415583D01*
Y384860D01*
X415321D01*
Y384728D01*
X415058D01*
Y384597D01*
X414927D01*
Y384466D01*
X414533D01*
Y384334D01*
X413089D01*
Y384466D01*
X412826D01*
Y384728D01*
X412564D01*
Y384991D01*
X412432D01*
Y385385D01*
X412301D01*
Y386566D01*
X412432D01*
Y386829D01*
X412564D01*
Y387354D01*
X412826D01*
Y387617D01*
X412957D01*
Y387879D01*
X413220D01*
Y388142D01*
X413483D01*
Y388273D01*
X413614D01*
Y388405D01*
X413745D01*
Y388536D01*
X414008D01*
Y388667D01*
X414139D01*
Y388798D01*
X414533D01*
Y388930D01*
X416240D01*
Y388798D01*
D02*
G37*
G36*
X416502Y377901D02*
X416765D01*
Y377769D01*
X416896D01*
Y377638D01*
X417028D01*
Y375800D01*
X416896D01*
Y375669D01*
X416502D01*
Y375537D01*
X416109D01*
Y375406D01*
X415846D01*
Y375275D01*
X415452D01*
Y375144D01*
X414796D01*
Y374881D01*
X414533D01*
Y376851D01*
X414664D01*
Y377113D01*
X414796D01*
Y377244D01*
X414927D01*
Y377376D01*
X415058D01*
Y377507D01*
X415321D01*
Y377638D01*
X415452D01*
Y377769D01*
X415715D01*
Y377901D01*
X416240D01*
Y378032D01*
X416502D01*
Y377901D01*
D02*
G37*
G36*
Y358469D02*
X416765D01*
Y358338D01*
X416896D01*
Y358206D01*
X417028D01*
Y356237D01*
X416634D01*
Y356106D01*
X416240D01*
Y355974D01*
X415846D01*
Y355843D01*
X415583D01*
Y355712D01*
X414927D01*
Y357681D01*
X415058D01*
Y357944D01*
X415190D01*
Y358075D01*
X415321D01*
Y358206D01*
X415583D01*
Y358338D01*
X415846D01*
Y358469D01*
X416371D01*
Y358600D01*
X416502D01*
Y358469D01*
D02*
G37*
G36*
X416109Y347965D02*
X416371D01*
Y347834D01*
X416502D01*
Y347703D01*
X416765D01*
Y347440D01*
X416896D01*
Y347046D01*
X417028D01*
Y345996D01*
X416896D01*
Y345602D01*
X416765D01*
Y345339D01*
X416634D01*
Y345077D01*
X416502D01*
Y344945D01*
X416371D01*
Y344683D01*
X416109D01*
Y344420D01*
X415977D01*
Y344289D01*
X415846D01*
Y344158D01*
X415715D01*
Y344026D01*
X415452D01*
Y343895D01*
X415321D01*
Y344026D01*
X415190D01*
Y343764D01*
X414796D01*
Y343633D01*
X414402D01*
Y343501D01*
X413220D01*
Y343633D01*
X412957D01*
Y343764D01*
X412564D01*
Y344158D01*
X412432D01*
Y344551D01*
X412301D01*
Y345602D01*
X412432D01*
Y345996D01*
X412564D01*
Y346390D01*
X412695D01*
Y346521D01*
X412826D01*
Y346784D01*
X412957D01*
Y346915D01*
X413089D01*
Y347178D01*
X413351D01*
Y347309D01*
X413483D01*
Y347440D01*
X413614D01*
Y347571D01*
X413745D01*
Y347703D01*
X414139D01*
Y347834D01*
X414402D01*
Y347965D01*
X414796D01*
Y348096D01*
X416109D01*
Y347965D01*
D02*
G37*
G36*
X415846Y328271D02*
X416371D01*
Y328139D01*
X416502D01*
Y328008D01*
X416634D01*
Y327877D01*
X416765D01*
Y327614D01*
X416896D01*
Y327220D01*
X417028D01*
Y326301D01*
X416896D01*
Y325907D01*
X416765D01*
Y325514D01*
X416634D01*
Y325251D01*
X416371D01*
Y324988D01*
X416240D01*
Y324857D01*
X416109D01*
Y324594D01*
X415846D01*
Y324332D01*
X415715D01*
Y324463D01*
X415583D01*
Y324332D01*
X415452D01*
Y324201D01*
X415190D01*
Y324069D01*
X414927D01*
Y323938D01*
X414664D01*
Y323807D01*
X414139D01*
Y323675D01*
X413351D01*
Y323807D01*
X412957D01*
Y323938D01*
X412826D01*
Y324069D01*
X412695D01*
Y324201D01*
X412564D01*
Y324332D01*
X412432D01*
Y324726D01*
X412301D01*
Y325776D01*
X412432D01*
Y326170D01*
X412564D01*
Y326695D01*
X412695D01*
Y326827D01*
X412826D01*
Y326958D01*
X412957D01*
Y327220D01*
X413089D01*
Y327352D01*
X413220D01*
Y327483D01*
X413351D01*
Y327614D01*
X413614D01*
Y327746D01*
X413745D01*
Y327877D01*
X414008D01*
Y328008D01*
X414270D01*
Y328271D01*
X414402D01*
Y328139D01*
X414664D01*
Y328271D01*
X415190D01*
Y328402D01*
X415846D01*
Y328271D01*
D02*
G37*
%LPC*%
G36*
X438035Y332341D02*
X437510D01*
Y332210D01*
X436459D01*
Y332078D01*
X435934D01*
Y331947D01*
X435540D01*
Y331816D01*
X435147D01*
Y331684D01*
X434753D01*
Y331553D01*
X434490D01*
Y331422D01*
X434359D01*
Y326827D01*
X434227D01*
Y326695D01*
X433834D01*
Y326564D01*
X432914D01*
Y326695D01*
X432258D01*
Y326827D01*
X431733D01*
Y326958D01*
X431076D01*
Y327089D01*
X430026D01*
Y327220D01*
X429763D01*
Y327089D01*
X429632D01*
Y326827D01*
X429501D01*
Y326695D01*
X429369D01*
Y326039D01*
X429107D01*
Y325251D01*
X428976D01*
Y324463D01*
X428844D01*
Y322888D01*
X428976D01*
Y322362D01*
X429107D01*
Y321706D01*
X429369D01*
Y321181D01*
X429501D01*
Y321049D01*
X429632D01*
Y320918D01*
X429763D01*
Y320656D01*
X430026D01*
Y320393D01*
X430289D01*
Y320130D01*
X430551D01*
Y319999D01*
X430814D01*
Y319868D01*
X431076D01*
Y319737D01*
X431470D01*
Y319605D01*
X431864D01*
Y319474D01*
X434096D01*
Y319605D01*
X434753D01*
Y319737D01*
X435147D01*
Y319868D01*
X435540D01*
Y319999D01*
X435803D01*
Y320130D01*
X436328D01*
Y320393D01*
X436853D01*
Y320524D01*
X437116D01*
Y320656D01*
X437247D01*
Y320787D01*
X437641D01*
Y321049D01*
X437904D01*
Y321181D01*
X438035D01*
Y321312D01*
X438298D01*
Y321443D01*
X438429D01*
Y321575D01*
X438560D01*
Y321706D01*
X438823D01*
Y321837D01*
X438954D01*
Y321969D01*
X439085D01*
Y322100D01*
X439217D01*
Y322231D01*
X439348D01*
Y322362D01*
X439479D01*
Y322494D01*
X439611D01*
Y322625D01*
X439742D01*
Y322756D01*
X439873D01*
Y323019D01*
X440004D01*
Y323150D01*
X440136D01*
Y323413D01*
X440267D01*
Y323544D01*
X440398D01*
Y323807D01*
X440530D01*
Y323938D01*
X440661D01*
Y324201D01*
X440792D01*
Y324463D01*
X440924D01*
Y324594D01*
X441055D01*
Y324988D01*
X441186D01*
Y325120D01*
X441318D01*
Y325776D01*
X441449D01*
Y326170D01*
X441580D01*
Y326301D01*
X441711D01*
Y329452D01*
X441580D01*
Y329584D01*
X441449D01*
Y329846D01*
X441318D01*
Y330371D01*
X441186D01*
Y330503D01*
X441055D01*
Y330634D01*
X440924D01*
Y330765D01*
X440792D01*
Y331028D01*
X440661D01*
Y331159D01*
X440530D01*
Y331291D01*
X440267D01*
Y331422D01*
X440136D01*
Y331684D01*
X439873D01*
Y331816D01*
X439611D01*
Y331947D01*
X439217D01*
Y332078D01*
X438823D01*
Y332210D01*
X438035D01*
Y332341D01*
D02*
G37*
%LPD*%
D10*
X404498Y307124D02*
Y309123D01*
Y308123D01*
X398500D01*
Y307124D01*
Y309123D01*
Y312122D02*
X404498D01*
X402499Y314121D01*
X404498Y316121D01*
X398500D01*
X404498Y318120D02*
X398500D01*
Y321119D01*
X399500Y322119D01*
X403498D01*
X404498Y321119D01*
Y318120D01*
X401499Y330116D02*
Y334115D01*
X398500Y346111D02*
Y342112D01*
X402499Y346111D01*
X403498D01*
X404498Y345111D01*
Y343112D01*
X403498Y342112D01*
Y348110D02*
X404498Y349110D01*
Y351109D01*
X403498Y352109D01*
X399500D01*
X398500Y351109D01*
Y349110D01*
X399500Y348110D01*
X403498D01*
X398500Y358107D02*
Y354108D01*
X402499Y358107D01*
X403498D01*
X404498Y357107D01*
Y355108D01*
X403498Y354108D01*
Y360106D02*
X404498Y361106D01*
Y363106D01*
X403498Y364105D01*
X399500D01*
X398500Y363106D01*
Y361106D01*
X399500Y360106D01*
X403498D01*
X389000Y311499D02*
X392998D01*
X393998Y310499D01*
Y308500D01*
X392998Y307500D01*
X389000D01*
X388000Y308500D01*
Y310499D01*
X389999Y309499D02*
X388000Y311499D01*
Y310499D02*
X389000Y311499D01*
X393998Y313498D02*
X389000D01*
X388000Y314498D01*
Y316497D01*
X389000Y317497D01*
X393998D01*
Y319496D02*
Y323495D01*
Y321496D01*
X388000D01*
Y325494D02*
X393998D01*
X391999Y327494D01*
X393998Y329493D01*
X388000D01*
X392998Y335491D02*
X393998Y334491D01*
Y332492D01*
X392998Y331492D01*
X391999D01*
X390999Y332492D01*
Y334491D01*
X389999Y335491D01*
X389000D01*
X388000Y334491D01*
Y332492D01*
X389000Y331492D01*
X390999Y343488D02*
Y347487D01*
X392998Y359483D02*
X393998Y358484D01*
Y356484D01*
X392998Y355485D01*
X391999D01*
X390999Y356484D01*
Y358484D01*
X389999Y359483D01*
X389000D01*
X388000Y358484D01*
Y356484D01*
X389000Y355485D01*
X393998Y361483D02*
X388000D01*
X390999D01*
Y365481D01*
X393998D01*
X388000D01*
X393998Y367481D02*
X388000D01*
Y370480D01*
X389000Y371479D01*
X392998D01*
X393998Y370480D01*
Y367481D01*
X388000Y373479D02*
X393998D01*
X388000Y377477D01*
X393998D01*
M02*
