M48
;Layer_Color=9474304
;FILE_FORMAT=2:5
INCH,TZ
;TYPE=PLATED
T1F00S00C0.01575
T2F00S00C0.02500
T3F00S00C0.03000
T4F00S00C0.03543
T5F00S00C0.04000
T6F00S00C0.11811
;TYPE=NON_PLATED
T7F00S00C0.12598
%
T01
X517000Y249500
X502500Y264000
X509000Y271000
X516000Y286500
X522500Y287000
X530000Y285500
X536000Y288500
X462500Y361000
Y365000
X459000Y365500
Y361500
Y357500
Y369500
Y373000
X462500Y369000
X491000Y376000
X502500Y381000
Y363500
X506500Y348000
X495000Y324500
X487500Y319000
X525000Y320000
X537000Y319500
X535000Y328500
X554500Y321500
X546000Y348500
X547500Y367000
Y377624
X552500
X547000Y384500
X538000Y391000
Y397500
X542000Y408500
X535000Y412500
X530000Y408500
X515000Y397000
X521000Y390500
X481124Y395500
T02
X514000Y418000
X519000
X524000
Y423000
X529000
Y418000
X534000
Y423000
X519000
X514000
T03
X421000Y206500
Y226500
X451000
X461000
Y206500
X451000
T04
X490500Y406000
Y416000
Y426000
T05
X489500Y244500
Y254500
X542181Y271031
Y282842
Y294654
Y306465
X554000
Y294654
Y282842
Y271031
X444500Y276500
Y286500
X418819Y283000
Y294811
X407000
Y283000
Y271189
X418819
X471500Y341500
X481500
T06
X571000Y279496
Y298000
X390000Y283000
T07
X570866Y216535
X390035
Y413386
X570866
M30
