G04*
G04 #@! TF.GenerationSoftware,Altium Limited,Altium Designer,19.0.10 (269)*
G04*
G04 Layer_Color=16711935*
%FSLAX25Y25*%
%MOIN*%
G70*
G01*
G75*
%ADD32C,0.11811*%
%ADD33C,0.07800*%
%ADD34C,0.13811*%
%ADD35C,0.08800*%
%ADD36C,0.04800*%
%ADD37R,0.06706X0.06706*%
%ADD38C,0.06706*%
%ADD39C,0.06800*%
%ADD40C,0.20472*%
%ADD41C,0.03950*%
D32*
X547500Y206000D02*
D03*
X381000Y395000D02*
D03*
D33*
X481500Y341500D02*
D03*
X471500D02*
D03*
X444500Y276500D02*
D03*
Y286500D02*
D03*
X489500Y244500D02*
D03*
Y254500D02*
D03*
D34*
X571000Y279496D02*
D03*
Y298000D02*
D03*
X390000Y283000D02*
D03*
D35*
X542181Y271031D02*
D03*
X554000D02*
D03*
X542181Y306465D02*
D03*
X554000D02*
D03*
Y294654D02*
D03*
Y282842D02*
D03*
X542181Y294654D02*
D03*
Y282842D02*
D03*
X407000Y294811D02*
D03*
X418819D02*
D03*
Y283000D02*
D03*
Y271189D02*
D03*
X407000Y283000D02*
D03*
Y271189D02*
D03*
D36*
X524000Y418000D02*
D03*
Y423000D02*
D03*
X529000D02*
D03*
Y418000D02*
D03*
X534000D02*
D03*
Y423000D02*
D03*
X519000D02*
D03*
Y418000D02*
D03*
X514000D02*
D03*
Y423000D02*
D03*
D37*
X490500Y406000D02*
D03*
D38*
Y416000D02*
D03*
Y426000D02*
D03*
D39*
X421000Y226500D02*
D03*
Y206500D02*
D03*
X451000Y226500D02*
D03*
Y206500D02*
D03*
X461000Y226500D02*
D03*
Y206500D02*
D03*
D40*
X570866Y216535D02*
D03*
Y413386D02*
D03*
X390035Y216535D02*
D03*
Y413386D02*
D03*
D41*
X535000Y412500D02*
D03*
X547500Y377624D02*
D03*
X546000Y348500D02*
D03*
X536000Y288500D02*
D03*
X517000Y249500D02*
D03*
X554500Y321500D02*
D03*
X509000Y271000D02*
D03*
X516000Y286500D02*
D03*
X502500Y264000D02*
D03*
Y363500D02*
D03*
X515000Y397000D02*
D03*
X481124Y395500D02*
D03*
X542000Y408500D02*
D03*
X530000D02*
D03*
X502500Y381000D02*
D03*
X491000Y376000D02*
D03*
X547000Y384500D02*
D03*
X506500Y348000D02*
D03*
X525000Y320000D02*
D03*
X487500Y319000D02*
D03*
X495000Y324500D02*
D03*
X522500Y287000D02*
D03*
X537000Y319500D02*
D03*
X530000Y285500D02*
D03*
X535000Y328500D02*
D03*
M02*
