M48
;Layer_Color=9474304
;FILE_FORMAT=2:5
INCH,TZ
;TYPE=PLATED
T1F00S00C0.01575
T2F00S00C0.02500
T3F00S00C0.03000
T4F00S00C0.03543
T5F00S00C0.04000
T6F00S00C0.11811
;TYPE=NON_PLATED
T7F00S00C0.12598
%
T01
X493000Y228500
X493500Y250500
X515000Y247500
X533000Y246000
X533500Y281000
X485500Y285000
X480500Y292469
X486000Y298500
X491870Y304500
X475500Y281000
X466000Y273500
X459500Y274000
X448500Y280500
X433500Y286000
X444500Y305000
X459500Y310000
X420500Y304000
X425000Y241000
X389000Y266500
X459000Y357500
Y361500
X462500Y361000
Y365000
X459000Y365500
Y369500
Y373000
X462500
Y369000
X457500Y423000
X514313Y405813
X527500Y403000
X538000Y397500
Y391000
X521000Y390500
X503000Y388500
X498500Y365876
X499000Y360500
X503500Y353500
X546000Y351536
X547500Y367500
X547000Y379500
X551500Y378000
X555500Y402000
X566000Y364500
X535000Y328500
T02
X514000Y418000
X519000
X524000
Y423000
X529000
Y418000
X534000
Y423000
X519000
X514000
T03
X418000Y205500
Y225500
X448000
X458000
Y205500
X448000
T04
X490500Y406000
Y416000
Y426000
T05
X478000Y260500
Y270500
X542181Y268847
Y280658
Y292469
X554000
Y280658
Y268847
Y257035
X542181
X465000Y250000
Y240000
X418819Y271189
Y283000
Y294811
X407000
Y283000
Y271189
X461500Y340000
X471500
T06
X571000Y265500
Y284004
X390000Y283000
T07
X570866Y216535
X390035
Y413386
X570866
M30
