G04*
G04 #@! TF.GenerationSoftware,Altium Limited,Altium Designer,19.0.10 (269)*
G04*
G04 Layer_Color=16711935*
%FSLAX25Y25*%
%MOIN*%
G70*
G01*
G75*
%ADD35C,0.11811*%
%ADD36C,0.13811*%
%ADD37C,0.08800*%
%ADD38C,0.04800*%
%ADD39R,0.06706X0.06706*%
%ADD40C,0.06706*%
%ADD41C,0.07800*%
%ADD42C,0.06800*%
%ADD43C,0.20472*%
%ADD44C,0.03950*%
D35*
X547500Y206000D02*
D03*
X379500Y395500D02*
D03*
D36*
X571000Y265500D02*
D03*
Y284004D02*
D03*
X390000Y283000D02*
D03*
D37*
X542181Y257035D02*
D03*
X554000D02*
D03*
X542181Y292469D02*
D03*
X554000D02*
D03*
Y280658D02*
D03*
Y268847D02*
D03*
X542181Y280658D02*
D03*
Y268847D02*
D03*
X407000Y294811D02*
D03*
X418819D02*
D03*
Y283000D02*
D03*
Y271189D02*
D03*
X407000Y283000D02*
D03*
Y271189D02*
D03*
D38*
X524000Y418000D02*
D03*
Y423000D02*
D03*
X529000D02*
D03*
Y418000D02*
D03*
X534000D02*
D03*
Y423000D02*
D03*
X519000D02*
D03*
Y418000D02*
D03*
X514000D02*
D03*
Y423000D02*
D03*
D39*
X490500Y406000D02*
D03*
D40*
Y416000D02*
D03*
Y426000D02*
D03*
D41*
X478000Y270500D02*
D03*
Y260500D02*
D03*
X465000Y240000D02*
D03*
Y250000D02*
D03*
X461500Y340000D02*
D03*
X471500D02*
D03*
D42*
X418000Y225500D02*
D03*
Y205500D02*
D03*
X448000Y225500D02*
D03*
Y205500D02*
D03*
X458000Y225500D02*
D03*
Y205500D02*
D03*
D43*
X570866Y216535D02*
D03*
Y413386D02*
D03*
X390035Y216535D02*
D03*
Y413386D02*
D03*
D44*
X535000Y328500D02*
D03*
X499000Y360500D02*
D03*
X493000Y228500D02*
D03*
X533000Y246000D02*
D03*
X533500Y281000D02*
D03*
X503500Y353500D02*
D03*
X485500Y285000D02*
D03*
X493500Y250500D02*
D03*
X491870Y304500D02*
D03*
X480500Y292469D02*
D03*
X486000Y298500D02*
D03*
X459500Y310000D02*
D03*
X444500Y305000D02*
D03*
X466000Y273500D02*
D03*
X475500Y281000D02*
D03*
X448500Y280500D02*
D03*
X420500Y304000D02*
D03*
X459500Y274000D02*
D03*
X433500Y286000D02*
D03*
X389000Y266500D02*
D03*
X425000Y241000D02*
D03*
X566000Y364500D02*
D03*
X515000Y247500D02*
D03*
X546000Y351536D02*
D03*
X547000Y379500D02*
D03*
M02*
