G04*
G04 #@! TF.GenerationSoftware,Altium Limited,Altium Designer,19.0.10 (269)*
G04*
G04 Layer_Color=32896*
%FSLAX25Y25*%
%MOIN*%
G70*
G01*
G75*
%ADD11C,0.01000*%
G36*
X448357Y411689D02*
X447963D01*
Y411558D01*
X447307D01*
Y411426D01*
X446913D01*
Y411295D01*
X446519D01*
Y411164D01*
X446125D01*
Y411033D01*
X445731D01*
Y410901D01*
X445337D01*
Y410770D01*
X444943D01*
Y410639D01*
X444287D01*
Y410376D01*
X443499D01*
Y410245D01*
X443236D01*
Y410113D01*
X442843D01*
Y409982D01*
X442449D01*
Y409851D01*
X442055D01*
Y409720D01*
X441792D01*
Y409588D01*
X441398D01*
Y409457D01*
X440873D01*
Y409326D01*
X440611D01*
Y409194D01*
X440348D01*
Y417204D01*
X440742D01*
Y417335D01*
X441136D01*
Y417466D01*
X441530D01*
Y417597D01*
X441924D01*
Y417729D01*
X442317D01*
Y417860D01*
X442974D01*
Y418123D01*
X443105D01*
Y417991D01*
X443368D01*
Y418123D01*
X443630D01*
Y418254D01*
X444024D01*
Y418385D01*
X444418D01*
Y418516D01*
X444812D01*
Y418648D01*
X445206D01*
Y418779D01*
X445469D01*
Y418910D01*
X445994D01*
Y419042D01*
X446650D01*
Y419304D01*
X446781D01*
Y419173D01*
X447044D01*
Y419304D01*
X447438D01*
Y419436D01*
X447701D01*
Y419567D01*
X448095D01*
Y419698D01*
X448357D01*
Y411689D01*
D02*
G37*
G36*
X432470Y406700D02*
X432995D01*
Y406831D01*
X433258D01*
Y406962D01*
X433652D01*
Y407094D01*
X434046D01*
Y407225D01*
X434440D01*
Y407356D01*
X434834D01*
Y407488D01*
X435490D01*
Y407750D01*
X435621D01*
Y407619D01*
X435753D01*
Y407750D01*
X436146D01*
Y407881D01*
X436672D01*
Y408013D01*
X437066D01*
Y408144D01*
X437328D01*
Y408275D01*
X437722D01*
Y408407D01*
X438116D01*
Y408538D01*
X438510D01*
Y408669D01*
X439166D01*
Y408932D01*
X439298D01*
Y408801D01*
X439560D01*
Y408932D01*
X439823D01*
Y409063D01*
X440217D01*
Y409194D01*
X440348D01*
Y401317D01*
X440873D01*
Y401448D01*
X441136D01*
Y401579D01*
X441661D01*
Y401711D01*
X442055D01*
Y401842D01*
X442317D01*
Y401973D01*
X442711D01*
Y402104D01*
X443105D01*
Y402236D01*
X443236D01*
Y402104D01*
X443499D01*
Y402367D01*
X444156D01*
Y402498D01*
X444550D01*
Y402630D01*
X444943D01*
Y402761D01*
X445206D01*
Y402892D01*
X445600D01*
Y403023D01*
X445994D01*
Y403155D01*
X446388D01*
Y403286D01*
X446781D01*
Y403417D01*
X447175D01*
Y403549D01*
X447569D01*
Y403680D01*
X448226D01*
Y403811D01*
X448357D01*
Y395934D01*
X448095D01*
Y395802D01*
X447701D01*
Y395671D01*
X447307D01*
Y395540D01*
X447044D01*
Y395408D01*
X446650D01*
Y395277D01*
X446125D01*
Y395146D01*
X445731D01*
Y395014D01*
X445469D01*
Y394883D01*
X444812D01*
Y394620D01*
X444550D01*
Y394752D01*
X444418D01*
Y394620D01*
X444024D01*
Y394489D01*
X443630D01*
Y394358D01*
X443236D01*
Y394227D01*
X442974D01*
Y394095D01*
X442580D01*
Y393964D01*
X442186D01*
Y393833D01*
X441924D01*
Y393701D01*
X441005D01*
Y393439D01*
X440873D01*
Y393570D01*
X440742D01*
Y393439D01*
X440348D01*
Y385561D01*
X440085D01*
Y385430D01*
X439691D01*
Y385298D01*
X439429D01*
Y385167D01*
X439035D01*
Y385036D01*
X438641D01*
Y384905D01*
X438247D01*
Y384773D01*
X437853D01*
Y384642D01*
X437460D01*
Y384511D01*
X436803D01*
Y384379D01*
X436672D01*
Y384248D01*
X436540D01*
Y384379D01*
X436409D01*
Y384248D01*
X436015D01*
Y384117D01*
X435621D01*
Y383985D01*
X435359D01*
Y383854D01*
X434965D01*
Y383723D01*
X434571D01*
Y383592D01*
X434177D01*
Y383460D01*
X433915D01*
Y383329D01*
X433127D01*
Y383066D01*
X432995D01*
Y383198D01*
X432733D01*
Y383066D01*
X432470D01*
Y390944D01*
X432076D01*
Y390813D01*
X431682D01*
Y390682D01*
X431420D01*
Y390550D01*
X431026D01*
Y390419D01*
X430632D01*
Y390288D01*
X430370D01*
Y390156D01*
X429976D01*
Y390025D01*
X429582D01*
Y389894D01*
X429188D01*
Y389762D01*
X429057D01*
Y389894D01*
X428925D01*
Y389762D01*
X428794D01*
Y389631D01*
X428137D01*
Y389500D01*
X427612D01*
Y389369D01*
X427350D01*
Y389237D01*
X426956D01*
Y389106D01*
X426562D01*
Y388975D01*
X426299D01*
Y388843D01*
X425905D01*
Y388712D01*
X425512D01*
Y388581D01*
X425118D01*
Y388450D01*
X424855D01*
Y388318D01*
X424461D01*
Y396196D01*
X424592D01*
Y396327D01*
X424986D01*
Y396459D01*
X425380D01*
Y396590D01*
X425643D01*
Y396721D01*
X426037D01*
Y396853D01*
X426431D01*
Y396984D01*
X426693D01*
Y397115D01*
X427481D01*
Y397378D01*
X427612D01*
Y397247D01*
X427875D01*
Y397378D01*
X428269D01*
Y397509D01*
X428663D01*
Y397640D01*
X429057D01*
Y397772D01*
X429450D01*
Y397903D01*
X429713D01*
Y398034D01*
X430107D01*
Y398165D01*
X430501D01*
Y398297D01*
X431157D01*
Y398559D01*
X431289D01*
Y398428D01*
X431551D01*
Y398559D01*
X431945D01*
Y398691D01*
X432208D01*
Y398822D01*
X432470D01*
Y406568D01*
X431814D01*
Y406306D01*
X431682D01*
Y406437D01*
X431420D01*
Y406306D01*
X431026D01*
Y406175D01*
X430632D01*
Y406043D01*
X430370D01*
Y405912D01*
X429976D01*
Y405781D01*
X429582D01*
Y405649D01*
X429188D01*
Y405518D01*
X428794D01*
Y405387D01*
X428531D01*
Y405256D01*
X428137D01*
Y405124D01*
X428006D01*
Y405256D01*
X427743D01*
Y404993D01*
X427612D01*
Y405124D01*
X427481D01*
Y404993D01*
X427087D01*
Y404862D01*
X426562D01*
Y404730D01*
X426299D01*
Y404599D01*
X425905D01*
Y404468D01*
X425512D01*
Y404337D01*
X425118D01*
Y404205D01*
X424855D01*
Y404074D01*
X424461D01*
Y411952D01*
X424592D01*
Y412083D01*
X424986D01*
Y412214D01*
X425380D01*
Y412346D01*
X425643D01*
Y412477D01*
X426037D01*
Y412608D01*
X426168D01*
Y412477D01*
X426431D01*
Y412739D01*
X427218D01*
Y412871D01*
X427612D01*
Y413002D01*
X427875D01*
Y413133D01*
X428269D01*
Y413265D01*
X428663D01*
Y413396D01*
X429057D01*
Y413527D01*
X429450D01*
Y413659D01*
X429713D01*
Y413790D01*
X430107D01*
Y413921D01*
X430238D01*
Y413790D01*
X430370D01*
Y413921D01*
X430501D01*
Y414052D01*
X431157D01*
Y414315D01*
X431289D01*
Y414184D01*
X431682D01*
Y414315D01*
X431945D01*
Y414446D01*
X432339D01*
Y414578D01*
X432470D01*
Y406700D01*
D02*
G37*
G36*
X422229Y305602D02*
X422098D01*
Y305733D01*
X421835D01*
Y305470D01*
X421441D01*
Y305339D01*
X420785D01*
Y305208D01*
X420391D01*
Y305076D01*
X419997D01*
Y304945D01*
X419734D01*
Y304814D01*
X419341D01*
Y304682D01*
X418947D01*
Y304551D01*
X418553D01*
Y304420D01*
X418159D01*
Y304289D01*
X418028D01*
Y304420D01*
X417765D01*
Y304157D01*
X417108D01*
Y304026D01*
X416715D01*
Y303895D01*
X416321D01*
Y303763D01*
X415927D01*
Y303632D01*
X415664D01*
Y303501D01*
X415270D01*
Y303369D01*
X414877D01*
Y303238D01*
X414614D01*
Y303107D01*
X414220D01*
Y302976D01*
X413826D01*
Y302844D01*
X413038D01*
Y302713D01*
X412644D01*
Y302582D01*
X412251D01*
Y302450D01*
X411857D01*
Y302319D01*
X411594D01*
Y302188D01*
X411200D01*
Y302057D01*
X410806D01*
Y301925D01*
X410544D01*
Y301794D01*
X410150D01*
Y301663D01*
X409362D01*
Y301400D01*
X409099D01*
Y407225D01*
X409493D01*
Y407356D01*
X409756D01*
Y407488D01*
X410544D01*
Y407750D01*
X410675D01*
Y407619D01*
X410806D01*
Y407750D01*
X411200D01*
Y407881D01*
X411594D01*
Y408013D01*
X411988D01*
Y408144D01*
X412251D01*
Y408275D01*
X412644D01*
Y408407D01*
X413170D01*
Y408538D01*
X413563D01*
Y408669D01*
X414220D01*
Y408932D01*
X414351D01*
Y408801D01*
X414614D01*
Y408932D01*
X415008D01*
Y409063D01*
X415270D01*
Y409194D01*
X415664D01*
Y409326D01*
X416058D01*
Y409457D01*
X416321D01*
Y409588D01*
X416715D01*
Y409720D01*
X417108D01*
Y409851D01*
X417502D01*
Y409982D01*
X417896D01*
Y410113D01*
X418028D01*
Y409982D01*
X418290D01*
Y410245D01*
X418422D01*
Y410113D01*
X418553D01*
Y410245D01*
X418947D01*
Y410376D01*
X419341D01*
Y410507D01*
X419734D01*
Y410639D01*
X420128D01*
Y410770D01*
X420391D01*
Y410901D01*
X420785D01*
Y411033D01*
X421179D01*
Y411164D01*
X421835D01*
Y411426D01*
X421967D01*
Y411295D01*
X422098D01*
Y411426D01*
X422229D01*
Y305602D01*
D02*
G37*
G36*
X432470Y375057D02*
X432208D01*
Y374926D01*
X431814D01*
Y374795D01*
X431551D01*
Y374663D01*
X431157D01*
Y374532D01*
X430763D01*
Y374401D01*
X430370D01*
Y374270D01*
X430107D01*
Y374138D01*
X429319D01*
Y373876D01*
X429188D01*
Y374007D01*
X429057D01*
Y373876D01*
X428663D01*
Y373744D01*
X428137D01*
Y373613D01*
X427743D01*
Y373482D01*
X427481D01*
Y373351D01*
X427087D01*
Y373219D01*
X426693D01*
Y373088D01*
X426299D01*
Y372957D01*
X425643D01*
Y372694D01*
X425512D01*
Y372825D01*
X425249D01*
Y372694D01*
X424986D01*
Y372563D01*
X424592D01*
Y372431D01*
X424461D01*
Y380440D01*
X425118D01*
Y380572D01*
X425380D01*
Y380703D01*
X425774D01*
Y380834D01*
X426168D01*
Y380966D01*
X426562D01*
Y381097D01*
X426825D01*
Y381228D01*
X427218D01*
Y381360D01*
X427612D01*
Y381491D01*
X427743D01*
Y381360D01*
X427875D01*
Y381622D01*
X428794D01*
Y381753D01*
X429188D01*
Y381885D01*
X429450D01*
Y382016D01*
X429844D01*
Y382147D01*
X430238D01*
Y382279D01*
X430632D01*
Y382410D01*
X430895D01*
Y382541D01*
X431289D01*
Y382673D01*
X431682D01*
Y382804D01*
X431945D01*
Y382935D01*
X432470D01*
Y375057D01*
D02*
G37*
G36*
X448357Y380047D02*
X448226D01*
Y379915D01*
X447832D01*
Y379784D01*
X447438D01*
Y379653D01*
X447175D01*
Y379521D01*
X446650D01*
Y379390D01*
X446519D01*
Y379521D01*
X446256D01*
Y379259D01*
X445600D01*
Y379128D01*
X445206D01*
Y378996D01*
X444812D01*
Y378865D01*
X444418D01*
Y378734D01*
X444156D01*
Y378602D01*
X443762D01*
Y378471D01*
X443368D01*
Y378340D01*
X443105D01*
Y378208D01*
X442711D01*
Y378077D01*
X442186D01*
Y377946D01*
X441530D01*
Y377683D01*
X441398D01*
Y377815D01*
X441136D01*
Y377683D01*
X440742D01*
Y377552D01*
X440479D01*
Y377421D01*
X440348D01*
Y385430D01*
X441005D01*
Y385561D01*
X441267D01*
Y385692D01*
X441661D01*
Y385824D01*
X442186D01*
Y385955D01*
X442449D01*
Y386086D01*
X442843D01*
Y386217D01*
X443236D01*
Y386349D01*
X443630D01*
Y386480D01*
X443893D01*
Y386611D01*
X444287D01*
Y386743D01*
X444943D01*
Y386874D01*
X445337D01*
Y387005D01*
X445731D01*
Y387137D01*
X446125D01*
Y387268D01*
X446388D01*
Y387399D01*
X446913D01*
Y387530D01*
X447307D01*
Y387662D01*
X447701D01*
Y387793D01*
X447963D01*
Y387924D01*
X448357D01*
Y380047D01*
D02*
G37*
G36*
Y360221D02*
X448095D01*
Y360089D01*
X447307D01*
Y359827D01*
X447175D01*
Y359958D01*
X446913D01*
Y359827D01*
X446519D01*
Y359696D01*
X446125D01*
Y359564D01*
X445862D01*
Y359433D01*
X445469D01*
Y359302D01*
X445075D01*
Y359171D01*
X444812D01*
Y359039D01*
X444418D01*
Y358908D01*
X444024D01*
Y358777D01*
X443630D01*
Y358645D01*
X443499D01*
Y358777D01*
X443236D01*
Y358514D01*
X442843D01*
Y364291D01*
X442449D01*
Y364160D01*
X442055D01*
Y364028D01*
X441792D01*
Y363897D01*
X441398D01*
Y363766D01*
X440742D01*
Y363503D01*
X440611D01*
Y363634D01*
X440348D01*
Y363503D01*
X439954D01*
Y363372D01*
X439429D01*
Y363241D01*
X439166D01*
Y363109D01*
X438772D01*
Y362978D01*
X438378D01*
Y362847D01*
X438116D01*
Y362716D01*
X437722D01*
Y362584D01*
X436934D01*
Y362322D01*
X436803D01*
Y362453D01*
X436672D01*
Y362322D01*
X436278D01*
Y362190D01*
X435884D01*
Y362059D01*
X435490D01*
Y361928D01*
X435227D01*
Y361796D01*
X434834D01*
Y361665D01*
X434308D01*
Y361534D01*
X434046D01*
Y361403D01*
X433652D01*
Y361271D01*
X432864D01*
Y361009D01*
X432208D01*
Y360877D01*
X431814D01*
Y360746D01*
X431551D01*
Y360615D01*
X431157D01*
Y360483D01*
X430763D01*
Y360352D01*
X430370D01*
Y360221D01*
X430107D01*
Y360089D01*
X429582D01*
Y359958D01*
X429450D01*
Y360089D01*
X429188D01*
Y359827D01*
X429057D01*
Y359958D01*
X428925D01*
Y359827D01*
X428531D01*
Y359696D01*
X428137D01*
Y359564D01*
X427743D01*
Y359433D01*
X427481D01*
Y359302D01*
X427087D01*
Y359171D01*
X426693D01*
Y359039D01*
X426299D01*
Y358908D01*
X426037D01*
Y358777D01*
X425643D01*
Y358645D01*
X425512D01*
Y358777D01*
X425249D01*
Y358514D01*
X424592D01*
Y358383D01*
X424461D01*
Y364422D01*
X424724D01*
Y364554D01*
X425118D01*
Y364685D01*
X425774D01*
Y364948D01*
X425905D01*
Y364816D01*
X426168D01*
Y364948D01*
X426562D01*
Y365079D01*
X426825D01*
Y365210D01*
X427218D01*
Y365341D01*
X427612D01*
Y365473D01*
X428006D01*
Y365604D01*
X428400D01*
Y365735D01*
X428794D01*
Y365867D01*
X429188D01*
Y365998D01*
X429844D01*
Y366261D01*
X429976D01*
Y366129D01*
X430238D01*
Y366261D01*
X430632D01*
Y366392D01*
X430895D01*
Y366523D01*
X431289D01*
Y366654D01*
X431682D01*
Y366786D01*
X431945D01*
Y366917D01*
X432470D01*
Y367048D01*
X432864D01*
Y367179D01*
X433521D01*
Y367442D01*
X433652D01*
Y367311D01*
X433915D01*
Y367442D01*
X434308D01*
Y367573D01*
X434571D01*
Y367705D01*
X434965D01*
Y367836D01*
X435359D01*
Y367967D01*
X435753D01*
Y368099D01*
X436015D01*
Y368230D01*
X436409D01*
Y368361D01*
X436803D01*
Y368493D01*
X437591D01*
Y368755D01*
X438247D01*
Y368886D01*
X438641D01*
Y369018D01*
X439035D01*
Y369149D01*
X439429D01*
Y369280D01*
X439823D01*
Y369412D01*
X440085D01*
Y369543D01*
X440479D01*
Y369674D01*
X441136D01*
Y369937D01*
X441267D01*
Y369806D01*
X441530D01*
Y370068D01*
X442317D01*
Y370199D01*
X442711D01*
Y370331D01*
X442843D01*
Y376239D01*
X443105D01*
Y376370D01*
X443762D01*
Y376502D01*
X444287D01*
Y376633D01*
X444681D01*
Y376764D01*
X444943D01*
Y376895D01*
X445337D01*
Y377027D01*
X445731D01*
Y377158D01*
X446125D01*
Y377289D01*
X446388D01*
Y377421D01*
X446781D01*
Y377552D01*
X447569D01*
Y377683D01*
X447832D01*
Y377815D01*
X448226D01*
Y377946D01*
X448357D01*
Y360221D01*
D02*
G37*
G36*
Y353525D02*
X448226D01*
Y353262D01*
X448095D01*
Y353393D01*
X447832D01*
Y353131D01*
X447701D01*
Y353262D01*
X447569D01*
Y353131D01*
X447175D01*
Y352999D01*
X446781D01*
Y352868D01*
X446388D01*
Y352737D01*
X445994D01*
Y352606D01*
X445600D01*
Y352474D01*
X445206D01*
Y352343D01*
X444812D01*
Y352212D01*
X444156D01*
Y351949D01*
X444024D01*
Y352080D01*
X443762D01*
Y351949D01*
X443368D01*
Y351818D01*
X443105D01*
Y351687D01*
X442711D01*
Y351555D01*
X442317D01*
Y351424D01*
X441924D01*
Y351293D01*
X441661D01*
Y351161D01*
X441136D01*
Y351030D01*
X440742D01*
Y350899D01*
X440479D01*
Y350767D01*
X440348D01*
Y350899D01*
X440085D01*
Y350636D01*
X439429D01*
Y350505D01*
X439035D01*
Y350374D01*
X438641D01*
Y350242D01*
X438247D01*
Y350111D01*
X437853D01*
Y349980D01*
X437591D01*
Y349848D01*
X437197D01*
Y349717D01*
X436409D01*
Y349454D01*
X436278D01*
Y349586D01*
X436015D01*
Y349454D01*
X435621D01*
Y349323D01*
X435359D01*
Y349192D01*
X434965D01*
Y349061D01*
X434571D01*
Y348929D01*
X434177D01*
Y348798D01*
X433915D01*
Y348667D01*
X433521D01*
Y348535D01*
X433127D01*
Y348404D01*
X432864D01*
Y348273D01*
X432733D01*
Y348404D01*
X432470D01*
Y348142D01*
X431814D01*
Y348010D01*
X431551D01*
Y347748D01*
X431420D01*
Y347616D01*
X431157D01*
Y347485D01*
X431026D01*
Y347354D01*
X430895D01*
Y347222D01*
X430763D01*
Y346960D01*
X430632D01*
Y346829D01*
X430501D01*
Y346697D01*
X430370D01*
Y346303D01*
X430238D01*
Y346172D01*
X430107D01*
Y345778D01*
X429976D01*
Y345384D01*
X429844D01*
Y345122D01*
X429713D01*
Y344465D01*
X429582D01*
Y343021D01*
X429713D01*
Y342496D01*
X429844D01*
Y342102D01*
X429976D01*
Y341839D01*
X430107D01*
Y341577D01*
X430238D01*
Y341445D01*
X430370D01*
Y341314D01*
X430501D01*
Y341183D01*
X430763D01*
Y341052D01*
X431026D01*
Y340920D01*
X432339D01*
Y341052D01*
X432733D01*
Y341183D01*
X433127D01*
Y341314D01*
X433389D01*
Y341445D01*
X434177D01*
Y341577D01*
X434571D01*
Y341708D01*
X434965D01*
Y341839D01*
X435359D01*
Y341971D01*
X435753D01*
Y342102D01*
X436015D01*
Y342233D01*
X436409D01*
Y342365D01*
X436803D01*
Y342496D01*
X436934D01*
Y342365D01*
X437066D01*
Y342627D01*
X437853D01*
Y342758D01*
X438247D01*
Y343021D01*
X438378D01*
Y342890D01*
X438510D01*
Y343021D01*
X438904D01*
Y343152D01*
X439298D01*
Y343284D01*
X439823D01*
Y343415D01*
X440085D01*
Y343546D01*
X440479D01*
Y343677D01*
X440873D01*
Y343809D01*
X441136D01*
Y343940D01*
X441924D01*
Y344203D01*
X442055D01*
Y344071D01*
X442317D01*
Y344203D01*
X442711D01*
Y344334D01*
X442974D01*
Y344465D01*
X443368D01*
Y344597D01*
X443630D01*
Y344728D01*
X444024D01*
Y344859D01*
X444550D01*
Y344990D01*
X444943D01*
Y345122D01*
X445206D01*
Y345253D01*
X445994D01*
Y345516D01*
X446125D01*
Y345384D01*
X446256D01*
Y345516D01*
X446650D01*
Y345647D01*
X447044D01*
Y345778D01*
X447438D01*
Y345910D01*
X447701D01*
Y346041D01*
X448095D01*
Y346172D01*
X448357D01*
Y340264D01*
X447701D01*
Y340132D01*
X447307D01*
Y340001D01*
X447044D01*
Y339870D01*
X446519D01*
Y339739D01*
X446125D01*
Y339607D01*
X445731D01*
Y339476D01*
X445469D01*
Y339345D01*
X444812D01*
Y339082D01*
X444681D01*
Y339213D01*
X444418D01*
Y339082D01*
X444024D01*
Y338951D01*
X443630D01*
Y338820D01*
X443236D01*
Y338688D01*
X442974D01*
Y338557D01*
X442580D01*
Y338426D01*
X442186D01*
Y338294D01*
X441792D01*
Y338163D01*
X441398D01*
Y338032D01*
X441005D01*
Y337900D01*
X440873D01*
Y338032D01*
X440742D01*
Y337769D01*
X439954D01*
Y337638D01*
X439560D01*
Y337507D01*
X439298D01*
Y337375D01*
X438904D01*
Y337244D01*
X438510D01*
Y337113D01*
X438116D01*
Y336981D01*
X437853D01*
Y336850D01*
X437460D01*
Y336719D01*
X436934D01*
Y336588D01*
X436672D01*
Y336456D01*
X435884D01*
Y336194D01*
X435753D01*
Y336325D01*
X435621D01*
Y336194D01*
X435227D01*
Y336062D01*
X434834D01*
Y335931D01*
X434440D01*
Y335800D01*
X434177D01*
Y335668D01*
X433783D01*
Y335537D01*
X433389D01*
Y335406D01*
X433258D01*
Y335537D01*
X433127D01*
Y335406D01*
X432995D01*
Y335275D01*
X432208D01*
Y335143D01*
X431814D01*
Y335012D01*
X431289D01*
Y334881D01*
X430501D01*
Y334749D01*
X429188D01*
Y334881D01*
X428531D01*
Y335012D01*
X428137D01*
Y335143D01*
X427875D01*
Y335275D01*
X427350D01*
Y335537D01*
X427218D01*
Y335406D01*
X427087D01*
Y335537D01*
X426825D01*
Y335668D01*
X426693D01*
Y335931D01*
X426431D01*
Y336062D01*
X426299D01*
Y336194D01*
X426037D01*
Y336325D01*
X425905D01*
Y336456D01*
X425774D01*
Y336719D01*
X425643D01*
Y336850D01*
X425512D01*
Y336981D01*
X425380D01*
Y337375D01*
X425249D01*
Y337507D01*
X425118D01*
Y337769D01*
X424986D01*
Y338032D01*
X424855D01*
Y338294D01*
X424724D01*
Y338688D01*
X424592D01*
Y339082D01*
X424461D01*
Y339476D01*
X424330D01*
Y340001D01*
X424198D01*
Y343940D01*
X424330D01*
Y344597D01*
X424461D01*
Y345253D01*
X424592D01*
Y345516D01*
X424724D01*
Y345910D01*
X424855D01*
Y346303D01*
X424986D01*
Y346697D01*
X425118D01*
Y347091D01*
X425249D01*
Y347222D01*
X425380D01*
Y347748D01*
X425512D01*
Y348010D01*
X425643D01*
Y348273D01*
X425774D01*
Y348404D01*
X425905D01*
Y348667D01*
X426037D01*
Y348929D01*
X426168D01*
Y349061D01*
X426299D01*
Y349323D01*
X426431D01*
Y349454D01*
X426562D01*
Y349586D01*
X426693D01*
Y349980D01*
X426825D01*
Y350111D01*
X426956D01*
Y350242D01*
X427087D01*
Y350505D01*
X427350D01*
Y350767D01*
X427612D01*
Y351030D01*
X427875D01*
Y351293D01*
X428006D01*
Y351424D01*
X428269D01*
Y351687D01*
X428400D01*
Y351818D01*
X428663D01*
Y352080D01*
X428925D01*
Y352212D01*
X429188D01*
Y352474D01*
X429450D01*
Y352606D01*
X429582D01*
Y352737D01*
X429713D01*
Y352868D01*
X429976D01*
Y352999D01*
X430370D01*
Y353131D01*
X430501D01*
Y353262D01*
X430763D01*
Y353393D01*
X431026D01*
Y353525D01*
X431289D01*
Y353656D01*
X431551D01*
Y353787D01*
X431682D01*
Y353919D01*
X432076D01*
Y354050D01*
X432470D01*
Y354181D01*
X432864D01*
Y354312D01*
X433521D01*
Y354575D01*
X433652D01*
Y354444D01*
X433915D01*
Y354575D01*
X434440D01*
Y354706D01*
X434702D01*
Y354838D01*
X435096D01*
Y354969D01*
X435490D01*
Y355100D01*
X435753D01*
Y355232D01*
X436146D01*
Y355363D01*
X436540D01*
Y355494D01*
X436934D01*
Y355626D01*
X437591D01*
Y355888D01*
X437722D01*
Y355757D01*
X437985D01*
Y355888D01*
X438247D01*
Y356019D01*
X438641D01*
Y356151D01*
X439166D01*
Y356282D01*
X439560D01*
Y356413D01*
X439823D01*
Y356544D01*
X440217D01*
Y356676D01*
X440611D01*
Y356807D01*
X441267D01*
Y356938D01*
X441661D01*
Y357070D01*
X442055D01*
Y357201D01*
X442317D01*
Y357332D01*
X442711D01*
Y357464D01*
X443105D01*
Y357595D01*
X443499D01*
Y357726D01*
X443893D01*
Y357857D01*
X444287D01*
Y357989D01*
X444681D01*
Y358120D01*
X445337D01*
Y358383D01*
X446125D01*
Y358514D01*
X446388D01*
Y358645D01*
X446781D01*
Y358777D01*
X447175D01*
Y358908D01*
X447569D01*
Y359039D01*
X447832D01*
Y359171D01*
X448226D01*
Y359302D01*
X448357D01*
Y353525D01*
D02*
G37*
G36*
X441792Y335143D02*
X442580D01*
Y335012D01*
X442974D01*
Y335143D01*
X443105D01*
Y334881D01*
X443762D01*
Y334749D01*
X444024D01*
Y334618D01*
X444418D01*
Y334487D01*
X444550D01*
Y334355D01*
X444812D01*
Y334224D01*
X444943D01*
Y334093D01*
X445337D01*
Y333830D01*
X445469D01*
Y333699D01*
X445600D01*
Y333830D01*
X445731D01*
Y333568D01*
X445994D01*
Y333305D01*
X446125D01*
Y333174D01*
X446256D01*
Y333043D01*
X446388D01*
Y332911D01*
X446519D01*
Y332780D01*
X446650D01*
Y332649D01*
X446781D01*
Y332517D01*
X446913D01*
Y332255D01*
X447175D01*
Y331992D01*
X447307D01*
Y331598D01*
X447438D01*
Y331467D01*
X447569D01*
Y331204D01*
X447701D01*
Y330942D01*
X447832D01*
Y330679D01*
X447963D01*
Y330285D01*
X448095D01*
Y330023D01*
X448226D01*
Y329498D01*
X448357D01*
Y329104D01*
X448488D01*
Y327791D01*
X448751D01*
Y324902D01*
X448488D01*
Y323326D01*
X448357D01*
Y322801D01*
X448226D01*
Y322407D01*
X448095D01*
Y322013D01*
X447963D01*
Y321488D01*
X447832D01*
Y321226D01*
X447701D01*
Y320832D01*
X447569D01*
Y320438D01*
X447438D01*
Y320307D01*
X447307D01*
Y319781D01*
X447175D01*
Y319519D01*
X447044D01*
Y319256D01*
X446913D01*
Y318994D01*
X446781D01*
Y318731D01*
X446650D01*
Y318469D01*
X446519D01*
Y318206D01*
X446388D01*
Y318075D01*
X446256D01*
Y317812D01*
X446125D01*
Y317681D01*
X445994D01*
Y317287D01*
X445731D01*
Y317024D01*
X445600D01*
Y316762D01*
X445469D01*
Y316630D01*
X445337D01*
Y316499D01*
X445206D01*
Y316368D01*
X445075D01*
Y316105D01*
X444943D01*
Y315974D01*
X444812D01*
Y315711D01*
X444550D01*
Y315449D01*
X444418D01*
Y315317D01*
X444287D01*
Y315186D01*
X444156D01*
Y315055D01*
X444024D01*
Y314924D01*
X443893D01*
Y314792D01*
X443762D01*
Y314661D01*
X443630D01*
Y314530D01*
X443499D01*
Y314398D01*
X443368D01*
Y314267D01*
X443236D01*
Y314136D01*
X443105D01*
Y314004D01*
X442974D01*
Y313873D01*
X442843D01*
Y313742D01*
X442711D01*
Y313611D01*
X442580D01*
Y313479D01*
X442317D01*
Y313348D01*
X442186D01*
Y313217D01*
X442055D01*
Y313085D01*
X441792D01*
Y312954D01*
X441661D01*
Y312823D01*
X441530D01*
Y312691D01*
X441267D01*
Y312560D01*
X441136D01*
Y312429D01*
X440873D01*
Y312298D01*
X440742D01*
Y312166D01*
X440611D01*
Y312035D01*
X440217D01*
Y311772D01*
X440085D01*
Y311641D01*
X439954D01*
Y311772D01*
X439823D01*
Y311641D01*
X439560D01*
Y311510D01*
X439429D01*
Y311379D01*
X439166D01*
Y311247D01*
X438904D01*
Y311116D01*
X438641D01*
Y310985D01*
X438378D01*
Y310853D01*
X438116D01*
Y310722D01*
X437591D01*
Y310459D01*
X437460D01*
Y310591D01*
X437328D01*
Y310459D01*
X436934D01*
Y310328D01*
X436672D01*
Y310197D01*
X436278D01*
Y310066D01*
X435884D01*
Y309934D01*
X435490D01*
Y309803D01*
X435096D01*
Y309672D01*
X434440D01*
Y309540D01*
X433915D01*
Y309409D01*
X430370D01*
Y309540D01*
X429844D01*
Y309672D01*
X429450D01*
Y309803D01*
X429057D01*
Y309934D01*
X428794D01*
Y310066D01*
X428400D01*
Y310197D01*
X428137D01*
Y310328D01*
X428006D01*
Y310459D01*
X427875D01*
Y310591D01*
X427743D01*
Y310459D01*
X427612D01*
Y310591D01*
X427481D01*
Y310722D01*
X427218D01*
Y310853D01*
X427087D01*
Y310985D01*
X426956D01*
Y311116D01*
X426825D01*
Y311247D01*
X426693D01*
Y311379D01*
X426562D01*
Y311510D01*
X426431D01*
Y311641D01*
X426299D01*
Y311772D01*
X426168D01*
Y312035D01*
X425905D01*
Y312298D01*
X425774D01*
Y312429D01*
X425643D01*
Y312560D01*
X425512D01*
Y312823D01*
X425380D01*
Y313085D01*
X425249D01*
Y313348D01*
X425118D01*
Y313611D01*
X424986D01*
Y314004D01*
X424855D01*
Y314267D01*
X424724D01*
Y314530D01*
X424592D01*
Y314924D01*
X424461D01*
Y315317D01*
X424330D01*
Y315843D01*
X424198D01*
Y320701D01*
X424330D01*
Y321357D01*
X424461D01*
Y322013D01*
X424592D01*
Y322276D01*
X424724D01*
Y322801D01*
X424855D01*
Y323195D01*
X424986D01*
Y323458D01*
X425118D01*
Y323852D01*
X425249D01*
Y324114D01*
X425380D01*
Y324902D01*
X424592D01*
Y325033D01*
X424461D01*
Y331336D01*
X424592D01*
Y331204D01*
X424724D01*
Y331336D01*
X425118D01*
Y331467D01*
X425380D01*
Y331336D01*
X425905D01*
Y331204D01*
X426299D01*
Y331073D01*
X427087D01*
Y330942D01*
X427481D01*
Y330810D01*
X427875D01*
Y330679D01*
X428400D01*
Y330548D01*
X428794D01*
Y330416D01*
X429450D01*
Y330548D01*
X429582D01*
Y330679D01*
X429713D01*
Y330810D01*
X429844D01*
Y330942D01*
X429976D01*
Y331073D01*
X430107D01*
Y331204D01*
X430238D01*
Y331336D01*
X430370D01*
Y331204D01*
X430501D01*
Y331467D01*
X430632D01*
Y331598D01*
X430763D01*
Y331730D01*
X431026D01*
Y331861D01*
X431157D01*
Y331992D01*
X431289D01*
Y332123D01*
X431551D01*
Y332255D01*
X431945D01*
Y332649D01*
X432076D01*
Y332517D01*
X432208D01*
Y332649D01*
X432470D01*
Y332911D01*
X432864D01*
Y333043D01*
X433127D01*
Y333174D01*
X433258D01*
Y333305D01*
X433389D01*
Y333436D01*
X433652D01*
Y333568D01*
X434177D01*
Y333830D01*
X434308D01*
Y333699D01*
X434571D01*
Y333830D01*
X434702D01*
Y333962D01*
X434965D01*
Y334093D01*
X435359D01*
Y334224D01*
X435621D01*
Y334355D01*
X435884D01*
Y334487D01*
X436278D01*
Y334618D01*
X436672D01*
Y334749D01*
X437066D01*
Y334881D01*
X438116D01*
Y335143D01*
X438247D01*
Y335012D01*
X438641D01*
Y335143D01*
X439691D01*
Y335275D01*
X441792D01*
Y335143D01*
D02*
G37*
%LPC*%
G36*
X440348Y401185D02*
X439691D01*
Y401054D01*
X439429D01*
Y400923D01*
X439035D01*
Y400791D01*
X438641D01*
Y400660D01*
X438247D01*
Y400529D01*
X437853D01*
Y400398D01*
X437591D01*
Y400266D01*
X437197D01*
Y400135D01*
X437066D01*
Y400266D01*
X436934D01*
Y400004D01*
X436015D01*
Y399872D01*
X435621D01*
Y399741D01*
X435359D01*
Y399610D01*
X434965D01*
Y399479D01*
X434571D01*
Y399347D01*
X434177D01*
Y399216D01*
X433915D01*
Y399085D01*
X433521D01*
Y398953D01*
X433127D01*
Y398822D01*
X432864D01*
Y398691D01*
X432470D01*
Y390944D01*
X432995D01*
Y391075D01*
X433258D01*
Y391207D01*
X433652D01*
Y391338D01*
X434046D01*
Y391469D01*
X434440D01*
Y391601D01*
X434834D01*
Y391732D01*
X435096D01*
Y391863D01*
X435227D01*
Y391732D01*
X435490D01*
Y391995D01*
X436146D01*
Y392126D01*
X436540D01*
Y392257D01*
X436934D01*
Y392389D01*
X437328D01*
Y392520D01*
X437722D01*
Y392651D01*
X438116D01*
Y392782D01*
X438510D01*
Y392914D01*
X438772D01*
Y393045D01*
X439166D01*
Y393176D01*
X439560D01*
Y393307D01*
X440217D01*
Y393570D01*
X440348D01*
Y401185D01*
D02*
G37*
G36*
X420128Y407750D02*
X419603D01*
Y407619D01*
X419209D01*
Y407488D01*
X418815D01*
Y407356D01*
X418422D01*
Y407225D01*
X418159D01*
Y407094D01*
X418028D01*
Y404993D01*
X417765D01*
Y404862D01*
X417371D01*
Y404730D01*
X417108D01*
Y404599D01*
X416715D01*
Y404468D01*
X416189D01*
Y404337D01*
X415927D01*
Y404205D01*
X415533D01*
Y404074D01*
X414745D01*
Y403811D01*
X414614D01*
Y403943D01*
X414483D01*
Y403811D01*
X414089D01*
Y403680D01*
X413695D01*
Y403549D01*
X413432D01*
Y403417D01*
X413038D01*
Y403286D01*
X412644D01*
Y403155D01*
X412251D01*
Y403023D01*
X411857D01*
Y402892D01*
X411463D01*
Y402761D01*
X411200D01*
Y400660D01*
X411725D01*
Y400791D01*
X412513D01*
Y401054D01*
X412644D01*
Y400923D01*
X412907D01*
Y401054D01*
X413301D01*
Y401185D01*
X413563D01*
Y401317D01*
X413957D01*
Y401448D01*
X414351D01*
Y401579D01*
X414745D01*
Y401711D01*
X415008D01*
Y401842D01*
X415402D01*
Y401973D01*
X415796D01*
Y402104D01*
X416583D01*
Y402367D01*
X417371D01*
Y402498D01*
X417634D01*
Y402630D01*
X418028D01*
Y400660D01*
X418422D01*
Y400791D01*
X419209D01*
Y401054D01*
X419341D01*
Y400923D01*
X419603D01*
Y401054D01*
X419997D01*
Y401317D01*
X420128D01*
Y407750D01*
D02*
G37*
G36*
X418422Y398297D02*
X417502D01*
Y398165D01*
X417108D01*
Y398034D01*
X416715D01*
Y397903D01*
X416321D01*
Y397772D01*
X416189D01*
Y397640D01*
X415927D01*
Y397509D01*
X415664D01*
Y397247D01*
X415402D01*
Y397115D01*
X415139D01*
Y396853D01*
X414877D01*
Y396590D01*
X414745D01*
Y396459D01*
X414614D01*
Y396196D01*
X414483D01*
Y396065D01*
X414351D01*
Y395934D01*
X414220D01*
Y396065D01*
X414089D01*
Y395934D01*
X413957D01*
Y396196D01*
X413170D01*
Y396327D01*
X412644D01*
Y396459D01*
X412251D01*
Y396590D01*
X411857D01*
Y396721D01*
X411332D01*
Y396590D01*
X411200D01*
Y394095D01*
X411594D01*
Y393964D01*
X411988D01*
Y393833D01*
X412513D01*
Y393701D01*
X413038D01*
Y393570D01*
X413432D01*
Y393439D01*
X413826D01*
Y392257D01*
X413695D01*
Y392126D01*
X413038D01*
Y391995D01*
X412644D01*
Y391863D01*
X412251D01*
Y391732D01*
X411857D01*
Y391601D01*
X411594D01*
Y391469D01*
X411200D01*
Y389237D01*
X411857D01*
Y389500D01*
X411988D01*
Y389369D01*
X412119D01*
Y389500D01*
X412513D01*
Y389631D01*
X412907D01*
Y389762D01*
X413301D01*
Y389894D01*
X413563D01*
Y390025D01*
X414089D01*
Y390156D01*
X414483D01*
Y390288D01*
X414745D01*
Y390419D01*
X415533D01*
Y390682D01*
X415664D01*
Y390550D01*
X415927D01*
Y390813D01*
X416583D01*
Y390944D01*
X416977D01*
Y391075D01*
X417371D01*
Y391207D01*
X417634D01*
Y391338D01*
X418028D01*
Y391469D01*
X418422D01*
Y391601D01*
X418815D01*
Y391732D01*
X419209D01*
Y391863D01*
X419341D01*
Y391732D01*
X419603D01*
Y391995D01*
X420128D01*
Y396590D01*
X419997D01*
Y396984D01*
X419866D01*
Y397247D01*
X419734D01*
Y397378D01*
X419603D01*
Y397640D01*
X419472D01*
Y397772D01*
X419209D01*
Y397903D01*
X419078D01*
Y398034D01*
X418815D01*
Y398165D01*
X418422D01*
Y398297D01*
D02*
G37*
G36*
X417502Y388056D02*
X416846D01*
Y387924D01*
X416189D01*
Y387793D01*
X415796D01*
Y387662D01*
X415402D01*
Y387530D01*
X415008D01*
Y387399D01*
X414745D01*
Y387268D01*
X414614D01*
Y387137D01*
X414220D01*
Y387005D01*
X413957D01*
Y386874D01*
X413826D01*
Y386743D01*
X413563D01*
Y386480D01*
X413432D01*
Y386349D01*
X413170D01*
Y386217D01*
X413038D01*
Y385955D01*
X412907D01*
Y385824D01*
X412776D01*
Y385692D01*
X412644D01*
Y385561D01*
X412382D01*
Y385298D01*
X412251D01*
Y385167D01*
X412119D01*
Y384905D01*
X411988D01*
Y384773D01*
X411857D01*
Y384379D01*
X411725D01*
Y384248D01*
X411594D01*
Y383854D01*
X411463D01*
Y383592D01*
X411332D01*
Y383066D01*
X411200D01*
Y382673D01*
X411069D01*
Y380703D01*
X411200D01*
Y380309D01*
X411332D01*
Y380047D01*
X411463D01*
Y379784D01*
X411594D01*
Y379521D01*
X411725D01*
Y379390D01*
X411857D01*
Y379259D01*
X411988D01*
Y379128D01*
X412119D01*
Y378996D01*
X412251D01*
Y378865D01*
X412382D01*
Y378734D01*
X412644D01*
Y378602D01*
X413038D01*
Y378471D01*
X413432D01*
Y378340D01*
X414745D01*
Y378471D01*
X415270D01*
Y378602D01*
X415664D01*
Y378734D01*
X416058D01*
Y378865D01*
X416452D01*
Y379128D01*
X416977D01*
Y379259D01*
X417240D01*
Y379521D01*
X417502D01*
Y379653D01*
X417634D01*
Y379784D01*
X417765D01*
Y379915D01*
X418028D01*
Y380047D01*
X418159D01*
Y380178D01*
X418290D01*
Y380309D01*
X418422D01*
Y380440D01*
X418553D01*
Y380572D01*
X418684D01*
Y380703D01*
X418815D01*
Y380966D01*
X418947D01*
Y381097D01*
X419078D01*
Y381360D01*
X419209D01*
Y381491D01*
X419341D01*
Y381622D01*
X419472D01*
Y381885D01*
X419603D01*
Y382147D01*
X419734D01*
Y382410D01*
X419866D01*
Y382804D01*
X419997D01*
Y383198D01*
X420128D01*
Y385955D01*
X419997D01*
Y386217D01*
X419866D01*
Y386480D01*
X419734D01*
Y386874D01*
X419472D01*
Y387137D01*
X419209D01*
Y387268D01*
X419078D01*
Y387399D01*
X418947D01*
Y387530D01*
X418815D01*
Y387662D01*
X418553D01*
Y387793D01*
X418159D01*
Y387924D01*
X417502D01*
Y388056D01*
D02*
G37*
G36*
X418815Y376764D02*
X416846D01*
Y376502D01*
X416715D01*
Y376633D01*
X416452D01*
Y376502D01*
X416189D01*
Y376370D01*
X415927D01*
Y376239D01*
X415796D01*
Y376108D01*
X415664D01*
Y375976D01*
X415402D01*
Y375845D01*
X415270D01*
Y375714D01*
X415139D01*
Y375583D01*
X414877D01*
Y375451D01*
X414745D01*
Y375320D01*
X414614D01*
Y375057D01*
X414483D01*
Y374926D01*
X414351D01*
Y374795D01*
X414220D01*
Y374532D01*
X414089D01*
Y374401D01*
X413957D01*
Y374138D01*
X413826D01*
Y373876D01*
X413695D01*
Y373482D01*
X413563D01*
Y372957D01*
X413432D01*
Y370725D01*
X413038D01*
Y370593D01*
X412776D01*
Y370462D01*
X412119D01*
Y370331D01*
X411988D01*
Y370199D01*
X411857D01*
Y370331D01*
X411725D01*
Y370199D01*
X411332D01*
Y369937D01*
X411200D01*
Y367836D01*
X411725D01*
Y367967D01*
X412119D01*
Y368099D01*
X412382D01*
Y368230D01*
X412776D01*
Y368361D01*
X413170D01*
Y368493D01*
X413826D01*
Y368755D01*
X414614D01*
Y368886D01*
X415008D01*
Y369018D01*
X415270D01*
Y369149D01*
X415796D01*
Y369280D01*
X416189D01*
Y369412D01*
X416452D01*
Y369543D01*
X416846D01*
Y369674D01*
X417502D01*
Y369937D01*
X417634D01*
Y369806D01*
X417896D01*
Y370068D01*
X418684D01*
Y370199D01*
X418947D01*
Y370331D01*
X419341D01*
Y370462D01*
X419734D01*
Y370593D01*
X420128D01*
Y375189D01*
X419997D01*
Y375583D01*
X419866D01*
Y375845D01*
X419734D01*
Y375976D01*
X419603D01*
Y376108D01*
X419472D01*
Y376370D01*
X419341D01*
Y376502D01*
X419078D01*
Y376633D01*
X418815D01*
Y376764D01*
D02*
G37*
G36*
X418553Y366786D02*
X417896D01*
Y366654D01*
X417371D01*
Y366523D01*
X417240D01*
Y364554D01*
X417765D01*
Y364422D01*
X417896D01*
Y364291D01*
X418028D01*
Y364160D01*
X418159D01*
Y363634D01*
X418290D01*
Y363503D01*
X418159D01*
Y362847D01*
X418028D01*
Y362584D01*
X417896D01*
Y362322D01*
X417765D01*
Y362190D01*
X417634D01*
Y362059D01*
X416715D01*
Y362322D01*
X416583D01*
Y362847D01*
X416452D01*
Y363766D01*
X416321D01*
Y364816D01*
X416189D01*
Y364948D01*
X416058D01*
Y365210D01*
X415927D01*
Y365473D01*
X415796D01*
Y365604D01*
X415664D01*
Y365735D01*
X415402D01*
Y365867D01*
X414089D01*
Y365735D01*
X413563D01*
Y365604D01*
X413432D01*
Y365473D01*
X413038D01*
Y365210D01*
X412776D01*
Y365079D01*
X412644D01*
Y364948D01*
X412513D01*
Y364816D01*
X412382D01*
Y364685D01*
X412119D01*
Y364422D01*
X411988D01*
Y364291D01*
X411857D01*
Y363897D01*
X411725D01*
Y363634D01*
X411594D01*
Y363503D01*
X411463D01*
Y363241D01*
X411332D01*
Y362847D01*
X411200D01*
Y362322D01*
X411069D01*
Y360221D01*
X411200D01*
Y359958D01*
X411332D01*
Y359696D01*
X411463D01*
Y359433D01*
X411594D01*
Y359171D01*
X411725D01*
Y359039D01*
X411857D01*
Y358777D01*
X412119D01*
Y358645D01*
X412251D01*
Y358514D01*
X412776D01*
Y358383D01*
X413432D01*
Y358514D01*
X413826D01*
Y358645D01*
X413957D01*
Y360877D01*
X413563D01*
Y361009D01*
X413301D01*
Y361271D01*
X413170D01*
Y362847D01*
X413301D01*
Y362978D01*
X413432D01*
Y363241D01*
X413563D01*
Y363372D01*
X413695D01*
Y363503D01*
X414351D01*
Y363241D01*
X414483D01*
Y363109D01*
X414614D01*
Y361534D01*
X414745D01*
Y361009D01*
X414877D01*
Y360746D01*
X415008D01*
Y360483D01*
X415139D01*
Y360221D01*
X415270D01*
Y360089D01*
X415402D01*
Y359958D01*
X415533D01*
Y359827D01*
X415796D01*
Y359696D01*
X417240D01*
Y359827D01*
X417502D01*
Y359958D01*
X417765D01*
Y360089D01*
X418028D01*
Y360221D01*
X418290D01*
Y360352D01*
X418422D01*
Y360483D01*
X418684D01*
Y360615D01*
X418815D01*
Y360877D01*
X419078D01*
Y361140D01*
X419209D01*
Y361271D01*
X419341D01*
Y361403D01*
X419472D01*
Y361665D01*
X419603D01*
Y361796D01*
X419734D01*
Y362190D01*
X419866D01*
Y362453D01*
X419997D01*
Y362716D01*
X420128D01*
Y365473D01*
X419997D01*
Y365604D01*
X419866D01*
Y365998D01*
X419734D01*
Y366129D01*
X419472D01*
Y366392D01*
X419209D01*
Y366523D01*
X418947D01*
Y366654D01*
X418553D01*
Y366786D01*
D02*
G37*
G36*
Y357332D02*
X417371D01*
Y357201D01*
X416583D01*
Y356938D01*
X416452D01*
Y357070D01*
X416321D01*
Y356938D01*
X416058D01*
Y356807D01*
X415927D01*
Y356676D01*
X415796D01*
Y356544D01*
X415664D01*
Y356413D01*
X415402D01*
Y356282D01*
X415270D01*
Y356151D01*
X415139D01*
Y356019D01*
X414877D01*
Y355757D01*
X414745D01*
Y355626D01*
X414614D01*
Y355232D01*
X414351D01*
Y355100D01*
X413957D01*
Y355232D01*
X413563D01*
Y355363D01*
X413170D01*
Y355494D01*
X412776D01*
Y355626D01*
X412382D01*
Y355757D01*
X411988D01*
Y355888D01*
X411200D01*
Y353131D01*
X411725D01*
Y352999D01*
X412644D01*
Y352737D01*
X412907D01*
Y352868D01*
X413038D01*
Y352737D01*
X413563D01*
Y352606D01*
X413826D01*
Y351424D01*
X413563D01*
Y351293D01*
X413170D01*
Y351161D01*
X412907D01*
Y351030D01*
X412513D01*
Y350899D01*
X411857D01*
Y350636D01*
X411200D01*
Y348404D01*
X411725D01*
Y348535D01*
X412119D01*
Y348667D01*
X412382D01*
Y348798D01*
X412907D01*
Y348929D01*
X413563D01*
Y349061D01*
X413695D01*
Y349192D01*
X413826D01*
Y349061D01*
X413957D01*
Y349323D01*
X414745D01*
Y349454D01*
X415008D01*
Y349586D01*
X415402D01*
Y349717D01*
X415796D01*
Y349848D01*
X416189D01*
Y349980D01*
X416452D01*
Y350111D01*
X416846D01*
Y350242D01*
X417634D01*
Y350505D01*
X418422D01*
Y350636D01*
X418815D01*
Y350767D01*
X419078D01*
Y350899D01*
X419472D01*
Y351030D01*
X419866D01*
Y351161D01*
X420128D01*
Y355757D01*
X419997D01*
Y356151D01*
X419866D01*
Y356413D01*
X419734D01*
Y356676D01*
X419472D01*
Y356938D01*
X419341D01*
Y357070D01*
X419209D01*
Y356938D01*
X419078D01*
Y357201D01*
X418553D01*
Y357332D01*
D02*
G37*
G36*
X417765Y347091D02*
X416715D01*
Y346960D01*
X416058D01*
Y346829D01*
X415270D01*
Y346566D01*
X415139D01*
Y346697D01*
X415008D01*
Y346566D01*
X414745D01*
Y346435D01*
X414614D01*
Y346303D01*
X414351D01*
Y346172D01*
X414089D01*
Y346041D01*
X413957D01*
Y345910D01*
X413695D01*
Y345778D01*
X413563D01*
Y345647D01*
X413432D01*
Y345516D01*
X413038D01*
Y345253D01*
X412907D01*
Y345122D01*
X412776D01*
Y344990D01*
X412644D01*
Y344728D01*
X412513D01*
Y344597D01*
X412382D01*
Y344465D01*
X412251D01*
Y344334D01*
X412119D01*
Y344071D01*
X411988D01*
Y343809D01*
X411857D01*
Y343546D01*
X411725D01*
Y343284D01*
X411594D01*
Y343021D01*
X411463D01*
Y342758D01*
X411332D01*
Y342365D01*
X411200D01*
Y341708D01*
X411069D01*
Y339870D01*
X411200D01*
Y339476D01*
X411332D01*
Y339213D01*
X411463D01*
Y338951D01*
X411594D01*
Y338820D01*
X411725D01*
Y338557D01*
X411857D01*
Y338294D01*
X412119D01*
Y338032D01*
X412251D01*
Y337900D01*
X412513D01*
Y337769D01*
X412776D01*
Y337638D01*
X413695D01*
Y337375D01*
X414351D01*
Y337638D01*
X415533D01*
Y337769D01*
X415927D01*
Y337900D01*
X416321D01*
Y338032D01*
X416452D01*
Y338163D01*
X416715D01*
Y338294D01*
X416977D01*
Y338426D01*
X417108D01*
Y338557D01*
X417502D01*
Y338820D01*
X417634D01*
Y338951D01*
X417896D01*
Y339213D01*
X418290D01*
Y339476D01*
X418553D01*
Y339739D01*
X418684D01*
Y339870D01*
X418815D01*
Y340132D01*
X418947D01*
Y340264D01*
X419078D01*
Y340395D01*
X419209D01*
Y340658D01*
X419341D01*
Y340789D01*
X419472D01*
Y341052D01*
X419603D01*
Y341314D01*
X419734D01*
Y341577D01*
X419866D01*
Y341971D01*
X419997D01*
Y342233D01*
X420128D01*
Y345253D01*
X419997D01*
Y345384D01*
X419866D01*
Y345647D01*
X419734D01*
Y345910D01*
X419603D01*
Y346041D01*
X419472D01*
Y346172D01*
X419341D01*
Y346303D01*
X419209D01*
Y346435D01*
X419078D01*
Y346566D01*
X418947D01*
Y346697D01*
X418815D01*
Y346829D01*
X418290D01*
Y346960D01*
X417765D01*
Y347091D01*
D02*
G37*
G36*
X420128Y337113D02*
X419734D01*
Y336981D01*
X419472D01*
Y336850D01*
X419078D01*
Y336719D01*
X418684D01*
Y336588D01*
X418422D01*
Y336456D01*
X418028D01*
Y334224D01*
X417634D01*
Y334093D01*
X417240D01*
Y333962D01*
X416583D01*
Y333699D01*
X416452D01*
Y333830D01*
X416189D01*
Y333699D01*
X415796D01*
Y333568D01*
X415402D01*
Y333436D01*
X415008D01*
Y333305D01*
X414614D01*
Y333174D01*
X414351D01*
Y333043D01*
X413957D01*
Y332911D01*
X413563D01*
Y332780D01*
X412907D01*
Y332649D01*
X412513D01*
Y332386D01*
X412382D01*
Y332517D01*
X412119D01*
Y332386D01*
X411857D01*
Y332255D01*
X411463D01*
Y332123D01*
X411200D01*
Y329891D01*
X411725D01*
Y330023D01*
X412119D01*
Y330154D01*
X412382D01*
Y330285D01*
X412776D01*
Y330416D01*
X413170D01*
Y330548D01*
X413563D01*
Y330679D01*
X413826D01*
Y330810D01*
X414220D01*
Y330942D01*
X414614D01*
Y331073D01*
X415270D01*
Y331336D01*
X415402D01*
Y331204D01*
X415664D01*
Y331336D01*
X416189D01*
Y331467D01*
X416452D01*
Y331598D01*
X416846D01*
Y331730D01*
X417240D01*
Y331861D01*
X417502D01*
Y331992D01*
X417896D01*
Y332123D01*
X418028D01*
Y329891D01*
X418290D01*
Y330023D01*
X418684D01*
Y330154D01*
X419078D01*
Y330285D01*
X419472D01*
Y330416D01*
X419866D01*
Y330548D01*
X420128D01*
Y337113D01*
D02*
G37*
G36*
X417896Y327397D02*
X416452D01*
Y327265D01*
X415927D01*
Y327134D01*
X415533D01*
Y327003D01*
X415270D01*
Y326871D01*
X414877D01*
Y326740D01*
X414614D01*
Y326609D01*
X414351D01*
Y326478D01*
X414220D01*
Y326346D01*
X414089D01*
Y326215D01*
X413826D01*
Y326084D01*
X413695D01*
Y325952D01*
X413432D01*
Y325821D01*
X413301D01*
Y325690D01*
X413038D01*
Y325427D01*
X412907D01*
Y325296D01*
X412776D01*
Y325165D01*
X412644D01*
Y325033D01*
X412513D01*
Y324771D01*
X412382D01*
Y324640D01*
X412119D01*
Y324246D01*
X411857D01*
Y323720D01*
X411725D01*
Y323589D01*
X411594D01*
Y323326D01*
X411463D01*
Y322933D01*
X411332D01*
Y322539D01*
X411200D01*
Y322013D01*
X411069D01*
Y320175D01*
X411200D01*
Y319650D01*
X411332D01*
Y319388D01*
X411463D01*
Y319125D01*
X411594D01*
Y318994D01*
X411725D01*
Y318731D01*
X411857D01*
Y318469D01*
X412119D01*
Y318206D01*
X412513D01*
Y318075D01*
X412907D01*
Y317812D01*
X415402D01*
Y318075D01*
X415533D01*
Y317943D01*
X415664D01*
Y318075D01*
X415796D01*
Y318206D01*
X416321D01*
Y318337D01*
X416583D01*
Y318469D01*
X416846D01*
Y318600D01*
X417108D01*
Y318731D01*
X417371D01*
Y318862D01*
X417502D01*
Y319125D01*
X417896D01*
Y319388D01*
X418159D01*
Y319650D01*
X418422D01*
Y319781D01*
X418553D01*
Y320044D01*
X418815D01*
Y320307D01*
X418947D01*
Y320569D01*
X419078D01*
Y320701D01*
X419209D01*
Y320963D01*
X419341D01*
Y321094D01*
X419472D01*
Y321226D01*
X419603D01*
Y321488D01*
X419734D01*
Y321882D01*
X419866D01*
Y322145D01*
X419997D01*
Y322539D01*
X420128D01*
Y325427D01*
X419997D01*
Y325559D01*
X419866D01*
Y325821D01*
X419734D01*
Y326084D01*
X419603D01*
Y326215D01*
X419472D01*
Y326478D01*
X419341D01*
Y326609D01*
X419209D01*
Y326740D01*
X418947D01*
Y326871D01*
X418815D01*
Y327003D01*
X418684D01*
Y327134D01*
X418422D01*
Y327265D01*
X417896D01*
Y327397D01*
D02*
G37*
G36*
X420128Y316499D02*
X419734D01*
Y316368D01*
X419341D01*
Y316236D01*
X418947D01*
Y316105D01*
X418553D01*
Y315974D01*
X418290D01*
Y315843D01*
X417896D01*
Y315711D01*
X417108D01*
Y315580D01*
X416846D01*
Y315449D01*
X416452D01*
Y315317D01*
X416058D01*
Y315186D01*
X415796D01*
Y315055D01*
X415270D01*
Y314924D01*
X414877D01*
Y314792D01*
X414220D01*
Y314530D01*
X413432D01*
Y314398D01*
X413038D01*
Y314267D01*
X412776D01*
Y314136D01*
X412382D01*
Y314004D01*
X411988D01*
Y313873D01*
X411725D01*
Y313742D01*
X411332D01*
Y313611D01*
X411200D01*
Y311379D01*
X411463D01*
Y311510D01*
X412251D01*
Y311641D01*
X412513D01*
Y311904D01*
X412644D01*
Y311772D01*
X412907D01*
Y311904D01*
X413301D01*
Y312035D01*
X413563D01*
Y312166D01*
X413957D01*
Y312298D01*
X414351D01*
Y312429D01*
X414745D01*
Y312560D01*
X415008D01*
Y312429D01*
X414877D01*
Y312166D01*
X414745D01*
Y312035D01*
X414614D01*
Y311772D01*
X414483D01*
Y311641D01*
X414351D01*
Y311510D01*
X414220D01*
Y311379D01*
X414089D01*
Y311116D01*
X413957D01*
Y310985D01*
X413826D01*
Y310853D01*
X413695D01*
Y310722D01*
X413563D01*
Y310459D01*
X413432D01*
Y310328D01*
X413301D01*
Y310197D01*
X413170D01*
Y309803D01*
X413432D01*
Y309672D01*
X413563D01*
Y309540D01*
X413826D01*
Y309409D01*
X413957D01*
Y309278D01*
X414220D01*
Y309146D01*
X414351D01*
Y309015D01*
X414745D01*
Y308884D01*
X414877D01*
Y308753D01*
X415139D01*
Y308621D01*
X414877D01*
Y308490D01*
X414614D01*
Y308359D01*
X414220D01*
Y308227D01*
X413432D01*
Y308096D01*
X413038D01*
Y307965D01*
X412644D01*
Y307834D01*
X412251D01*
Y307702D01*
X411857D01*
Y307571D01*
X411594D01*
Y307440D01*
X411200D01*
Y305076D01*
X411725D01*
Y305208D01*
X412119D01*
Y305339D01*
X412382D01*
Y305470D01*
X412776D01*
Y305602D01*
X413170D01*
Y305733D01*
X413563D01*
Y305864D01*
X413826D01*
Y305995D01*
X414220D01*
Y306127D01*
X414745D01*
Y306258D01*
X415008D01*
Y306389D01*
X415139D01*
Y306258D01*
X415402D01*
Y306521D01*
X416189D01*
Y306652D01*
X416452D01*
Y306783D01*
X416846D01*
Y306914D01*
X417240D01*
Y307046D01*
X417502D01*
Y307177D01*
X417896D01*
Y307308D01*
X418290D01*
Y307440D01*
X418947D01*
Y307702D01*
X419209D01*
Y307571D01*
X419341D01*
Y307702D01*
X419472D01*
Y307834D01*
X420128D01*
Y308884D01*
X419866D01*
Y309015D01*
X419472D01*
Y309146D01*
X419209D01*
Y309409D01*
X418815D01*
Y309540D01*
X418684D01*
Y309672D01*
X418422D01*
Y309803D01*
X418159D01*
Y309934D01*
X418028D01*
Y310066D01*
X417765D01*
Y310197D01*
X417502D01*
Y310328D01*
X417240D01*
Y310591D01*
X417108D01*
Y310459D01*
X416977D01*
Y310722D01*
X416452D01*
Y310853D01*
X416321D01*
Y311116D01*
X416452D01*
Y311379D01*
X416583D01*
Y311510D01*
X416715D01*
Y311641D01*
X416846D01*
Y311772D01*
X416977D01*
Y312035D01*
X417108D01*
Y312166D01*
X417240D01*
Y312298D01*
X417502D01*
Y312691D01*
X417634D01*
Y312823D01*
X417896D01*
Y313085D01*
X418028D01*
Y313217D01*
X418159D01*
Y313348D01*
X418290D01*
Y313479D01*
X418422D01*
Y313742D01*
X418553D01*
Y314004D01*
X418815D01*
Y314136D01*
X418947D01*
Y314398D01*
X419078D01*
Y314530D01*
X419209D01*
Y314661D01*
X419341D01*
Y314792D01*
X419472D01*
Y315055D01*
X419603D01*
Y315186D01*
X419734D01*
Y315317D01*
X419866D01*
Y315449D01*
X419997D01*
Y315580D01*
X420128D01*
Y316499D01*
D02*
G37*
%LPD*%
G36*
X417896Y395671D02*
X418028D01*
Y393701D01*
X417765D01*
Y393439D01*
X417634D01*
Y393570D01*
X417371D01*
Y393439D01*
X417108D01*
Y393307D01*
X416715D01*
Y393176D01*
X416189D01*
Y393045D01*
X415927D01*
Y394883D01*
X416058D01*
Y395277D01*
X416321D01*
Y395540D01*
X416452D01*
Y395671D01*
X416583D01*
Y395802D01*
X417896D01*
Y395671D01*
D02*
G37*
G36*
X417240Y385298D02*
X417502D01*
Y385167D01*
X417634D01*
Y384905D01*
X417765D01*
Y384773D01*
X417896D01*
Y384379D01*
X418028D01*
Y383329D01*
X417896D01*
Y383066D01*
X417765D01*
Y382804D01*
X417634D01*
Y382541D01*
X417502D01*
Y382279D01*
X417371D01*
Y382147D01*
X417240D01*
Y382016D01*
X417108D01*
Y381753D01*
X416846D01*
Y381622D01*
X416715D01*
Y381491D01*
X416583D01*
Y381360D01*
X416321D01*
Y381228D01*
X416058D01*
Y381097D01*
X415927D01*
Y380966D01*
X415533D01*
Y380834D01*
X414089D01*
Y380966D01*
X413826D01*
Y381228D01*
X413563D01*
Y381491D01*
X413432D01*
Y381885D01*
X413301D01*
Y383066D01*
X413432D01*
Y383329D01*
X413563D01*
Y383854D01*
X413826D01*
Y384117D01*
X413957D01*
Y384379D01*
X414220D01*
Y384642D01*
X414483D01*
Y384773D01*
X414614D01*
Y384905D01*
X414745D01*
Y385036D01*
X415008D01*
Y385167D01*
X415139D01*
Y385298D01*
X415533D01*
Y385430D01*
X417240D01*
Y385298D01*
D02*
G37*
G36*
X417502Y374401D02*
X417765D01*
Y374270D01*
X417896D01*
Y374138D01*
X418028D01*
Y372300D01*
X417896D01*
Y372169D01*
X417502D01*
Y372038D01*
X417108D01*
Y371906D01*
X416846D01*
Y371775D01*
X416452D01*
Y371644D01*
X415796D01*
Y371381D01*
X415533D01*
Y373351D01*
X415664D01*
Y373613D01*
X415796D01*
Y373744D01*
X415927D01*
Y373876D01*
X416058D01*
Y374007D01*
X416321D01*
Y374138D01*
X416452D01*
Y374270D01*
X416715D01*
Y374401D01*
X417240D01*
Y374532D01*
X417502D01*
Y374401D01*
D02*
G37*
G36*
Y354969D02*
X417765D01*
Y354838D01*
X417896D01*
Y354706D01*
X418028D01*
Y352737D01*
X417634D01*
Y352606D01*
X417240D01*
Y352474D01*
X416846D01*
Y352343D01*
X416583D01*
Y352212D01*
X415927D01*
Y354181D01*
X416058D01*
Y354444D01*
X416189D01*
Y354575D01*
X416321D01*
Y354706D01*
X416583D01*
Y354838D01*
X416846D01*
Y354969D01*
X417371D01*
Y355100D01*
X417502D01*
Y354969D01*
D02*
G37*
G36*
X417108Y344465D02*
X417371D01*
Y344334D01*
X417502D01*
Y344203D01*
X417765D01*
Y343940D01*
X417896D01*
Y343546D01*
X418028D01*
Y342496D01*
X417896D01*
Y342102D01*
X417765D01*
Y341839D01*
X417634D01*
Y341577D01*
X417502D01*
Y341445D01*
X417371D01*
Y341183D01*
X417108D01*
Y340920D01*
X416977D01*
Y340789D01*
X416846D01*
Y340658D01*
X416715D01*
Y340526D01*
X416452D01*
Y340395D01*
X416321D01*
Y340526D01*
X416189D01*
Y340264D01*
X415796D01*
Y340132D01*
X415402D01*
Y340001D01*
X414220D01*
Y340132D01*
X413957D01*
Y340264D01*
X413563D01*
Y340658D01*
X413432D01*
Y341052D01*
X413301D01*
Y342102D01*
X413432D01*
Y342496D01*
X413563D01*
Y342890D01*
X413695D01*
Y343021D01*
X413826D01*
Y343284D01*
X413957D01*
Y343415D01*
X414089D01*
Y343677D01*
X414351D01*
Y343809D01*
X414483D01*
Y343940D01*
X414614D01*
Y344071D01*
X414745D01*
Y344203D01*
X415139D01*
Y344334D01*
X415402D01*
Y344465D01*
X415796D01*
Y344597D01*
X417108D01*
Y344465D01*
D02*
G37*
G36*
X416846Y324771D02*
X417371D01*
Y324640D01*
X417502D01*
Y324508D01*
X417634D01*
Y324377D01*
X417765D01*
Y324114D01*
X417896D01*
Y323720D01*
X418028D01*
Y322801D01*
X417896D01*
Y322407D01*
X417765D01*
Y322013D01*
X417634D01*
Y321751D01*
X417371D01*
Y321488D01*
X417240D01*
Y321357D01*
X417108D01*
Y321094D01*
X416846D01*
Y320832D01*
X416715D01*
Y320963D01*
X416583D01*
Y320832D01*
X416452D01*
Y320701D01*
X416189D01*
Y320569D01*
X415927D01*
Y320438D01*
X415664D01*
Y320307D01*
X415139D01*
Y320175D01*
X414351D01*
Y320307D01*
X413957D01*
Y320438D01*
X413826D01*
Y320569D01*
X413695D01*
Y320701D01*
X413563D01*
Y320832D01*
X413432D01*
Y321226D01*
X413301D01*
Y322276D01*
X413432D01*
Y322670D01*
X413563D01*
Y323195D01*
X413695D01*
Y323326D01*
X413826D01*
Y323458D01*
X413957D01*
Y323720D01*
X414089D01*
Y323852D01*
X414220D01*
Y323983D01*
X414351D01*
Y324114D01*
X414614D01*
Y324246D01*
X414745D01*
Y324377D01*
X415008D01*
Y324508D01*
X415270D01*
Y324771D01*
X415402D01*
Y324640D01*
X415664D01*
Y324771D01*
X416189D01*
Y324902D01*
X416846D01*
Y324771D01*
D02*
G37*
%LPC*%
G36*
X439035Y328841D02*
X438510D01*
Y328710D01*
X437460D01*
Y328578D01*
X436934D01*
Y328447D01*
X436540D01*
Y328316D01*
X436146D01*
Y328185D01*
X435753D01*
Y328053D01*
X435490D01*
Y327922D01*
X435359D01*
Y323326D01*
X435227D01*
Y323195D01*
X434834D01*
Y323064D01*
X433915D01*
Y323195D01*
X433258D01*
Y323326D01*
X432733D01*
Y323458D01*
X432076D01*
Y323589D01*
X431026D01*
Y323720D01*
X430763D01*
Y323589D01*
X430632D01*
Y323326D01*
X430501D01*
Y323195D01*
X430370D01*
Y322539D01*
X430107D01*
Y321751D01*
X429976D01*
Y320963D01*
X429844D01*
Y319388D01*
X429976D01*
Y318862D01*
X430107D01*
Y318206D01*
X430370D01*
Y317681D01*
X430501D01*
Y317549D01*
X430632D01*
Y317418D01*
X430763D01*
Y317156D01*
X431026D01*
Y316893D01*
X431289D01*
Y316630D01*
X431551D01*
Y316499D01*
X431814D01*
Y316368D01*
X432076D01*
Y316236D01*
X432470D01*
Y316105D01*
X432864D01*
Y315974D01*
X435096D01*
Y316105D01*
X435753D01*
Y316236D01*
X436146D01*
Y316368D01*
X436540D01*
Y316499D01*
X436803D01*
Y316630D01*
X437328D01*
Y316893D01*
X437853D01*
Y317024D01*
X438116D01*
Y317156D01*
X438247D01*
Y317287D01*
X438641D01*
Y317549D01*
X438904D01*
Y317681D01*
X439035D01*
Y317812D01*
X439298D01*
Y317943D01*
X439429D01*
Y318075D01*
X439560D01*
Y318206D01*
X439823D01*
Y318337D01*
X439954D01*
Y318469D01*
X440085D01*
Y318600D01*
X440217D01*
Y318731D01*
X440348D01*
Y318862D01*
X440479D01*
Y318994D01*
X440611D01*
Y319125D01*
X440742D01*
Y319256D01*
X440873D01*
Y319519D01*
X441005D01*
Y319650D01*
X441136D01*
Y319913D01*
X441267D01*
Y320044D01*
X441398D01*
Y320307D01*
X441530D01*
Y320438D01*
X441661D01*
Y320701D01*
X441792D01*
Y320963D01*
X441924D01*
Y321094D01*
X442055D01*
Y321488D01*
X442186D01*
Y321620D01*
X442317D01*
Y322276D01*
X442449D01*
Y322670D01*
X442580D01*
Y322801D01*
X442711D01*
Y325952D01*
X442580D01*
Y326084D01*
X442449D01*
Y326346D01*
X442317D01*
Y326871D01*
X442186D01*
Y327003D01*
X442055D01*
Y327134D01*
X441924D01*
Y327265D01*
X441792D01*
Y327528D01*
X441661D01*
Y327659D01*
X441530D01*
Y327791D01*
X441267D01*
Y327922D01*
X441136D01*
Y328185D01*
X440873D01*
Y328316D01*
X440611D01*
Y328447D01*
X440217D01*
Y328578D01*
X439823D01*
Y328710D01*
X439035D01*
Y328841D01*
D02*
G37*
%LPD*%
D11*
X396034Y301000D02*
Y302999D01*
Y302000D01*
X390035D01*
Y301000D01*
Y302999D01*
Y305998D02*
X396034D01*
X394034Y307998D01*
X396034Y309997D01*
X390035D01*
X396034Y311996D02*
X390035D01*
Y314996D01*
X391035Y315995D01*
X395034D01*
X396034Y314996D01*
Y311996D01*
X393035Y323993D02*
Y327991D01*
X390035Y339987D02*
Y335989D01*
X394034Y339987D01*
X395034D01*
X396034Y338988D01*
Y336988D01*
X395034Y335989D01*
Y341987D02*
X396034Y342986D01*
Y344986D01*
X395034Y345985D01*
X391035D01*
X390035Y344986D01*
Y342986D01*
X391035Y341987D01*
X395034D01*
X390035Y351983D02*
Y347985D01*
X394034Y351983D01*
X395034D01*
X396034Y350984D01*
Y348985D01*
X395034Y347985D01*
Y353983D02*
X396034Y354982D01*
Y356982D01*
X395034Y357982D01*
X391035D01*
X390035Y356982D01*
Y354982D01*
X391035Y353983D01*
X395034D01*
X399500Y305499D02*
X403498D01*
X404498Y304499D01*
Y302500D01*
X403498Y301500D01*
X399500D01*
X398500Y302500D01*
Y304499D01*
X400499Y303499D02*
X398500Y305499D01*
Y304499D02*
X399500Y305499D01*
X404498Y307498D02*
X399500D01*
X398500Y308498D01*
Y310497D01*
X399500Y311497D01*
X404498D01*
Y313496D02*
Y317495D01*
Y315495D01*
X398500D01*
Y319494D02*
X404498D01*
X402499Y321494D01*
X404498Y323493D01*
X398500D01*
X403498Y329491D02*
X404498Y328491D01*
Y326492D01*
X403498Y325492D01*
X402499D01*
X401499Y326492D01*
Y328491D01*
X400499Y329491D01*
X399500D01*
X398500Y328491D01*
Y326492D01*
X399500Y325492D01*
X401499Y337488D02*
Y341487D01*
X403498Y353483D02*
X404498Y352484D01*
Y350484D01*
X403498Y349484D01*
X402499D01*
X401499Y350484D01*
Y352484D01*
X400499Y353483D01*
X399500D01*
X398500Y352484D01*
Y350484D01*
X399500Y349484D01*
X404498Y355483D02*
X398500D01*
X401499D01*
Y359481D01*
X404498D01*
X398500D01*
X404498Y361481D02*
X398500D01*
Y364480D01*
X399500Y365479D01*
X403498D01*
X404498Y364480D01*
Y361481D01*
X398500Y367479D02*
X404498D01*
X398500Y371477D01*
X404498D01*
M02*
