G04*
G04 #@! TF.GenerationSoftware,Altium Limited,Altium Designer,19.0.10 (269)*
G04*
G04 Layer_Color=16711935*
%FSLAX25Y25*%
%MOIN*%
G70*
G01*
G75*
%ADD67C,0.10500*%
%ADD68C,0.06000*%
D67*
X575866Y216535D02*
X575764Y217542D01*
X575461Y218507D01*
X574970Y219392D01*
X574311Y220159D01*
X573511Y220779D01*
X572603Y221224D01*
X571623Y221478D01*
X570613Y221529D01*
X569613Y221376D01*
X568664Y221024D01*
X567806Y220489D01*
X567072Y219792D01*
X566494Y218962D01*
X566095Y218032D01*
X565892Y217041D01*
Y216030D01*
X566095Y215039D01*
X566494Y214109D01*
X567072Y213279D01*
X567806Y212582D01*
X568664Y212046D01*
X569613Y211695D01*
X570613Y211542D01*
X571623Y211593D01*
X572603Y211847D01*
X573511Y212292D01*
X574311Y212912D01*
X574970Y213679D01*
X575461Y214564D01*
X575764Y215529D01*
X575866Y216535D01*
Y413386D02*
X575764Y414392D01*
X575461Y415358D01*
X574970Y416242D01*
X574311Y417010D01*
X573511Y417629D01*
X572603Y418075D01*
X571623Y418328D01*
X570613Y418379D01*
X569613Y418226D01*
X568664Y417875D01*
X567806Y417340D01*
X567072Y416643D01*
X566494Y415812D01*
X566095Y414883D01*
X565892Y413892D01*
Y412880D01*
X566095Y411889D01*
X566494Y410959D01*
X567072Y410129D01*
X567806Y409432D01*
X568664Y408897D01*
X569613Y408545D01*
X570613Y408392D01*
X571623Y408443D01*
X572603Y408697D01*
X573511Y409143D01*
X574311Y409762D01*
X574970Y410530D01*
X575461Y411414D01*
X575764Y412379D01*
X575866Y413386D01*
X395035Y216535D02*
X394933Y217542D01*
X394630Y218507D01*
X394139Y219392D01*
X393480Y220159D01*
X392680Y220779D01*
X391772Y221224D01*
X390793Y221478D01*
X389782Y221529D01*
X388782Y221376D01*
X387833Y221024D01*
X386975Y220489D01*
X386242Y219792D01*
X385664Y218962D01*
X385265Y218032D01*
X385061Y217041D01*
Y216030D01*
X385265Y215039D01*
X385664Y214109D01*
X386242Y213279D01*
X386975Y212582D01*
X387833Y212046D01*
X388782Y211695D01*
X389782Y211542D01*
X390793Y211593D01*
X391772Y211847D01*
X392680Y212292D01*
X393480Y212912D01*
X394139Y213679D01*
X394630Y214564D01*
X394933Y215529D01*
X395035Y216535D01*
Y413386D02*
X394933Y414392D01*
X394630Y415358D01*
X394139Y416242D01*
X393480Y417010D01*
X392680Y417629D01*
X391772Y418075D01*
X390793Y418328D01*
X389782Y418379D01*
X388782Y418226D01*
X387833Y417875D01*
X386975Y417340D01*
X386242Y416643D01*
X385664Y415812D01*
X385265Y414883D01*
X385061Y413892D01*
Y412880D01*
X385265Y411889D01*
X385664Y410959D01*
X386242Y410129D01*
X386975Y409432D01*
X387833Y408897D01*
X388782Y408545D01*
X389782Y408392D01*
X390793Y408443D01*
X391772Y408697D01*
X392680Y409143D01*
X393480Y409762D01*
X394139Y410530D01*
X394630Y411414D01*
X394933Y412379D01*
X395035Y413386D01*
D68*
X550500Y206000D02*
X550337Y206974D01*
X549867Y207843D01*
X549141Y208511D01*
X548237Y208908D01*
X547252Y208990D01*
X546295Y208747D01*
X545468Y208207D01*
X544862Y207428D01*
X544541Y206494D01*
Y205506D01*
X544862Y204572D01*
X545468Y203793D01*
X546295Y203253D01*
X547252Y203010D01*
X548237Y203092D01*
X549141Y203488D01*
X549867Y204157D01*
X550337Y205026D01*
X550500Y206000D01*
X384000Y395000D02*
X383837Y395974D01*
X383367Y396843D01*
X382641Y397512D01*
X381736Y397908D01*
X380752Y397990D01*
X379795Y397747D01*
X378968Y397207D01*
X378362Y396428D01*
X378041Y395494D01*
Y394506D01*
X378362Y393572D01*
X378968Y392793D01*
X379795Y392253D01*
X380752Y392010D01*
X381736Y392092D01*
X382641Y392489D01*
X383367Y393157D01*
X383837Y394026D01*
X384000Y395000D01*
M02*
