G04*
G04 #@! TF.GenerationSoftware,Altium Limited,Altium Designer,19.0.10 (269)*
G04*
G04 Layer_Physical_Order=1*
G04 Layer_Color=255*
%FSLAX25Y25*%
%MOIN*%
G70*
G01*
G75*
%ADD10C,0.01000*%
%ADD19C,0.09708*%
G04:AMPARAMS|DCode=26|XSize=73.01mil|YSize=24.1mil|CornerRadius=12.05mil|HoleSize=0mil|Usage=FLASHONLY|Rotation=270.000|XOffset=0mil|YOffset=0mil|HoleType=Round|Shape=RoundedRectangle|*
%AMROUNDEDRECTD26*
21,1,0.07301,0.00000,0,0,270.0*
21,1,0.04891,0.02410,0,0,270.0*
1,1,0.02410,0.00000,-0.02445*
1,1,0.02410,0.00000,0.02445*
1,1,0.02410,0.00000,0.02445*
1,1,0.02410,0.00000,-0.02445*
%
%ADD26ROUNDEDRECTD26*%
%ADD27R,0.02410X0.07301*%
%ADD45R,0.06000X0.04000*%
%ADD46C,0.04500*%
%ADD47R,0.03000X0.04000*%
%ADD48R,0.04000X0.03000*%
%ADD49R,0.07000X0.03500*%
%ADD50R,0.01181X0.04724*%
%ADD51R,0.04724X0.01181*%
%ADD52R,0.03500X0.03500*%
%ADD53R,0.09843X0.06693*%
%ADD54R,0.22441X0.07087*%
%ADD55R,0.04800X0.04300*%
%ADD56R,0.05906X0.03150*%
%ADD57R,0.06102X0.02362*%
%ADD58R,0.11024X0.05118*%
%ADD59R,0.03150X0.03543*%
%ADD60R,0.06693X0.09843*%
%ADD61R,0.03543X0.02362*%
%ADD62C,0.03937*%
%ADD63C,0.04000*%
%ADD64C,0.02000*%
%ADD65C,0.08000*%
%ADD66C,0.04000*%
%ADD67R,0.05906X0.05906*%
%ADD68C,0.05906*%
%ADD69C,0.07000*%
%ADD70C,0.06000*%
%ADD71C,0.03150*%
G36*
X453500Y377500D02*
X452500Y376500D01*
X441000D01*
Y366000D01*
X415000D01*
Y368592D01*
X415012Y368610D01*
X415183Y369470D01*
Y374361D01*
X415012Y375221D01*
X415000Y375239D01*
Y376000D01*
X420500D01*
Y374000D01*
X429000D01*
Y388000D01*
X453500D01*
Y377500D01*
D02*
G37*
G36*
X414595Y347422D02*
X419320D01*
Y337579D01*
X414595D01*
Y333248D01*
X409477D01*
X409477Y337000D01*
X400500Y337000D01*
X400500Y348000D01*
X409477Y348000D01*
X409477Y351752D01*
X414595D01*
Y347422D01*
D02*
G37*
G36*
X464500Y376500D02*
Y360500D01*
X454500Y350500D01*
X454500Y329000D01*
X431000D01*
Y348000D01*
X431500D01*
X444000Y360500D01*
Y375480D01*
X452500D01*
X452890Y375558D01*
X453221Y375779D01*
X453942Y376500D01*
X464500Y376500D01*
D02*
G37*
D10*
X439500Y281134D02*
Y291998D01*
X439000Y280634D02*
X439500Y281134D01*
X451500Y252399D02*
Y262000D01*
Y239601D02*
X460012D01*
X526000Y300876D02*
X527000Y299876D01*
X546592D01*
X554000Y292469D01*
X452449Y371500D02*
X462500Y361449D01*
X535376Y328876D02*
Y337500D01*
X535000Y328500D02*
X535376Y328876D01*
X535000Y328500D02*
X537679D01*
X503500Y357425D02*
Y357441D01*
Y353500D02*
Y357425D01*
X496451D02*
X503500D01*
X486500Y367376D02*
X496451Y357425D01*
X572644Y394124D02*
X573500Y393268D01*
X563000Y394124D02*
X572644D01*
X555500Y401624D02*
X555911Y401212D01*
Y400712D02*
Y401212D01*
Y400712D02*
X562500Y394124D01*
X563000D01*
X556500Y387876D02*
X557000D01*
X557500Y390876D02*
X557600Y390976D01*
X557500Y388376D02*
Y390876D01*
X557000Y387876D02*
X557500Y388376D01*
X557600Y390976D02*
X559352D01*
X562500Y394124D01*
X514313Y405813D02*
X514500Y406000D01*
X514000Y418000D02*
X514500Y417500D01*
Y406000D02*
Y417500D01*
X461500Y340000D02*
Y349376D01*
X479500Y367376D01*
X459500Y338000D02*
X461500Y340000D01*
X459500Y310000D02*
Y338000D01*
X462500Y361000D02*
Y361449D01*
X450874Y371500D02*
X452449D01*
X499000Y360500D02*
X499582D01*
X500672Y359409D01*
X508410D01*
X499172Y365876D02*
X503671Y361378D01*
X498500Y365876D02*
X499172D01*
X503671Y361378D02*
X508410D01*
X537679Y328500D02*
X550860Y341681D01*
Y346716D01*
X552510Y348366D01*
X552760D01*
X492528Y228972D02*
X493000Y228500D01*
X492528Y228972D02*
Y236000D01*
X529124Y253500D02*
Y254000D01*
Y249876D02*
Y253500D01*
Y249876D02*
X533000Y246000D01*
X491937Y236000D02*
X492528D01*
X487817Y240120D02*
X491937Y236000D01*
X487817Y240120D02*
Y258325D01*
X490492Y261000D01*
X491870D01*
X477864Y239740D02*
X483472D01*
X477000Y238876D02*
X477864Y239740D01*
X529124Y281000D02*
X533500D01*
X529124Y275000D02*
Y281000D01*
X526524Y296100D02*
X529124Y293500D01*
X526000Y296624D02*
X526524Y296100D01*
X526000Y296624D02*
Y300876D01*
X490492Y286000D02*
X491870D01*
X487082D02*
X490492D01*
X486082Y285000D02*
X487082Y286000D01*
X485500Y285000D02*
X486082D01*
X491870Y252130D02*
X493500Y250500D01*
X491870Y252130D02*
Y256000D01*
X547681Y243809D02*
Y275157D01*
X542181Y280658D02*
X547681Y275157D01*
X541376Y237504D02*
X547681Y243809D01*
X541376Y221500D02*
Y237504D01*
X540376Y220500D02*
X541376Y221500D01*
X521376D02*
Y247444D01*
X520376Y220500D02*
X521376Y221500D01*
X527624Y252000D02*
X529124Y253500D01*
X527624Y221500D02*
Y252000D01*
X526624Y220500D02*
X527624Y221500D01*
X482000Y330376D02*
X486147Y334524D01*
X494524D01*
X503500Y343500D01*
X488000Y330876D02*
X503500D01*
X512912Y365315D02*
X514313Y363914D01*
X508410Y365315D02*
X512912D01*
X514313Y356336D02*
Y363914D01*
X517500Y357260D02*
Y376000D01*
X512624Y354648D02*
X514313Y356336D01*
X512624Y347887D02*
Y354648D01*
X503500Y338762D02*
X512624Y347887D01*
X503500Y330876D02*
Y338762D01*
X514406Y354166D02*
X517500Y357260D01*
X514406Y351626D02*
Y354166D01*
X503500Y347786D02*
X512500Y356786D01*
X503500Y343500D02*
Y347786D01*
X512500Y356786D02*
Y361796D01*
X511040Y363256D02*
X512500Y361796D01*
X508500Y363256D02*
X511040D01*
X508410Y363347D02*
X508500Y363256D01*
X490492Y266000D02*
X491870D01*
X483959Y259467D02*
X490492Y266000D01*
X483959Y259388D02*
Y259467D01*
X478500Y253929D02*
X483959Y259388D01*
X478500Y246124D02*
Y253929D01*
X477500Y245124D02*
X478500Y246124D01*
X477000Y245124D02*
X477500D01*
X491870Y291000D02*
Y304500D01*
X480500Y287624D02*
Y292469D01*
X486000Y290492D02*
Y298500D01*
Y290492D02*
X490492Y286000D01*
X459500Y301500D02*
X466493Y294507D01*
X452925Y308075D02*
X459500Y301500D01*
X466493Y294507D02*
X471128D01*
X459500Y301500D02*
Y310000D01*
X480500Y281376D02*
X480876Y281000D01*
X491870D01*
X482000Y325500D02*
Y330376D01*
X471128Y314628D02*
X482000Y325500D01*
X471128Y299507D02*
Y314628D01*
X488000Y316500D02*
Y330876D01*
X476500Y305000D02*
X488000Y316500D01*
X476500Y292374D02*
Y305000D01*
X475914Y291788D02*
X476500Y292374D01*
X467621Y291788D02*
X475914D01*
X466977Y291144D02*
X467621Y291788D01*
X466977Y286788D02*
Y291144D01*
Y286788D02*
X469258Y284507D01*
X471128D01*
X475500Y281000D02*
Y287005D01*
X472998Y289507D02*
X475500Y287005D01*
X440661Y308075D02*
X452925D01*
X440000Y307414D02*
X440661Y308075D01*
X440000Y298746D02*
Y307414D01*
X439500Y298246D02*
X440000Y298746D01*
X444500Y305000D02*
X444911Y304589D01*
Y302594D02*
Y304589D01*
Y302594D02*
X447998Y299507D01*
X449868D01*
X466000Y273500D02*
X466500D01*
X469500Y270500D01*
X478000D01*
X443070Y284507D02*
X449181D01*
X471128Y289507D02*
X472998D01*
X448500Y280500D02*
Y283826D01*
X449181Y284507D01*
X449868D01*
X407000Y294811D02*
X416189Y304000D01*
X420500D01*
X458063Y272563D02*
X459500Y274000D01*
X453937Y272563D02*
X458063D01*
X454019Y272645D02*
Y287226D01*
X453937Y272563D02*
X454019Y272645D01*
X433500Y286000D02*
Y291998D01*
X418971Y294659D02*
X435260Y278370D01*
X418819Y294811D02*
X418971Y294659D01*
X435260Y272563D02*
Y278370D01*
X451160Y262339D02*
X451500Y262000D01*
X460000Y239589D02*
X460012Y239601D01*
X460000Y239589D02*
X464589D01*
X465000Y240000D01*
Y250000D02*
Y261500D01*
X442740Y272563D02*
X453937D01*
X465000Y261500D01*
X447750Y262339D02*
X451160D01*
X438798Y271291D02*
X447750Y262339D01*
X436335Y271291D02*
X438798D01*
X435260Y272366D02*
X436335Y271291D01*
X435260Y272366D02*
Y272563D01*
X451738Y289507D02*
X454019Y287226D01*
X449868Y289507D02*
X451738D01*
X439500Y281134D02*
X440075Y281709D01*
X440272D02*
X443070Y284507D01*
X440075Y281709D02*
X440272D01*
X439000Y280437D02*
Y280634D01*
X418971Y294659D02*
X449716D01*
X449868Y294507D01*
X433500Y298246D02*
X439500D01*
X565624Y364876D02*
X566000Y364500D01*
X560500Y364876D02*
X565624D01*
X559500Y365876D02*
X560500Y364876D01*
X513130Y249952D02*
Y256000D01*
Y249952D02*
X515000Y248082D01*
Y247500D02*
Y248082D01*
X491494Y281376D02*
X491870Y281000D01*
X493248Y266000D02*
X504500Y277252D01*
X491870Y266000D02*
X493248D01*
X504500Y277252D02*
Y309124D01*
X532000Y336624D01*
Y339000D01*
X532031Y339032D01*
Y351536D01*
X530063Y339063D02*
Y351536D01*
X501500Y310500D02*
X530063Y339063D01*
X501500Y279252D02*
Y310500D01*
X493248Y271000D02*
X501500Y279252D01*
X491870Y271000D02*
X493248D01*
X526126Y339626D02*
Y351536D01*
X498500Y312000D02*
X526126Y339626D01*
X498500Y281252D02*
Y312000D01*
X493248Y276000D02*
X498500Y281252D01*
X491870Y276000D02*
X493248D01*
X529124Y259500D02*
Y260000D01*
X525476Y255853D02*
X529124Y259500D01*
X525476Y251544D02*
Y255853D01*
X521376Y247444D02*
X525476Y251544D01*
X541915Y292203D02*
Y292734D01*
Y291585D02*
Y292203D01*
Y291585D02*
X546531Y286968D01*
X561383D01*
X562000Y287586D01*
Y293500D01*
X548376Y307124D02*
X562000Y293500D01*
X526000Y307124D02*
X548376D01*
X529124Y260000D02*
X538000D01*
X513130Y286000D02*
Y291000D01*
Y294075D02*
X513500Y294445D01*
Y294811D01*
X513130Y291000D02*
Y294075D01*
X513500Y294811D02*
X514789Y296100D01*
X526524D01*
X536713Y287000D02*
X541915Y292203D01*
X538000Y260000D02*
X540965Y257035D01*
X542181D01*
X513130Y266000D02*
X514508D01*
X519008Y261500D01*
X521876D01*
X522876Y260500D01*
Y260000D02*
Y260500D01*
Y254000D02*
Y260000D01*
X535376Y269586D02*
Y273853D01*
X534791Y269000D02*
X535376Y269586D01*
Y273853D02*
X542181Y280658D01*
X529124Y269000D02*
X534791D01*
X513130Y271000D02*
X514205Y269925D01*
X521951D01*
X522876Y269000D01*
Y275000D01*
X529124Y287000D02*
X536713D01*
X522876Y281000D02*
Y287000D01*
Y280500D02*
Y281000D01*
X513130Y276000D02*
X518376D01*
X522876Y280500D01*
X513130Y281000D02*
X514508D01*
X518729Y285222D01*
Y288353D01*
X522876Y292500D01*
Y293000D01*
X510500Y383000D02*
X517500Y376000D01*
X477500Y353000D02*
X481500D01*
X471500Y347000D02*
X477500Y353000D01*
X471500Y340000D02*
Y347000D01*
X546000Y351536D02*
X546081Y351616D01*
X556740D01*
X559990Y348366D01*
X560240D01*
X537968Y347655D02*
X541624Y344000D01*
X535968Y347655D02*
X537968D01*
X541624Y343500D02*
Y344000D01*
X480000Y367376D02*
X486000D01*
X503500Y357441D02*
X508410D01*
X465500Y395124D02*
X484400Y376224D01*
X488456D01*
X489100Y375579D01*
Y369976D02*
Y375579D01*
X486500Y367376D02*
X489100Y369976D01*
X486000Y367376D02*
X486500D01*
X462500Y373000D02*
X479376D01*
X480000Y373624D01*
X486000D01*
X479500Y367376D02*
X480000D01*
X487000Y338124D02*
X488000Y337124D01*
X487000Y338124D02*
Y346500D01*
X486500Y347000D02*
X487000Y346500D01*
X481500Y337624D02*
X482000Y337124D01*
X481500Y337624D02*
Y347000D01*
Y353000D02*
X486500D01*
X553500Y372124D02*
X559500D01*
X553000D02*
X553500D01*
X543736Y353799D02*
X546000Y351536D01*
X543736Y353799D02*
Y357350D01*
X543646Y357441D02*
X543736Y357350D01*
X541874Y357441D02*
X543646D01*
X546159Y373189D02*
X547000Y374030D01*
Y379500D01*
X541780Y383508D02*
X552132D01*
X556500Y387876D01*
X537000Y378729D02*
X541780Y383508D01*
X526876Y398000D02*
X530376Y401500D01*
X539500D01*
X544124D01*
X537500Y403500D02*
X539500Y401500D01*
X544124D02*
X547000D01*
X553000Y365876D02*
X553500D01*
X551500Y377418D02*
Y378000D01*
Y377418D02*
X552000Y376918D01*
Y373124D02*
Y376918D01*
Y373124D02*
X553000Y372124D01*
X541624Y337500D02*
Y343500D01*
X535376Y337500D02*
Y343500D01*
Y344000D01*
X534000Y345376D02*
X535376Y344000D01*
X534000Y345376D02*
Y351536D01*
X544124Y401500D02*
X551500Y394124D01*
X526876Y397500D02*
Y398000D01*
X537500Y403500D02*
Y421500D01*
X535968Y347655D02*
Y351536D01*
X559990Y356634D02*
X560240D01*
X526876Y391500D02*
Y397500D01*
X514315Y391500D02*
X520315Y397500D01*
X526876D01*
X514315Y385000D02*
Y391500D01*
X516284Y388876D02*
X517907Y390500D01*
X521000D01*
X516284Y385000D02*
Y388876D01*
X510500Y391500D02*
X529000Y410000D01*
X533624Y391000D02*
X538000D01*
X533124Y391500D02*
X533624Y391000D01*
X533124Y397500D02*
X538000D01*
X541874Y367284D02*
X541965Y367374D01*
X547374D01*
X547500Y367500D01*
X541874Y373189D02*
X546159D01*
X541874Y365315D02*
X545337D01*
X550860Y359792D01*
Y358284D02*
X552510Y356634D01*
X550575Y368302D02*
X553000Y365876D01*
X550860Y358284D02*
Y359792D01*
X550575Y368302D02*
Y368774D01*
X546159Y373189D02*
X550575Y368774D01*
X541874Y371220D02*
X541965Y371130D01*
X544504D01*
X547500Y368134D01*
Y367500D02*
Y368134D01*
X560240Y356634D02*
X577134D01*
X582500Y362000D01*
Y399000D01*
X564000Y401000D02*
X580500D01*
X582500Y399000D01*
X552500Y407000D02*
X558000D01*
X564000Y401000D01*
X547000Y401500D02*
X552500Y407000D01*
X458000Y389876D02*
X459000Y388876D01*
X457038Y389876D02*
X458000D01*
X456914Y390000D02*
X457038Y389876D01*
X424747Y390000D02*
X456914D01*
X422747Y392000D02*
X424747Y390000D01*
X418243Y387496D02*
X422747Y392000D01*
X416787Y387496D02*
X418243D01*
X412935Y383644D02*
X416787Y387496D01*
X412935Y380973D02*
Y383644D01*
X459000Y388876D02*
X465000D01*
X452449Y371500D02*
X465000Y384051D01*
Y388876D01*
X441711Y342549D02*
X450874Y351712D01*
Y371500D01*
X560000Y372124D02*
X567141D01*
X559500D02*
X560000D01*
X567141D02*
X571750Y376732D01*
X573500D01*
X563000Y375124D02*
Y387876D01*
X560000Y372124D02*
X563000Y375124D01*
X489173Y426000D02*
X490500D01*
X469850Y428350D02*
X486823D01*
X467000Y425500D02*
X469850Y428350D01*
X486823D02*
X489173Y426000D01*
X510500Y383000D02*
Y391500D01*
X529000Y410000D02*
Y418000D01*
X504752Y375248D02*
X508319D01*
X503000Y377000D02*
Y388500D01*
Y377000D02*
X504752Y375248D01*
X504220Y373280D02*
X508319D01*
X498671Y378829D02*
Y414126D01*
Y378829D02*
X504220Y373280D01*
X505158Y369342D02*
X508319D01*
X490500Y384000D02*
Y406000D01*
Y384000D02*
X505158Y369342D01*
X503626Y367374D02*
X508319D01*
X486047Y384953D02*
Y411547D01*
Y384953D02*
X503626Y367374D01*
X551500Y394124D02*
X557000D01*
X537000Y370086D02*
Y378729D01*
X537834Y369252D02*
X541874D01*
X537000Y370086D02*
X537834Y369252D01*
X479500Y413624D02*
Y419500D01*
Y413624D02*
X480500Y412624D01*
X473000Y413624D02*
Y419500D01*
Y413624D02*
X474000Y412624D01*
X474500D01*
X467000D02*
Y419500D01*
X408500Y393500D02*
X415500D01*
X416500Y392500D01*
X408500Y393500D02*
X408925Y393075D01*
Y381243D02*
Y393075D01*
Y381243D02*
X409195Y380973D01*
X560240Y348366D02*
Y356634D01*
X559500Y357374D02*
X560240Y356634D01*
X534000Y409500D02*
Y418000D01*
X527500Y403000D02*
X534000Y409500D01*
X536475Y422525D02*
X537500Y421500D01*
X534000Y423000D02*
X534475Y422525D01*
X536475D01*
X535968Y351536D02*
Y353307D01*
X540102Y357441D01*
X508319Y375248D02*
X508410Y375157D01*
X470150Y422650D02*
X473000Y425500D01*
X457850Y422650D02*
X470150D01*
X457500Y423000D02*
X457850Y422650D01*
X514315Y351536D02*
X514406Y351626D01*
X524157Y372250D02*
Y385000D01*
Y372250D02*
X532031Y364376D01*
Y351536D02*
Y364376D01*
X416675Y380973D02*
X421150D01*
X424500Y377624D01*
X425000D01*
X416500Y392500D02*
Y398500D01*
X421000Y400747D02*
Y407500D01*
Y400747D02*
X422747Y399000D01*
Y398500D02*
Y399000D01*
X423803Y405000D02*
X441500D01*
X421303Y407500D02*
X423803Y405000D01*
X421000Y407500D02*
X421303D01*
X455500Y395124D02*
X459000D01*
X452220Y398403D02*
X455500Y395124D01*
X452220Y398403D02*
Y401957D01*
X449177Y405000D02*
X452220Y401957D01*
X441500Y405000D02*
X449177D01*
X459000Y395124D02*
X465000D01*
X467000Y396624D02*
Y406376D01*
X465500Y395124D02*
X467000Y396624D01*
X465000Y395124D02*
X465500D01*
X467000Y406376D02*
X474500D01*
X480500D01*
X483953Y421047D02*
X491750D01*
X498671Y414126D01*
X479500Y425500D02*
X483953Y421047D01*
X508319Y373280D02*
X508410Y373189D01*
X508319Y369342D02*
X508410Y369252D01*
X508319Y367374D02*
X508410Y367284D01*
X486047Y411547D02*
X490500Y416000D01*
D19*
X412282Y342549D02*
D03*
X441711D02*
D03*
D26*
X416675Y371916D02*
D03*
X412935D02*
D03*
X409195D02*
D03*
Y380973D02*
D03*
X412935D02*
D03*
D27*
X416675D02*
D03*
D45*
X499000Y204500D02*
D03*
Y217500D02*
D03*
D46*
X465000Y261500D02*
D03*
X451500Y262000D02*
D03*
X503500Y330876D02*
D03*
Y343500D02*
D03*
X408500Y393500D02*
D03*
X421000Y407500D02*
D03*
D47*
X522876Y293000D02*
D03*
X529124D02*
D03*
X526876Y397500D02*
D03*
X533124D02*
D03*
Y391500D02*
D03*
X526876D02*
D03*
X416500Y392500D02*
D03*
X422747D02*
D03*
Y398500D02*
D03*
X416500D02*
D03*
X541624Y343500D02*
D03*
X535376D02*
D03*
X541624Y337500D02*
D03*
X535376D02*
D03*
X522876Y281000D02*
D03*
X529124D02*
D03*
Y287000D02*
D03*
X522876D02*
D03*
Y275000D02*
D03*
X529124D02*
D03*
Y269000D02*
D03*
X522876D02*
D03*
X529124Y260000D02*
D03*
X522876D02*
D03*
Y254000D02*
D03*
X529124D02*
D03*
X546624Y220500D02*
D03*
X540376D02*
D03*
X526624D02*
D03*
X520376D02*
D03*
D48*
X480500Y281376D02*
D03*
Y287624D02*
D03*
X563000Y387876D02*
D03*
Y394124D02*
D03*
X557000D02*
D03*
Y387876D02*
D03*
X559500Y372124D02*
D03*
Y365876D02*
D03*
X553500Y372124D02*
D03*
Y365876D02*
D03*
X474500Y406376D02*
D03*
Y412624D02*
D03*
X480500Y406376D02*
D03*
Y412624D02*
D03*
X467000Y406376D02*
D03*
Y412624D02*
D03*
X465000Y388876D02*
D03*
Y395124D02*
D03*
X459000Y388876D02*
D03*
Y395124D02*
D03*
X425000Y377624D02*
D03*
Y371376D02*
D03*
X486000Y367376D02*
D03*
Y373624D02*
D03*
X480000Y367376D02*
D03*
Y373624D02*
D03*
X482000Y337124D02*
D03*
Y330876D02*
D03*
X488000Y337124D02*
D03*
Y330876D02*
D03*
X439500Y291998D02*
D03*
Y298246D02*
D03*
X433500Y291998D02*
D03*
Y298246D02*
D03*
X526000Y300876D02*
D03*
Y307124D02*
D03*
X477000Y238876D02*
D03*
Y245124D02*
D03*
D49*
X573500Y376732D02*
D03*
Y393268D02*
D03*
D50*
X535968Y351536D02*
D03*
X534000D02*
D03*
X532031D02*
D03*
X530063D02*
D03*
X528094D02*
D03*
X526126D02*
D03*
X524157D02*
D03*
X522189D02*
D03*
X520221D02*
D03*
X518252D02*
D03*
X516284D02*
D03*
X514315D02*
D03*
Y385000D02*
D03*
X516284D02*
D03*
X518252D02*
D03*
X520221D02*
D03*
X522189D02*
D03*
X524157D02*
D03*
X526126D02*
D03*
X528094D02*
D03*
X530063D02*
D03*
X532031D02*
D03*
X534000D02*
D03*
X535968D02*
D03*
D51*
X508410Y357441D02*
D03*
Y359409D02*
D03*
Y361378D02*
D03*
Y363347D02*
D03*
Y365315D02*
D03*
Y367284D02*
D03*
Y369252D02*
D03*
Y371220D02*
D03*
Y373189D02*
D03*
Y375157D02*
D03*
Y377126D02*
D03*
Y379095D02*
D03*
X541874D02*
D03*
Y377126D02*
D03*
Y375157D02*
D03*
Y373189D02*
D03*
Y371220D02*
D03*
Y369252D02*
D03*
Y367284D02*
D03*
Y365315D02*
D03*
Y363347D02*
D03*
Y361378D02*
D03*
Y359409D02*
D03*
Y357441D02*
D03*
D52*
X467000Y419500D02*
D03*
Y425500D02*
D03*
X479500D02*
D03*
Y419500D02*
D03*
X473000Y425500D02*
D03*
Y419500D02*
D03*
X486500Y353000D02*
D03*
Y347000D02*
D03*
X481500Y353000D02*
D03*
Y347000D02*
D03*
D53*
X435126Y371500D02*
D03*
X450874D02*
D03*
D54*
X441500Y383500D02*
D03*
Y405000D02*
D03*
D55*
X552760Y348366D02*
D03*
Y356634D02*
D03*
X560240Y348366D02*
D03*
Y356634D02*
D03*
D56*
X513130Y256000D02*
D03*
Y261000D02*
D03*
Y266000D02*
D03*
Y271000D02*
D03*
Y276000D02*
D03*
Y281000D02*
D03*
Y286000D02*
D03*
Y291000D02*
D03*
X491870Y256000D02*
D03*
Y261000D02*
D03*
Y266000D02*
D03*
Y271000D02*
D03*
Y276000D02*
D03*
Y281000D02*
D03*
Y286000D02*
D03*
Y291000D02*
D03*
D57*
X471128Y284507D02*
D03*
Y289507D02*
D03*
Y294507D02*
D03*
Y299507D02*
D03*
X449868Y284507D02*
D03*
Y289507D02*
D03*
Y294507D02*
D03*
Y299507D02*
D03*
D58*
X451500Y239601D02*
D03*
Y252399D02*
D03*
D59*
X439000Y280437D02*
D03*
X435260Y272563D02*
D03*
X442740D02*
D03*
D60*
X484000Y207626D02*
D03*
Y223374D02*
D03*
D61*
X492528Y236000D02*
D03*
X483472Y232260D02*
D03*
Y239740D02*
D03*
D62*
X547500Y206000D02*
D03*
X379500Y395500D02*
D03*
D63*
X391500Y298500D02*
Y339157D01*
Y298500D02*
X407000Y283000D01*
X391500Y339157D02*
X394893Y342549D01*
X410718D02*
X411500Y343332D01*
X561500Y248000D02*
Y278000D01*
X554000Y280658D02*
X554765Y279892D01*
X559608D02*
X561500Y278000D01*
X554765Y279892D02*
X559608D01*
X546624Y233124D02*
X561500Y248000D01*
X546624Y220500D02*
Y233124D01*
Y219570D02*
Y220500D01*
X531553Y204500D02*
X546624Y219570D01*
X499000Y204500D02*
X531553D01*
X454541Y199500D02*
X493000D01*
X498000Y204500D01*
X499000D01*
X448541Y205500D02*
X454541Y199500D01*
X448000Y205500D02*
X448541D01*
X394893Y342549D02*
X410718D01*
X389000Y266500D02*
X390500D01*
X407000Y283000D01*
X425000Y228500D02*
Y241000D01*
Y228500D02*
X448000Y205500D01*
X411500Y343332D02*
Y370555D01*
X409195Y371350D02*
Y371916D01*
Y371350D02*
X409990Y370555D01*
X411500D01*
Y343332D02*
X412282Y342549D01*
D64*
X483472Y223374D02*
X484000Y222847D01*
X483472Y223374D02*
Y232260D01*
X418819Y255870D02*
Y271189D01*
Y255870D02*
X442747Y231942D01*
X451558D01*
X458000Y225500D01*
X453000Y220500D02*
X481653D01*
X448000Y225500D02*
X453000Y220500D01*
X407000Y236500D02*
Y271189D01*
Y236500D02*
X418000Y225500D01*
X481653Y220500D02*
X484000Y222847D01*
Y223374D02*
X484972Y224346D01*
X484000Y207626D02*
Y209201D01*
X492299Y217500D01*
X499000D01*
D65*
X542181Y257035D02*
D03*
X554000D02*
D03*
X542181Y292469D02*
D03*
X554000D02*
D03*
Y280658D02*
D03*
Y268847D02*
D03*
X542181Y280658D02*
D03*
Y268847D02*
D03*
X407000Y294811D02*
D03*
X418819D02*
D03*
Y283000D02*
D03*
Y271189D02*
D03*
X407000Y283000D02*
D03*
Y271189D02*
D03*
D66*
X524000Y418000D02*
D03*
Y423000D02*
D03*
X529000D02*
D03*
Y418000D02*
D03*
X534000D02*
D03*
Y423000D02*
D03*
X519000D02*
D03*
Y418000D02*
D03*
X514000D02*
D03*
Y423000D02*
D03*
D67*
X490500Y406000D02*
D03*
D68*
Y416000D02*
D03*
Y426000D02*
D03*
D69*
X478000Y270500D02*
D03*
Y260500D02*
D03*
X465000Y240000D02*
D03*
Y250000D02*
D03*
X461500Y340000D02*
D03*
X471500D02*
D03*
D70*
X418000Y225500D02*
D03*
Y205500D02*
D03*
X448000Y225500D02*
D03*
Y205500D02*
D03*
X458000Y225500D02*
D03*
Y205500D02*
D03*
D71*
X535000Y328500D02*
D03*
X514313Y405813D02*
D03*
X555500Y402000D02*
D03*
X462500Y361000D02*
D03*
X459000Y365500D02*
D03*
Y357500D02*
D03*
X462500Y365000D02*
D03*
X499000Y360500D02*
D03*
X498500Y365876D02*
D03*
X493000Y228500D02*
D03*
X533000Y246000D02*
D03*
X533500Y281000D02*
D03*
X503500Y353500D02*
D03*
X485500Y285000D02*
D03*
X493500Y250500D02*
D03*
X491870Y304500D02*
D03*
X480500Y292469D02*
D03*
X486000Y298500D02*
D03*
X459500Y310000D02*
D03*
X444500Y305000D02*
D03*
X466000Y273500D02*
D03*
X475500Y281000D02*
D03*
X448500Y280500D02*
D03*
X420500Y304000D02*
D03*
X459500Y274000D02*
D03*
X433500Y286000D02*
D03*
X389000Y266500D02*
D03*
X425000Y241000D02*
D03*
X566000Y364500D02*
D03*
X515000Y247500D02*
D03*
X546000Y351536D02*
D03*
X547000Y379500D02*
D03*
X551500Y378000D02*
D03*
X521000Y390500D02*
D03*
X538000Y397500D02*
D03*
Y391000D02*
D03*
X459000Y361500D02*
D03*
Y369500D02*
D03*
Y373000D02*
D03*
X462500D02*
D03*
Y369000D02*
D03*
X547500Y367500D02*
D03*
X527500Y403000D02*
D03*
X503000Y388500D02*
D03*
X457500Y423000D02*
D03*
M02*
