G04*
G04 #@! TF.GenerationSoftware,Altium Limited,Altium Designer,19.0.10 (269)*
G04*
G04 Layer_Physical_Order=2*
G04 Layer_Color=16711680*
%FSLAX25Y25*%
%MOIN*%
G70*
G01*
G75*
%ADD11C,0.01000*%
%ADD57C,0.03937*%
%ADD59C,0.02000*%
%ADD60C,0.07000*%
%ADD61C,0.08000*%
%ADD62C,0.04000*%
%ADD63R,0.05906X0.05906*%
%ADD64C,0.05906*%
%ADD65C,0.06000*%
%ADD66C,0.03150*%
G36*
X572866Y429134D02*
X573500D01*
X587500Y416000D01*
X587500Y219237D01*
X587000Y218737D01*
Y213000D01*
X575500Y201500D01*
Y200500D01*
X552574D01*
X552406Y200971D01*
X552474Y201026D01*
X553348Y202092D01*
X553998Y203308D01*
X554399Y204628D01*
X554534Y206000D01*
X554399Y207372D01*
X553998Y208692D01*
X553348Y209908D01*
X552474Y210974D01*
X551408Y211848D01*
X550192Y212498D01*
X548872Y212899D01*
X547500Y213034D01*
X546128Y212899D01*
X544808Y212498D01*
X543592Y211848D01*
X542526Y210974D01*
X541652Y209908D01*
X541002Y208692D01*
X540601Y207372D01*
X540466Y206000D01*
X540601Y204628D01*
X541002Y203308D01*
X541652Y202092D01*
X542312Y201287D01*
X542526Y201026D01*
X542594Y200971D01*
X542425Y200500D01*
X389500D01*
X382370Y207630D01*
X382709Y207998D01*
X383402Y207406D01*
X384912Y206481D01*
X386548Y205803D01*
X388270Y205390D01*
X390035Y205251D01*
X391801Y205390D01*
X393523Y205803D01*
X395159Y206481D01*
X396669Y207406D01*
X398015Y208556D01*
X399165Y209902D01*
X400090Y211412D01*
X400768Y213048D01*
X401181Y214770D01*
X401320Y216535D01*
X401181Y218301D01*
X400768Y220023D01*
X400090Y221659D01*
X399165Y223168D01*
X398015Y224515D01*
X396669Y225665D01*
X395159Y226590D01*
X393523Y227268D01*
X391801Y227681D01*
X390035Y227820D01*
X388270Y227681D01*
X386548Y227268D01*
X384912Y226590D01*
X383402Y225665D01*
X382056Y224515D01*
X380906Y223168D01*
X379981Y221659D01*
X379303Y220023D01*
X378890Y218301D01*
X378751Y216535D01*
X378890Y214770D01*
X379303Y213048D01*
X379981Y211412D01*
X380906Y209902D01*
X381498Y209209D01*
X381130Y208870D01*
X375000Y215000D01*
Y218366D01*
X373500Y220067D01*
Y394632D01*
X374000Y394656D01*
X374101Y393628D01*
X374501Y392308D01*
X375151Y391092D01*
X376026Y390026D01*
D01*
X377092Y389152D01*
X378308Y388502D01*
X379628Y388101D01*
X381000Y387966D01*
X382372Y388101D01*
X383692Y388502D01*
X384908Y389152D01*
X385974Y390026D01*
X386848Y391092D01*
X387498Y392308D01*
X387899Y393628D01*
X388034Y395000D01*
X387899Y396372D01*
X387498Y397692D01*
X386848Y398908D01*
X385974Y399974D01*
X384908Y400848D01*
X383692Y401499D01*
X382372Y401899D01*
X381000Y402034D01*
X379628Y401899D01*
X378308Y401499D01*
X377092Y400848D01*
X376026Y399974D01*
X375500Y399332D01*
D01*
X375151Y398908D01*
X374501Y397692D01*
X374101Y396372D01*
X374000Y395344D01*
X373500Y395369D01*
Y416533D01*
X375000Y417933D01*
Y418000D01*
X386500Y429500D01*
X390035D01*
X571500Y430500D01*
X572866Y429134D01*
D02*
G37*
%LPC*%
G36*
X534000Y426026D02*
X533217Y425923D01*
X532487Y425621D01*
X531860Y425140D01*
X531380Y424513D01*
X531077Y423783D01*
X530974Y423000D01*
X531077Y422217D01*
X531380Y421487D01*
X531860Y420860D01*
X531885Y420841D01*
X531911Y420297D01*
X531703Y420089D01*
X531159Y420115D01*
X531140Y420140D01*
X530513Y420620D01*
X529783Y420923D01*
X529000Y421026D01*
X528217Y420923D01*
X527487Y420620D01*
X526860Y420140D01*
X526750Y419996D01*
X526250D01*
X526140Y420140D01*
X525513Y420620D01*
X524783Y420923D01*
X524000Y421026D01*
X523217Y420923D01*
X522487Y420620D01*
X521860Y420140D01*
X521750Y419996D01*
X521250D01*
X521140Y420140D01*
X520996Y420250D01*
Y420750D01*
X521140Y420860D01*
X521621Y421487D01*
X521923Y422217D01*
X522026Y423000D01*
X521923Y423783D01*
X521621Y424513D01*
X521140Y425140D01*
X520513Y425621D01*
X519783Y425923D01*
X519000Y426026D01*
X518217Y425923D01*
X517487Y425621D01*
X516860Y425140D01*
X516379Y424513D01*
X516077Y423783D01*
X515974Y423000D01*
X516077Y422217D01*
X516379Y421487D01*
X516860Y420860D01*
X516885Y420841D01*
X516911Y420297D01*
X516703Y420089D01*
X516159Y420115D01*
X516140Y420140D01*
X515513Y420620D01*
X514783Y420923D01*
X514000Y421026D01*
X513217Y420923D01*
X512487Y420620D01*
X511860Y420140D01*
X511379Y419513D01*
X511077Y418783D01*
X510974Y418000D01*
X511077Y417217D01*
X511379Y416487D01*
X511860Y415860D01*
X512487Y415379D01*
X513217Y415077D01*
X514000Y414974D01*
X514783Y415077D01*
X515513Y415379D01*
X516140Y415860D01*
X516250Y416004D01*
X516750D01*
X516860Y415860D01*
X517487Y415379D01*
X518217Y415077D01*
X519000Y414974D01*
X519783Y415077D01*
X520513Y415379D01*
X521140Y415860D01*
X521250Y416004D01*
X521750D01*
X521860Y415860D01*
X522487Y415379D01*
X523217Y415077D01*
X524000Y414974D01*
X524783Y415077D01*
X525513Y415379D01*
X526140Y415860D01*
X526250Y416004D01*
X526750D01*
X526860Y415860D01*
X527487Y415379D01*
X528217Y415077D01*
X529000Y414974D01*
X529783Y415077D01*
X530513Y415379D01*
X531140Y415860D01*
X531250Y416004D01*
X531750D01*
X531860Y415860D01*
X532487Y415379D01*
X533217Y415077D01*
X533294Y415067D01*
X533434Y414544D01*
X533164Y414336D01*
X532928Y414029D01*
X529652D01*
X529066Y413913D01*
X528570Y413581D01*
X517482Y402493D01*
X517150Y401997D01*
X517034Y401411D01*
Y399315D01*
X516534Y399069D01*
X516298Y399249D01*
X515672Y399509D01*
X515000Y399597D01*
X514328Y399509D01*
X513701Y399249D01*
X513164Y398836D01*
X513037Y398671D01*
X513000Y398664D01*
X512338Y398222D01*
X511655Y397539D01*
X482696D01*
X482422Y397749D01*
X481796Y398008D01*
X481124Y398097D01*
X480451Y398008D01*
X479825Y397749D01*
X479287Y397336D01*
X478874Y396798D01*
X478615Y396172D01*
X478527Y395500D01*
X478615Y394828D01*
X478874Y394201D01*
X479287Y393664D01*
X479825Y393251D01*
X480451Y392991D01*
X481124Y392903D01*
X481796Y392991D01*
X482422Y393251D01*
X482696Y393461D01*
X512500D01*
X513280Y393616D01*
X513942Y394058D01*
X514370Y394486D01*
X515000Y394403D01*
X515672Y394492D01*
X516298Y394751D01*
X516534Y394931D01*
X517034Y394685D01*
Y394197D01*
X505919Y383081D01*
X505587Y382585D01*
X505471Y382000D01*
Y381796D01*
X505009Y381672D01*
X504749Y382298D01*
X504336Y382836D01*
X503798Y383249D01*
X503172Y383508D01*
X502500Y383597D01*
X501828Y383508D01*
X501201Y383249D01*
X500664Y382836D01*
X500251Y382298D01*
X499992Y381672D01*
X499913Y381076D01*
X496367Y377529D01*
X493072D01*
X492836Y377836D01*
X492299Y378249D01*
X491672Y378508D01*
X491000Y378597D01*
X490328Y378508D01*
X489702Y378249D01*
X489164Y377836D01*
X488751Y377298D01*
X488491Y376672D01*
X488403Y376000D01*
X488491Y375328D01*
X488751Y374701D01*
X489164Y374164D01*
X489702Y373751D01*
X490328Y373492D01*
X491000Y373403D01*
X491672Y373492D01*
X492299Y373751D01*
X492836Y374164D01*
X493072Y374471D01*
X497000D01*
X497585Y374587D01*
X498081Y374919D01*
X501705Y378542D01*
X501828Y378491D01*
X502500Y378403D01*
X503172Y378491D01*
X503798Y378751D01*
X504336Y379164D01*
X504749Y379701D01*
X505009Y380328D01*
X505471Y380204D01*
Y370634D01*
X501333Y366496D01*
X501001Y366000D01*
X500906Y365523D01*
X500664Y365336D01*
X500251Y364798D01*
X499992Y364172D01*
X499903Y363500D01*
X499992Y362828D01*
X500251Y362201D01*
X500664Y361664D01*
X501201Y361251D01*
X501828Y360992D01*
X502500Y360903D01*
X503172Y360992D01*
X503798Y361251D01*
X504336Y361664D01*
X504749Y362201D01*
X505009Y362828D01*
X505097Y363500D01*
X505009Y364172D01*
X504749Y364798D01*
X504407Y365244D01*
X508081Y368919D01*
X508413Y369415D01*
X508529Y370000D01*
Y381366D01*
X519644Y392482D01*
X519976Y392978D01*
X520092Y393563D01*
Y400778D01*
X527030Y407715D01*
X527596Y407575D01*
X527751Y407201D01*
X528164Y406664D01*
X528701Y406251D01*
X529328Y405992D01*
X530000Y405903D01*
X530672Y405992D01*
X531298Y406251D01*
X531836Y406664D01*
X532072Y406971D01*
X539928D01*
X540164Y406664D01*
X540701Y406251D01*
X541328Y405992D01*
X542000Y405903D01*
X542672Y405992D01*
X543298Y406251D01*
X543836Y406664D01*
X544249Y407201D01*
X544509Y407828D01*
X544597Y408500D01*
X544509Y409172D01*
X544249Y409798D01*
X543836Y410336D01*
X543298Y410749D01*
X542672Y411009D01*
X542000Y411097D01*
X541328Y411009D01*
X540701Y410749D01*
X540164Y410336D01*
X539928Y410029D01*
X536831D01*
X536661Y410529D01*
X536836Y410664D01*
X537249Y411201D01*
X537508Y411828D01*
X537597Y412500D01*
X537508Y413172D01*
X537249Y413799D01*
X536836Y414336D01*
X536299Y414749D01*
X535767Y414969D01*
X535679Y415294D01*
X535685Y415511D01*
X536140Y415860D01*
X536621Y416487D01*
X536923Y417217D01*
X537026Y418000D01*
X536923Y418783D01*
X536621Y419513D01*
X536140Y420140D01*
X535996Y420250D01*
Y420750D01*
X536140Y420860D01*
X536621Y421487D01*
X536923Y422217D01*
X537026Y423000D01*
X536923Y423783D01*
X536621Y424513D01*
X536140Y425140D01*
X535513Y425621D01*
X534783Y425923D01*
X534000Y426026D01*
D02*
G37*
G36*
X490500Y419987D02*
X489468Y419851D01*
X488507Y419453D01*
X487681Y418819D01*
X487047Y417993D01*
X486649Y417032D01*
X486513Y416000D01*
X486649Y414968D01*
X487047Y414007D01*
X487681Y413181D01*
X488507Y412547D01*
X489468Y412149D01*
X490500Y412013D01*
X491532Y412149D01*
X492493Y412547D01*
X493319Y413181D01*
X493953Y414007D01*
X494351Y414968D01*
X494487Y416000D01*
X494351Y417032D01*
X493953Y417993D01*
X493319Y418819D01*
X492493Y419453D01*
X491532Y419851D01*
X490500Y419987D01*
D02*
G37*
G36*
X570866Y424671D02*
X569101Y424532D01*
X567379Y424118D01*
X565743Y423441D01*
X564233Y422515D01*
X562887Y421365D01*
X561736Y420019D01*
X560811Y418509D01*
X560134Y416873D01*
X559720Y415151D01*
X559581Y413386D01*
X559720Y411621D01*
X560134Y409899D01*
X560811Y408263D01*
X561736Y406753D01*
X562887Y405406D01*
X564233Y404256D01*
X565743Y403331D01*
X567379Y402653D01*
X569101Y402240D01*
X570866Y402101D01*
X572632Y402240D01*
X574353Y402653D01*
X575989Y403331D01*
X577499Y404256D01*
X578846Y405406D01*
X579996Y406753D01*
X580921Y408263D01*
X581599Y409899D01*
X582012Y411621D01*
X582151Y413386D01*
X582012Y415151D01*
X581599Y416873D01*
X580921Y418509D01*
X579996Y420019D01*
X578846Y421365D01*
X577499Y422515D01*
X575989Y423441D01*
X574353Y424118D01*
X572632Y424532D01*
X570866Y424671D01*
D02*
G37*
G36*
X390035D02*
X388270Y424532D01*
X386548Y424118D01*
X384912Y423441D01*
X383402Y422515D01*
X382056Y421365D01*
X380906Y420019D01*
X379981Y418509D01*
X379303Y416873D01*
X378890Y415151D01*
X378751Y413386D01*
X378890Y411621D01*
X379303Y409899D01*
X379981Y408263D01*
X380906Y406753D01*
X382056Y405406D01*
X383402Y404256D01*
X384912Y403331D01*
X386548Y402653D01*
X388270Y402240D01*
X390035Y402101D01*
X391801Y402240D01*
X393523Y402653D01*
X395159Y403331D01*
X396669Y404256D01*
X398015Y405406D01*
X399165Y406753D01*
X400090Y408263D01*
X400768Y409899D01*
X401181Y411621D01*
X401320Y413386D01*
X401181Y415151D01*
X400768Y416873D01*
X400090Y418509D01*
X399165Y420019D01*
X398015Y421365D01*
X396669Y422515D01*
X395159Y423441D01*
X393523Y424118D01*
X391801Y424532D01*
X390035Y424671D01*
D02*
G37*
G36*
X494453Y409953D02*
X486547D01*
Y402047D01*
X494453D01*
Y409953D01*
D02*
G37*
G36*
X547000Y387097D02*
X546328Y387009D01*
X545702Y386749D01*
X545164Y386336D01*
X544751Y385799D01*
X544491Y385172D01*
X544403Y384500D01*
X544491Y383828D01*
X544751Y383202D01*
X545164Y382664D01*
X545702Y382251D01*
X545971Y382139D01*
Y379696D01*
X545664Y379460D01*
X545251Y378922D01*
X544991Y378296D01*
X544903Y377624D01*
X544991Y376952D01*
X545251Y376325D01*
X545664Y375787D01*
X546202Y375375D01*
X546828Y375115D01*
X547500Y375027D01*
X548172Y375115D01*
X548799Y375375D01*
X549336Y375787D01*
X549749Y376325D01*
X550008Y376952D01*
X550097Y377624D01*
X550008Y378296D01*
X549749Y378922D01*
X549336Y379460D01*
X549029Y379696D01*
Y382915D01*
X549249Y383202D01*
X549508Y383828D01*
X549597Y384500D01*
X549508Y385172D01*
X549249Y385799D01*
X548836Y386336D01*
X548299Y386749D01*
X547672Y387009D01*
X547000Y387097D01*
D02*
G37*
G36*
X546000Y351097D02*
X545328Y351009D01*
X544701Y350749D01*
X544164Y350336D01*
X543751Y349798D01*
X543639Y349529D01*
X508572D01*
X508336Y349836D01*
X507798Y350249D01*
X507172Y350508D01*
X506500Y350597D01*
X505828Y350508D01*
X505201Y350249D01*
X504664Y349836D01*
X504251Y349299D01*
X503992Y348672D01*
X503903Y348000D01*
X503992Y347328D01*
X504251Y346702D01*
X504664Y346164D01*
X505201Y345751D01*
X505828Y345492D01*
X506500Y345403D01*
X507172Y345492D01*
X507798Y345751D01*
X508336Y346164D01*
X508572Y346471D01*
X544415D01*
X544701Y346251D01*
X545328Y345991D01*
X546000Y345903D01*
X546672Y345991D01*
X547298Y346251D01*
X547836Y346664D01*
X548249Y347201D01*
X548509Y347828D01*
X548597Y348500D01*
X548509Y349172D01*
X548249Y349798D01*
X547836Y350336D01*
X547298Y350749D01*
X546672Y351009D01*
X546000Y351097D01*
D02*
G37*
G36*
X481500Y346039D02*
X480325Y345884D01*
X479231Y345431D01*
X478291Y344709D01*
X477569Y343769D01*
X477116Y342675D01*
X476961Y341500D01*
X477116Y340325D01*
X477569Y339231D01*
X478291Y338291D01*
X479231Y337569D01*
X480325Y337116D01*
X481500Y336961D01*
X482675Y337116D01*
X483769Y337569D01*
X484709Y338291D01*
X485431Y339231D01*
X485884Y340325D01*
X486039Y341500D01*
X485884Y342675D01*
X485431Y343769D01*
X484709Y344709D01*
X483769Y345431D01*
X482675Y345884D01*
X481500Y346039D01*
D02*
G37*
G36*
X471500D02*
X470325Y345884D01*
X469231Y345431D01*
X468291Y344709D01*
X467569Y343769D01*
X467116Y342675D01*
X466961Y341500D01*
X467116Y340325D01*
X467569Y339231D01*
X468291Y338291D01*
X469231Y337569D01*
X470325Y337116D01*
X471500Y336961D01*
X472675Y337116D01*
X473769Y337569D01*
X474709Y338291D01*
X475431Y339231D01*
X475884Y340325D01*
X476039Y341500D01*
X475884Y342675D01*
X475431Y343769D01*
X474709Y344709D01*
X473769Y345431D01*
X472675Y345884D01*
X471500Y346039D01*
D02*
G37*
G36*
X495000Y327097D02*
X494328Y327009D01*
X493702Y326749D01*
X493164Y326336D01*
X492751Y325799D01*
X492491Y325172D01*
X492403Y324500D01*
X492453Y324116D01*
X489244Y320907D01*
X488799Y321249D01*
X488172Y321509D01*
X487500Y321597D01*
X486828Y321509D01*
X486201Y321249D01*
X485664Y320836D01*
X485251Y320299D01*
X484991Y319672D01*
X484903Y319000D01*
X484991Y318328D01*
X485251Y317702D01*
X485664Y317164D01*
X486201Y316751D01*
X486828Y316492D01*
X487500Y316403D01*
X488172Y316492D01*
X488799Y316751D01*
X489336Y317164D01*
X489585Y317488D01*
X490085Y317587D01*
X490582Y317919D01*
X494616Y321954D01*
X495000Y321903D01*
X495672Y321991D01*
X496299Y322251D01*
X496836Y322664D01*
X497249Y323201D01*
X497508Y323828D01*
X497597Y324500D01*
X497508Y325172D01*
X497249Y325799D01*
X496836Y326336D01*
X496299Y326749D01*
X495672Y327009D01*
X495000Y327097D01*
D02*
G37*
G36*
X525000Y322597D02*
X524328Y322509D01*
X523701Y322249D01*
X523164Y321836D01*
X522751Y321299D01*
X522492Y320672D01*
X522403Y320000D01*
X522492Y319328D01*
X522751Y318702D01*
X523164Y318164D01*
X523701Y317751D01*
X524328Y317492D01*
X525000Y317403D01*
X525672Y317492D01*
X526299Y317751D01*
X526836Y318164D01*
X526880Y318221D01*
X534743D01*
X534751Y318201D01*
X535164Y317664D01*
X535702Y317251D01*
X536328Y316991D01*
X537000Y316903D01*
X537672Y316991D01*
X538299Y317251D01*
X538836Y317664D01*
X539249Y318201D01*
X539508Y318828D01*
X539597Y319500D01*
X539508Y320172D01*
X539249Y320798D01*
X538836Y321336D01*
X538299Y321749D01*
X537672Y322008D01*
X537000Y322097D01*
X536328Y322008D01*
X535702Y321749D01*
X535164Y321336D01*
X535120Y321279D01*
X527257D01*
X527249Y321299D01*
X526836Y321836D01*
X526299Y322249D01*
X525672Y322509D01*
X525000Y322597D01*
D02*
G37*
G36*
X542181Y311508D02*
X540876Y311336D01*
X539660Y310832D01*
X538615Y310031D01*
X537814Y308986D01*
X537310Y307770D01*
X537138Y306465D01*
X537310Y305159D01*
X537814Y303943D01*
X538615Y302899D01*
X539660Y302097D01*
X540876Y301593D01*
X542181Y301421D01*
X543486Y301593D01*
X544703Y302097D01*
X545747Y302899D01*
X546549Y303943D01*
X547052Y305159D01*
X547224Y306465D01*
X547052Y307770D01*
X546549Y308986D01*
X545747Y310031D01*
X544703Y310832D01*
X543486Y311336D01*
X542181Y311508D01*
D02*
G37*
G36*
X571000Y304939D02*
X569646Y304806D01*
X568345Y304411D01*
X567145Y303769D01*
X566093Y302907D01*
X565231Y301855D01*
X564589Y300655D01*
X564194Y299354D01*
X564061Y298000D01*
X564194Y296646D01*
X564589Y295345D01*
X565231Y294145D01*
X566093Y293093D01*
X567145Y292231D01*
X568345Y291589D01*
X569646Y291194D01*
X571000Y291061D01*
X572354Y291194D01*
X573655Y291589D01*
X574855Y292231D01*
X575907Y293093D01*
X576769Y294145D01*
X577411Y295345D01*
X577806Y296646D01*
X577939Y298000D01*
X577806Y299354D01*
X577411Y300655D01*
X576769Y301855D01*
X575907Y302907D01*
X574855Y303769D01*
X573655Y304411D01*
X572354Y304806D01*
X571000Y304939D01*
D02*
G37*
G36*
X418819Y299854D02*
X417514Y299682D01*
X416297Y299179D01*
X415253Y298377D01*
X414451Y297333D01*
X413948Y296116D01*
X413776Y294811D01*
X413948Y293506D01*
X414451Y292289D01*
X415253Y291245D01*
X416297Y290443D01*
X417514Y289940D01*
X418819Y289768D01*
X420124Y289940D01*
X421341Y290443D01*
X422385Y291245D01*
X423186Y292289D01*
X423690Y293506D01*
X423862Y294811D01*
X423690Y296116D01*
X423186Y297333D01*
X422385Y298377D01*
X421341Y299179D01*
X420124Y299682D01*
X418819Y299854D01*
D02*
G37*
G36*
X407000D02*
X405695Y299682D01*
X404478Y299179D01*
X403434Y298377D01*
X402633Y297333D01*
X402129Y296116D01*
X401957Y294811D01*
X402129Y293506D01*
X402633Y292289D01*
X403434Y291245D01*
X404478Y290443D01*
X405695Y289940D01*
X407000Y289768D01*
X408305Y289940D01*
X409522Y290443D01*
X410566Y291245D01*
X411368Y292289D01*
X411871Y293506D01*
X412043Y294811D01*
X411871Y296116D01*
X411368Y297333D01*
X410566Y298377D01*
X409522Y299179D01*
X408305Y299682D01*
X407000Y299854D01*
D02*
G37*
G36*
X554000Y299697D02*
X552695Y299525D01*
X551478Y299021D01*
X550434Y298220D01*
X549633Y297175D01*
X549129Y295959D01*
X548957Y294654D01*
X549129Y293348D01*
X549633Y292132D01*
X550434Y291088D01*
X551478Y290286D01*
X552695Y289782D01*
X554000Y289610D01*
X555305Y289782D01*
X556522Y290286D01*
X557566Y291088D01*
X558367Y292132D01*
X558871Y293348D01*
X559043Y294654D01*
X558871Y295959D01*
X558367Y297175D01*
X557566Y298220D01*
X556522Y299021D01*
X555305Y299525D01*
X554000Y299697D01*
D02*
G37*
G36*
X542181D02*
X540876Y299525D01*
X539660Y299021D01*
X538615Y298220D01*
X537814Y297175D01*
X537310Y295959D01*
X537138Y294654D01*
X537310Y293348D01*
X537814Y292132D01*
X538615Y291088D01*
X539660Y290286D01*
X540876Y289782D01*
X542181Y289610D01*
X543486Y289782D01*
X544703Y290286D01*
X545747Y291088D01*
X546549Y292132D01*
X547052Y293348D01*
X547224Y294654D01*
X547052Y295959D01*
X546549Y297175D01*
X545747Y298220D01*
X544703Y299021D01*
X543486Y299525D01*
X542181Y299697D01*
D02*
G37*
G36*
X536000Y291097D02*
X535328Y291008D01*
X534701Y290749D01*
X534164Y290336D01*
X533986Y290104D01*
X524075D01*
X523490Y289988D01*
X522993Y289656D01*
X522884Y289546D01*
X522500Y289597D01*
X521828Y289509D01*
X521202Y289249D01*
X520664Y288836D01*
X520251Y288299D01*
X519991Y287672D01*
X519903Y287000D01*
X519991Y286328D01*
X520251Y285701D01*
X520664Y285164D01*
X521202Y284751D01*
X521828Y284491D01*
X522500Y284403D01*
X523172Y284491D01*
X523799Y284751D01*
X524336Y285164D01*
X524749Y285701D01*
X525008Y286328D01*
X525097Y287000D01*
X525137Y287045D01*
X527345D01*
X527646Y286545D01*
X527492Y286172D01*
X527403Y285500D01*
X527454Y285116D01*
X507866Y265529D01*
X504572D01*
X504336Y265836D01*
X503798Y266249D01*
X503172Y266509D01*
X502500Y266597D01*
X501828Y266509D01*
X501201Y266249D01*
X500664Y265836D01*
X500251Y265299D01*
X499992Y264672D01*
X499903Y264000D01*
X499992Y263328D01*
X500251Y262702D01*
X500664Y262164D01*
X501201Y261751D01*
X501828Y261491D01*
X502500Y261403D01*
X503172Y261491D01*
X503798Y261751D01*
X504336Y262164D01*
X504572Y262471D01*
X508500D01*
X509085Y262587D01*
X509581Y262919D01*
X529616Y282954D01*
X530000Y282903D01*
X530672Y282992D01*
X531298Y283251D01*
X531836Y283664D01*
X532249Y284202D01*
X532509Y284828D01*
X532597Y285500D01*
X532509Y286172D01*
X532354Y286545D01*
X532655Y287045D01*
X533871D01*
X534164Y286664D01*
X534701Y286251D01*
X535328Y285992D01*
X536000Y285903D01*
X536672Y285992D01*
X537298Y286251D01*
X537836Y286664D01*
X538249Y287201D01*
X538509Y287828D01*
X538597Y288500D01*
X538509Y289172D01*
X538249Y289798D01*
X537836Y290336D01*
X537298Y290749D01*
X536672Y291008D01*
X536000Y291097D01*
D02*
G37*
G36*
X444500Y291039D02*
X443325Y290884D01*
X442231Y290431D01*
X441291Y289709D01*
X440569Y288769D01*
X440116Y287675D01*
X439961Y286500D01*
X440116Y285325D01*
X440569Y284231D01*
X441291Y283291D01*
X442231Y282569D01*
X443325Y282116D01*
X444500Y281961D01*
X445675Y282116D01*
X446769Y282569D01*
X447709Y283291D01*
X448431Y284231D01*
X448884Y285325D01*
X449039Y286500D01*
X448884Y287675D01*
X448431Y288769D01*
X447709Y289709D01*
X446769Y290431D01*
X445675Y290884D01*
X444500Y291039D01*
D02*
G37*
G36*
X407000Y288043D02*
X405695Y287871D01*
X404478Y287368D01*
X403434Y286566D01*
X402633Y285522D01*
X402129Y284305D01*
X401957Y283000D01*
X402129Y281695D01*
X402633Y280478D01*
X403434Y279434D01*
X404478Y278632D01*
X405695Y278129D01*
X407000Y277957D01*
X408305Y278129D01*
X409522Y278632D01*
X410566Y279434D01*
X411368Y280478D01*
X411871Y281695D01*
X412043Y283000D01*
X411871Y284305D01*
X411368Y285522D01*
X410566Y286566D01*
X409522Y287368D01*
X408305Y287871D01*
X407000Y288043D01*
D02*
G37*
G36*
X542181Y287886D02*
X540876Y287714D01*
X539660Y287210D01*
X538615Y286409D01*
X537814Y285364D01*
X537310Y284148D01*
X537138Y282842D01*
X537310Y281537D01*
X537814Y280321D01*
X538615Y279276D01*
X539660Y278475D01*
X540876Y277971D01*
X542181Y277799D01*
X543486Y277971D01*
X544703Y278475D01*
X545747Y279276D01*
X546549Y280321D01*
X547052Y281537D01*
X547224Y282842D01*
X547052Y284148D01*
X546549Y285364D01*
X545747Y286409D01*
X544703Y287210D01*
X543486Y287714D01*
X542181Y287886D01*
D02*
G37*
G36*
X390000Y289939D02*
X388646Y289806D01*
X387345Y289411D01*
X386145Y288770D01*
X385093Y287907D01*
X384230Y286855D01*
X383589Y285655D01*
X383194Y284354D01*
X383061Y283000D01*
X383194Y281646D01*
X383589Y280345D01*
X384230Y279145D01*
X385093Y278093D01*
X386145Y277231D01*
X387345Y276589D01*
X388646Y276194D01*
X390000Y276061D01*
X391354Y276194D01*
X392655Y276589D01*
X393855Y277231D01*
X394907Y278093D01*
X395770Y279145D01*
X396411Y280345D01*
X396806Y281646D01*
X396939Y283000D01*
X396806Y284354D01*
X396411Y285655D01*
X395770Y286855D01*
X394907Y287907D01*
X393855Y288770D01*
X392655Y289411D01*
X391354Y289806D01*
X390000Y289939D01*
D02*
G37*
G36*
X571000Y286435D02*
X569646Y286302D01*
X568345Y285907D01*
X567145Y285266D01*
X566093Y284403D01*
X565231Y283351D01*
X564589Y282152D01*
X564194Y280850D01*
X564061Y279496D01*
X564194Y278142D01*
X564589Y276841D01*
X565231Y275641D01*
X566093Y274589D01*
X567145Y273727D01*
X568345Y273085D01*
X569646Y272691D01*
X571000Y272557D01*
X572354Y272691D01*
X573655Y273085D01*
X574855Y273727D01*
X575907Y274589D01*
X576769Y275641D01*
X577411Y276841D01*
X577806Y278142D01*
X577939Y279496D01*
X577806Y280850D01*
X577411Y282152D01*
X576769Y283351D01*
X575907Y284403D01*
X574855Y285266D01*
X573655Y285907D01*
X572354Y286302D01*
X571000Y286435D01*
D02*
G37*
G36*
X444500Y281039D02*
X443325Y280884D01*
X442231Y280431D01*
X441291Y279709D01*
X440569Y278769D01*
X440116Y277675D01*
X439961Y276500D01*
X440116Y275325D01*
X440569Y274231D01*
X441291Y273291D01*
X442231Y272569D01*
X443325Y272116D01*
X444500Y271961D01*
X445675Y272116D01*
X446769Y272569D01*
X447709Y273291D01*
X448431Y274231D01*
X448884Y275325D01*
X449039Y276500D01*
X448884Y277675D01*
X448431Y278769D01*
X447709Y279709D01*
X446769Y280431D01*
X445675Y280884D01*
X444500Y281039D01*
D02*
G37*
G36*
X418819Y276232D02*
X417514Y276060D01*
X416297Y275556D01*
X415253Y274755D01*
X414451Y273711D01*
X413948Y272494D01*
X413776Y271189D01*
X413948Y269884D01*
X414451Y268667D01*
X415253Y267623D01*
X416297Y266822D01*
X417514Y266318D01*
X418819Y266146D01*
X420124Y266318D01*
X421341Y266822D01*
X422385Y267623D01*
X423186Y268667D01*
X423690Y269884D01*
X423862Y271189D01*
X423690Y272494D01*
X423186Y273711D01*
X422385Y274755D01*
X421341Y275556D01*
X420124Y276060D01*
X418819Y276232D01*
D02*
G37*
G36*
X407000D02*
X405695Y276060D01*
X404478Y275556D01*
X403434Y274755D01*
X402633Y273711D01*
X402129Y272494D01*
X401957Y271189D01*
X402129Y269884D01*
X402633Y268667D01*
X403434Y267623D01*
X404478Y266822D01*
X405695Y266318D01*
X407000Y266146D01*
X408305Y266318D01*
X409522Y266822D01*
X410566Y267623D01*
X411368Y268667D01*
X411871Y269884D01*
X412043Y271189D01*
X411871Y272494D01*
X411368Y273711D01*
X410566Y274755D01*
X409522Y275556D01*
X408305Y276060D01*
X407000Y276232D01*
D02*
G37*
G36*
X542181Y276075D02*
X540876Y275903D01*
X539660Y275399D01*
X538615Y274598D01*
X537814Y273553D01*
X537310Y272337D01*
X537138Y271031D01*
X537310Y269726D01*
X537814Y268510D01*
X538615Y267465D01*
X539660Y266664D01*
X540876Y266160D01*
X542181Y265988D01*
X543486Y266160D01*
X544703Y266664D01*
X545747Y267465D01*
X546549Y268510D01*
X547052Y269726D01*
X547224Y271031D01*
X547052Y272337D01*
X546549Y273553D01*
X545747Y274598D01*
X544703Y275399D01*
X543486Y275903D01*
X542181Y276075D01*
D02*
G37*
G36*
X489500Y259039D02*
X488325Y258884D01*
X487231Y258431D01*
X486291Y257709D01*
X485569Y256769D01*
X485116Y255675D01*
X484961Y254500D01*
X485116Y253325D01*
X485569Y252231D01*
X486291Y251291D01*
X487231Y250569D01*
X488325Y250116D01*
X489500Y249961D01*
X490675Y250116D01*
X491769Y250569D01*
X492709Y251291D01*
X493431Y252231D01*
X493884Y253325D01*
X494039Y254500D01*
X493884Y255675D01*
X493431Y256769D01*
X492709Y257709D01*
X491769Y258431D01*
X490675Y258884D01*
X489500Y259039D01*
D02*
G37*
G36*
Y249039D02*
X488325Y248884D01*
X487231Y248431D01*
X486291Y247709D01*
X485569Y246769D01*
X485116Y245675D01*
X484961Y244500D01*
X485116Y243325D01*
X485569Y242231D01*
X486291Y241291D01*
X487231Y240569D01*
X488325Y240116D01*
X489500Y239961D01*
X490675Y240116D01*
X491769Y240569D01*
X492709Y241291D01*
X493431Y242231D01*
X493884Y243325D01*
X494039Y244500D01*
X493884Y245675D01*
X493431Y246769D01*
X492709Y247709D01*
X491769Y248431D01*
X490675Y248884D01*
X489500Y249039D01*
D02*
G37*
G36*
X461000Y230535D02*
X459956Y230397D01*
X458983Y229994D01*
X458147Y229353D01*
X457506Y228517D01*
X457103Y227544D01*
X456965Y226500D01*
X457103Y225456D01*
X457506Y224483D01*
X458147Y223647D01*
X458983Y223006D01*
X459956Y222603D01*
X461000Y222465D01*
X462044Y222603D01*
X463017Y223006D01*
X463853Y223647D01*
X464494Y224483D01*
X464897Y225456D01*
X465034Y226500D01*
X464897Y227544D01*
X464494Y228517D01*
X463853Y229353D01*
X463017Y229994D01*
X462044Y230397D01*
X461000Y230535D01*
D02*
G37*
G36*
X451000D02*
X449956Y230397D01*
X448983Y229994D01*
X448147Y229353D01*
X447506Y228517D01*
X447103Y227544D01*
X446966Y226500D01*
X447103Y225456D01*
X447506Y224483D01*
X448147Y223647D01*
X448983Y223006D01*
X449956Y222603D01*
X451000Y222465D01*
X452044Y222603D01*
X453017Y223006D01*
X453853Y223647D01*
X454494Y224483D01*
X454897Y225456D01*
X455034Y226500D01*
X454897Y227544D01*
X454494Y228517D01*
X453853Y229353D01*
X453017Y229994D01*
X452044Y230397D01*
X451000Y230535D01*
D02*
G37*
G36*
X421000D02*
X419956Y230397D01*
X418983Y229994D01*
X418147Y229353D01*
X417506Y228517D01*
X417103Y227544D01*
X416965Y226500D01*
X417103Y225456D01*
X417506Y224483D01*
X418147Y223647D01*
X418983Y223006D01*
X419956Y222603D01*
X421000Y222465D01*
X422044Y222603D01*
X423017Y223006D01*
X423853Y223647D01*
X424494Y224483D01*
X424897Y225456D01*
X425035Y226500D01*
X424897Y227544D01*
X424494Y228517D01*
X423853Y229353D01*
X423017Y229994D01*
X422044Y230397D01*
X421000Y230535D01*
D02*
G37*
G36*
X570866Y227820D02*
X569101Y227681D01*
X567379Y227268D01*
X565743Y226590D01*
X564233Y225665D01*
X562887Y224515D01*
X561736Y223168D01*
X560811Y221659D01*
X560134Y220023D01*
X559720Y218301D01*
X559581Y216535D01*
X559720Y214770D01*
X560134Y213048D01*
X560811Y211412D01*
X561736Y209902D01*
X562887Y208556D01*
X564233Y207406D01*
X565743Y206481D01*
X567379Y205803D01*
X569101Y205390D01*
X570866Y205251D01*
X572632Y205390D01*
X573080Y205497D01*
X574353Y205803D01*
X575989Y206481D01*
X577499Y207406D01*
X578846Y208556D01*
X579996Y209902D01*
X580921Y211412D01*
X581599Y213048D01*
X582012Y214770D01*
X582151Y216535D01*
X582012Y218301D01*
X581599Y220023D01*
X580921Y221659D01*
X579996Y223168D01*
X578846Y224515D01*
X577499Y225665D01*
X575989Y226590D01*
X574353Y227268D01*
X572632Y227681D01*
X570866Y227820D01*
D02*
G37*
G36*
X461000Y210535D02*
X459956Y210397D01*
X458983Y209994D01*
X458147Y209353D01*
X457506Y208517D01*
X457103Y207544D01*
X456965Y206500D01*
X457103Y205456D01*
X457506Y204483D01*
X458147Y203647D01*
X458983Y203006D01*
X459956Y202603D01*
X461000Y202466D01*
X462044Y202603D01*
X463017Y203006D01*
X463853Y203647D01*
X464494Y204483D01*
X464897Y205456D01*
X465034Y206500D01*
X464897Y207544D01*
X464494Y208517D01*
X463853Y209353D01*
X463017Y209994D01*
X462044Y210397D01*
X461000Y210535D01*
D02*
G37*
G36*
X451000D02*
X449956Y210397D01*
X448983Y209994D01*
X448147Y209353D01*
X447506Y208517D01*
X447103Y207544D01*
X446966Y206500D01*
X447103Y205456D01*
X447506Y204483D01*
X448147Y203647D01*
X448983Y203006D01*
X449956Y202603D01*
X451000Y202466D01*
X452044Y202603D01*
X453017Y203006D01*
X453853Y203647D01*
X454494Y204483D01*
X454897Y205456D01*
X455034Y206500D01*
X454897Y207544D01*
X454494Y208517D01*
X453853Y209353D01*
X453017Y209994D01*
X452044Y210397D01*
X451000Y210535D01*
D02*
G37*
G36*
X421000D02*
X419956Y210397D01*
X418983Y209994D01*
X418147Y209353D01*
X417506Y208517D01*
X417103Y207544D01*
X416965Y206500D01*
X417103Y205456D01*
X417506Y204483D01*
X418147Y203647D01*
X418983Y203006D01*
X419956Y202603D01*
X421000Y202466D01*
X422044Y202603D01*
X423017Y203006D01*
X423853Y203647D01*
X424494Y204483D01*
X424897Y205456D01*
X425035Y206500D01*
X424897Y207544D01*
X424494Y208517D01*
X423853Y209353D01*
X423017Y209994D01*
X422044Y210397D01*
X421000Y210535D01*
D02*
G37*
%LPD*%
D11*
X529652Y412500D02*
X535000D01*
X518563Y401411D02*
X529652Y412500D01*
X547500Y377624D02*
Y384000D01*
X547000Y384500D02*
X547500Y384000D01*
X545500Y348000D02*
X546000Y348500D01*
X506500Y348000D02*
X545500D01*
X524075Y288575D02*
X535925D01*
X522500Y287000D02*
X524075Y288575D01*
X535925D02*
X536000Y288500D01*
X508500Y264000D02*
X530000Y285500D01*
X502500Y264000D02*
X508500D01*
X502414Y363586D02*
Y365414D01*
Y363586D02*
X502500Y363500D01*
X502414Y365414D02*
X507000Y370000D01*
Y382000D01*
X518563Y393563D01*
Y401411D01*
X491000Y376000D02*
X497000D01*
X502000Y381000D01*
X502500D01*
X530000Y408500D02*
X542000D01*
X536750Y319750D02*
X537000Y319500D01*
X525250Y319750D02*
X536750D01*
X525000Y320000D02*
X525250Y319750D01*
X489500Y319000D02*
X495000Y324500D01*
X487500Y319000D02*
X489500D01*
D57*
X547500Y206000D02*
D03*
X381000Y395000D02*
D03*
D59*
X512500Y395500D02*
X513780Y396780D01*
X514780D01*
X515000Y397000D01*
X481124Y395500D02*
X512500D01*
D60*
X481500Y341500D02*
D03*
X471500D02*
D03*
X444500Y276500D02*
D03*
Y286500D02*
D03*
X489500Y244500D02*
D03*
Y254500D02*
D03*
D61*
X542181Y271031D02*
D03*
X554000D02*
D03*
X542181Y306465D02*
D03*
X554000D02*
D03*
Y294654D02*
D03*
Y282842D02*
D03*
X542181Y294654D02*
D03*
Y282842D02*
D03*
X407000Y294811D02*
D03*
X418819D02*
D03*
Y283000D02*
D03*
Y271189D02*
D03*
X407000Y283000D02*
D03*
Y271189D02*
D03*
D62*
X524000Y418000D02*
D03*
Y423000D02*
D03*
X529000D02*
D03*
Y418000D02*
D03*
X534000D02*
D03*
Y423000D02*
D03*
X519000D02*
D03*
Y418000D02*
D03*
X514000D02*
D03*
Y423000D02*
D03*
D63*
X490500Y406000D02*
D03*
D64*
Y416000D02*
D03*
Y426000D02*
D03*
D65*
X421000Y226500D02*
D03*
Y206500D02*
D03*
X451000Y226500D02*
D03*
Y206500D02*
D03*
X461000Y226500D02*
D03*
Y206500D02*
D03*
D66*
X535000Y412500D02*
D03*
X547500Y377624D02*
D03*
X552500D02*
D03*
X546000Y348500D02*
D03*
X536000Y288500D02*
D03*
X517000Y249500D02*
D03*
X554500Y321500D02*
D03*
X509000Y271000D02*
D03*
X516000Y286500D02*
D03*
X502500Y264000D02*
D03*
Y363500D02*
D03*
X515000Y397000D02*
D03*
X481124Y395500D02*
D03*
X542000Y408500D02*
D03*
X530000D02*
D03*
X502500Y381000D02*
D03*
X491000Y376000D02*
D03*
X547000Y384500D02*
D03*
X506500Y348000D02*
D03*
X525000Y320000D02*
D03*
X487500Y319000D02*
D03*
X495000Y324500D02*
D03*
X547500Y367000D02*
D03*
X522500Y287000D02*
D03*
X521000Y390500D02*
D03*
X537000Y319500D02*
D03*
X530000Y285500D02*
D03*
X535000Y328500D02*
D03*
X462500Y361000D02*
D03*
X459000Y365500D02*
D03*
Y357500D02*
D03*
X462500Y365000D02*
D03*
X538000Y397500D02*
D03*
Y391000D02*
D03*
X459000Y361500D02*
D03*
Y369500D02*
D03*
Y373000D02*
D03*
X462500Y369000D02*
D03*
M02*
